<?xml version="1.0" encoding="utf-8"?>
<!-- Generator: Adobe Illustrator 25.2.1, SVG Export Plug-In . SVG Version: 6.00 Build 0)  -->
<svg version="1.1" id="Layer_1" xmlns="http://www.w3.org/2000/svg" xmlns:xlink="http://www.w3.org/1999/xlink" x="0px" y="0px"
	 viewBox="0 0 392 98" style="enable-background:new 0 0 392 98;" xml:space="preserve">
<style type="text/css">
	.st0{display:none;fill:#E9E9EA;}
	.st1{fill:#4CAF50;}
	.st2{fill:#FAFAFA;}
	.st3{fill:#F2F2F2;}
	.st4{fill:#F14336;}
	.st5{fill:#D32E2A;}
	.st6{fill:#03A9F4;}
	.st7{fill:#2196F3;}
</style>
<rect class="st0" width="98" height="98"/>
<rect x="98" class="st0" width="98" height="98"/>
<rect x="196" class="st0" width="98" height="98"/>
<rect x="294" class="st0" width="98" height="98"/>
<g>
	<path class="st1" d="M245,1L245,1L245,1c-26.5,0-48,21.5-48,48c0,10.5,3.4,20.2,9.1,28.1l-6,17.8l18.4-5.9c7.6,5,16.6,7.9,26.4,7.9
		c26.5,0,48-21.5,48-48S271.5,1,245,1z"/>
	<path class="st2" d="M272.9,68.8c-1.2,3.3-5.8,6-9.4,6.8c-2.5,0.5-5.8,1-16.8-3.6c-14.1-5.8-23.2-20.2-23.9-21.1
		c-0.7-0.9-5.7-7.6-5.7-14.5s3.5-10.2,4.9-11.7c1.2-1.2,3.1-1.7,4.9-1.7c0.6,0,1.1,0,1.6,0.1c1.4,0.1,2.1,0.1,3,2.4
		c1.2,2.8,4,9.7,4.3,10.4c0.3,0.7,0.7,1.7,0.2,2.6c-0.5,1-0.8,1.4-1.6,2.2c-0.7,0.8-1.4,1.4-2.1,2.3c-0.6,0.8-1.4,1.6-0.6,3
		c0.8,1.4,3.6,6,7.8,9.7c5.4,4.8,9.7,6.3,11.3,6.9c1.2,0.5,2.5,0.4,3.4-0.5c1.1-1.2,2.4-3.1,3.8-5c1-1.4,2.2-1.5,3.4-1
		c1.3,0.5,8.2,3.8,9.6,4.5c1.4,0.7,2.3,1,2.7,1.6C274.1,62.7,274.1,65.5,272.9,68.8z"/>
</g>
<g>
	<g>
		<polygon class="st3" points="189.9,24 183.8,85.6 110.2,85.6 105.3,25.2 147,48.6 		"/>
		<polygon class="st3" points="187.9,12.4 147,50.8 106.1,12.4 147,12.4 		"/>
	</g>
	<path class="st4" d="M110.2,30.2v55.4h-6.7c-2.5,0-4.5-2-4.5-4.5V22l7.3,0.2L110.2,30.2z"/>
	<path class="st5" d="M195,22v59c0,2.5-2,4.5-4.5,4.5h-6.7V30.2l3.7-8.7L195,22z"/>
	<path class="st4" d="M195,17v5l-11.2,8.2L147,57l-36.8-26.8L99,22v-5c0-2.5,2-4.5,4.5-4.5h2.6L147,42.2l40.9-29.8h2.6
		C193,12.4,195,14.5,195,17z"/>
	<polygon class="st5" points="110.2,30.2 99,28.4 99,22 	"/>
</g>
<path class="st6" d="M94.2,59.2C101.2,28,73.8-0.4,41.7,5C24.2-5.8,1,6.4,1,27.2c0,4.8,1.3,9.3,3.6,13.2
	c-6.5,31.3,21.1,59.3,53.2,53.5c3.7,2,8,3.1,12.6,3.1C90.2,97,102.9,76.5,94.2,59.2z M49.4,80.5c-9.4,0-18.5-2.3-23.9-10
	c-8.1-11.4,2.6-17.1,7.8-12.8c4.4,3.7,3,12.6,15.8,12.6c5.6,0,12.6-2.4,12.6-8c0-11.3-25-5.9-34.9-18.2c-3.6-4.5-4.3-12.4,0.1-18.2
	c7.8-10,30.7-10.7,40.6-3.1c9.1,7,6.6,16.4-0.7,16.4c-8.8,0-4.2-11.5-18.4-11.5c-10.3,0-14.4,7.3-7.1,10.9c9.7,4.8,35,3.3,35,22.4
	C76.2,74.4,63.2,80.5,49.4,80.5z"/>
<g>
	<circle class="st7" cx="343" cy="49" r="48"/>
	<path class="st2" d="M367,58.9c-5.2,0-10.1-1.1-14.7-3.4c-0.7-0.3-1.5-0.4-2.3-0.1c-0.8,0.3-1.4,0.8-1.7,1.5l-2.2,4.5
		c-6.5-3.7-11.9-9.1-15.6-15.6l4.5-2.2c0.7-0.3,1.3-1,1.5-1.7c0.3-0.8,0.2-1.6-0.1-2.3c-2.2-4.5-3.4-9.5-3.4-14.7c0-1.7-1.3-3-3-3
		H319c-1.7,0-3,1.3-3,3c0,28.1,22.9,51,51,51c1.7,0,3-1.3,3-3V61.9C370,60.3,368.7,58.9,367,58.9z"/>
</g>
</svg>
