<svg xmlns="http://www.w3.org/2000/svg" width="315.019" height="308.126" viewBox="0 0 315.019 308.126">
  <g id="Group_3131" data-name="Group 3131" transform="translate(-54.746 -37.454)">
    <g id="Group_3129" data-name="Group 3129">
      <path id="Path_4820" data-name="Path 4820" d="M347.31,142.555c-7.881-39.978-33.7-73.313-70.836-91.459-36.688-17.925-78.251-17.853-114.037.2-47.445,23.931-72.06,63.464-73.161,117.5-.25,12.223-2.4,22.947-6.563,32.785l-3.334,7.86c-3.308,7.789-6.728,15.842-10.021,23.8-2.243,5.422-2.237,10.977.019,15.641,2.275,4.7,6.678,8.189,12.4,9.819,1.709.486,3.429.939,5.148,1.391,2.935.773,5.97,1.571,8.853,2.53a3.4,3.4,0,0,1,1.295,1.093l.964,5.544c2.176,12.488,4.425,25.4,6.09,38.143,2.158,16.526,13.047,26.433,29.129,26.5,12.566.053,25.585.04,39.795-.039a44.012,44.012,0,0,0,28.215-9.822c10.568-8.576,16.238-19.745,16.852-33.2.292-6.4-2.963-10.613-8.494-10.987a8.892,8.892,0,0,0-6.689,2.119,11.04,11.04,0,0,0-3.357,7.921l-.011.367a25.67,25.67,0,0,1-25.177,24.8c-13.31.257-26.864.165-39.976.076l-2.587-.017c-4.822-.032-8.3-3.155-9.074-8.148q-2.128-13.7-4.275-27.4l-3.009-19.268c-1.211-7.773-5.86-13.075-13.445-15.331-4.638-1.379-9.619-2.822-14.6-4.038a5.16,5.16,0,0,1-1-.328,5.541,5.541,0,0,1,.382-1.106c1.841-4.205,3.638-8.5,5.377-12.654,2.016-4.82,4.1-9.8,6.255-14.643a112.04,112.04,0,0,0,9.549-45.172,102.722,102.722,0,0,1,3.693-27.517c12.8-43.743,40.956-70.687,83.7-80.084,43.349-9.53,80.322,3.129,109.9,37.625,20.769,24.224,29.142,53.263,24.887,86.311a107.237,107.237,0,0,1-17.791,46.9,72.035,72.035,0,0,0-12.68,42.349c.1,6.315.076,12.754.051,18.979q-.018,4.282-.023,8.562v11.468q0,3.471-.008,6.94c-.01,5.72-.022,11.634.066,17.461a9.153,9.153,0,0,0,9.225,9.3h.011c5.051,0,8.927-3.895,9.219-9.253.025-.476.022-.954.017-1.433l0-.5q0-8.978.038-17.957c.041-13.85.084-28.173-.083-42.266a59.32,59.32,0,0,1,10.161-34.214C347.8,210.078,354.177,177.392,347.31,142.555Z" fill="#fff" stroke="#707070" stroke-width="0.5"/>
      <path id="Path_4821" data-name="Path 4821" d="M226.134,141.792c-.156,9.618,5.917,11.041,8.536,11.206.248.016.492.023.732.023,5.33,0,8.8-3.825,9.343-10.373,1-12.091-6.473-23.731-18.168-28.3a28.516,28.516,0,0,0-32.449,8.689c-4.06,5.1-3.839,10.678.562,14.216,4.2,3.374,9.571,2.513,13.688-2.192,2.31-2.638,6.173-5.362,11.456-3.349C225.143,133.731,226.19,138.308,226.134,141.792Z" fill="#fff" stroke="#707070" stroke-width="0.5"/>
    </g>
    <circle id="Ellipse_97" data-name="Ellipse 97" cx="9.727" cy="9.727" r="9.727" transform="translate(72.879 62.046)" fill="#beb4ef"/>
    <circle id="Ellipse_97-2" data-name="Ellipse 97" cx="7.412" cy="7.412" r="7.412" transform="translate(328.234 279.748)" fill="#beb4ef"/>
    <circle id="Ellipse_97-3" data-name="Ellipse 97" cx="15.09" cy="15.09" r="15.09" transform="translate(339.585 302.297)" fill="#bdb3ee"/>
    <g id="Group_3130" data-name="Group 3130">
      <path id="Path_4822" data-name="Path 4822" d="M130.638,172.886s-18.1-35.048,10.4-48.143,36.448-48.529,65.055-37.36,24.685,8.088,43.943,20.413,26.575,16.561,28.5,38.13,15.406,12.71,16.946,35.048c1.882,27.288-30.155,58.676-68.285,48.663-7.355-1.932-12.878-16.337-21.105-20.2C171.669,193.25,129.4,177.549,130.638,172.886Z" fill="#beb4ef"/>
      <path id="Path_4823" data-name="Path 4823" d="M334.375,142.555c-7.881-39.978-33.7-73.313-70.836-91.459-36.688-17.925-78.251-17.853-114.037.2-47.444,23.931-72.059,63.464-73.161,117.5-.249,12.223-2.4,22.947-6.562,32.785l-3.335,7.86c-3.307,7.789-6.728,15.842-10.02,23.8-2.244,5.422-2.237,10.977.019,15.641,2.274,4.7,6.677,8.189,12.4,9.819,1.709.486,3.429.939,5.149,1.391,2.934.773,5.97,1.571,8.853,2.53a3.386,3.386,0,0,1,1.294,1.093l.965,5.544c2.175,12.488,4.425,25.4,6.089,38.143,2.158,16.526,13.048,26.433,29.129,26.5,12.567.053,25.585.04,39.8-.039a44.016,44.016,0,0,0,28.216-9.822c10.567-8.576,16.237-19.745,16.851-33.2.292-6.4-2.962-10.613-8.494-10.987A8.892,8.892,0,0,0,190,281.979a11.043,11.043,0,0,0-3.356,7.921l-.011.367a25.671,25.671,0,0,1-25.177,24.8c-13.31.257-26.865.165-39.976.076l-2.588-.017c-4.821-.032-8.3-3.155-9.074-8.148q-2.127-13.7-4.274-27.4l-3.01-19.268c-1.211-7.773-5.859-13.075-13.444-15.331-4.639-1.379-9.619-2.822-14.6-4.038a5.212,5.212,0,0,1-1-.328,5.68,5.68,0,0,1,.382-1.106c1.841-4.205,3.639-8.5,5.377-12.654,2.017-4.82,4.1-9.8,6.255-14.643a112.024,112.024,0,0,0,9.549-45.172,102.72,102.72,0,0,1,3.694-27.517c12.8-43.743,40.955-70.687,83.7-80.084,43.348-9.53,80.322,3.129,109.9,37.625,20.768,24.224,29.142,53.263,24.887,86.311a107.249,107.249,0,0,1-17.791,46.9,72.028,72.028,0,0,0-12.68,42.349c.1,6.315.076,12.754.05,18.979q-.017,4.282-.023,8.562v11.468q0,3.471-.007,6.94c-.011,5.72-.022,11.634.065,17.461a9.153,9.153,0,0,0,9.225,9.3h.012c5.05,0,8.927-3.895,9.219-9.253.025-.476.022-.954.016-1.433l0-.5q0-8.978.038-17.957c.041-13.85.084-28.173-.082-42.266a59.319,59.319,0,0,1,10.161-34.214C334.868,210.078,341.242,177.392,334.375,142.555Z" fill="#373f54"/>
      <path id="Path_4824" data-name="Path 4824" d="M297.024,188.087c5.988-15.177,1.772-31.49-11.006-42.573a3.274,3.274,0,0,1-.879-1.928c1.188-24.47-16.953-44.6-41.3-45.835a3.694,3.694,0,0,1-2.136-1.2C229.949,79.9,214.26,72.716,195.063,75.208c-18.333,2.381-31.782,13.231-38.892,31.377-.162.413-.27.573-.265.59a2.867,2.867,0,0,1-.692.1,42.908,42.908,0,0,0-1.7,85.5c1.126.113,1.169.117,1.629,1.36,4.349,11.751,12.99,18.8,24.99,20.4a90.339,90.339,0,0,0,12.6.495c1.744-.013,3.486-.03,5.224,0,8.31.148,13.729,5.564,13.8,13.8.023,2.481.013,4.964,0,7.445-.013,3.316-.026,6.747.041,10.135.113,5.708,3.775,9.616,9.114,9.722l.228,0a9,9,0,0,0,6.4-2.44,9.7,9.7,0,0,0,2.807-7.008l.022-1.226c.124-6.471.25-13.162-.192-19.766a31.08,31.08,0,0,0-28.455-29.011c-2.9-.256-5.81-.258-8.625-.26-2.714,0-5.278-.005-7.845-.213a19.311,19.311,0,0,1-7.7-2.027,11.771,11.771,0,0,1-5.293-13.066c1.779-7.081,7.634-9.139,12.233-9.619,5.745-.6,9.293-4.408,9.038-9.705-.252-5.234-4.269-8.75-10-8.75h-.006c-11.912,0-23.427,8.005-28,19.457-.218.544-.428,1.091-.632,1.632-12.525-1.72-21.485-11.986-21.126-24.615.335-11.762,9.131-21.8,19.735-23.136.046.52.1,1.042.15,1.563.584,5.569,4.739,9.362,9.868,9.011,5.165-.35,8.618-4.425,8.591-10.139,0-.724-.02-1.452-.037-2.18a34.3,34.3,0,0,1,.194-5.964c2.065-13.277,11.7-22.9,25.132-25.12,11.863-1.96,24.342,4.7,30.355,16.193,3.174,6.066,5.349,7.246,12.243,6.636a24.439,24.439,0,0,1,26.363,22.614,26.8,26.8,0,0,1-3.653,14.963,9.151,9.151,0,0,0,3.444,12.624c3.99,2.273,8.606,1.343,11.736-2.284a18.107,18.107,0,0,1,1.246,18.3,18.561,18.561,0,0,1-19.075,10.158c-8.072-1.205-14.646-7.216-15.624-14.218a3.246,3.246,0,0,1,.9-1.608c8.33-7.079,11.878-16,10.546-26.524-.692-5.477-5.065-9.221-10.139-8.731-4.978.489-8.4,4.586-8.318,9.963.007.476.032.952.058,1.429s.051.93.051,1.393a9.523,9.523,0,0,1-7.832,9.574c-3.98.779-7.192-.508-10.438-4.169a9.047,9.047,0,0,0-13.027-1.075c-3.9,3.337-4.329,8.8-1.026,13a33.716,33.716,0,0,0,4.9,4.963c4.191,3.495,9.351,5.477,16.127,6.174.206.773.4,1.505.623,2.233,4.486,14.982,18.342,25.824,33.692,26.365C276.845,212.116,291.178,202.9,297.024,188.087Z" fill="#373f54"/>
      <path id="Path_4825" data-name="Path 4825" d="M213.2,141.792c-.156,9.618,5.917,11.041,8.536,11.206.247.016.491.023.731.023,5.331,0,8.8-3.825,9.343-10.373,1-12.091-6.472-23.731-18.167-28.3a28.515,28.515,0,0,0-32.449,8.689c-4.06,5.1-3.84,10.678.562,14.216,4.2,3.374,9.571,2.513,13.688-2.192,2.31-2.638,6.172-5.362,11.455-3.349C212.209,133.731,213.256,138.308,213.2,141.792Z" fill="#373f54"/>
    </g>
  </g>
</svg>
