<svg xmlns="http://www.w3.org/2000/svg" width="352.781" height="237.721" viewBox="0 0 352.781 237.721">
  <g id="OTT" transform="translate(-4.519 -48)">
    <circle id="Ellipse_598" data-name="Ellipse 598" cx="116.622" cy="116.622" r="116.622" transform="translate(4.519 48)" fill="#d0f2eb"/>
    <circle id="Ellipse_97" data-name="Ellipse 97" cx="11.406" cy="11.406" r="11.406" transform="translate(198.64 257.258)" fill="#85c9b8"/>
    <circle id="Ellipse_97-2" data-name="Ellipse 97" cx="5.65" cy="5.65" r="5.65" transform="translate(178.493 274.421)" fill="#85c9b8"/>
    <circle id="Ellipse_97-3" data-name="Ellipse 97" cx="11.939" cy="11.939" r="11.939" transform="translate(13.58 53.223)" fill="#85c9b8"/>
    <g id="Group_3109" data-name="Group 3109" transform="translate(15.172 117.288)">
      <path id="Path_4773" data-name="Path 4773" d="M25.54,225.847a64.363,64.363,0,0,1-8.422-32.62,63.584,63.584,0,0,1,8.422-32.62,58.819,58.819,0,0,1,23.346-22.6c10.021-5.436,21.32-8.1,34.006-8.1a71.358,71.358,0,0,1,26.33,4.8,62.594,62.594,0,0,1,20.787,13.005,59.963,59.963,0,0,1,13.538,20.041,68.09,68.09,0,0,1,0,50.742,59.357,59.357,0,0,1-13.538,20.148,60.917,60.917,0,0,1-20.787,13.005,71.325,71.325,0,0,1-26.33,4.8c-12.686,0-23.985-2.665-34.006-8.1A59.235,59.235,0,0,1,25.54,225.847Zm34.646-55.753c-5.97,6.077-8.955,13.858-8.955,23.133,0,9.381,2.985,17.057,8.955,23.239,5.969,6.077,13.645,9.168,22.813,9.168s16.736-3.091,22.706-9.168,8.954-13.858,8.954-23.239-2.985-17.162-8.954-23.239S92.166,160.926,83,160.926C73.724,160.926,66.155,164.018,60.186,170.094Z" transform="translate(-17.111 -129.903)" fill="#fff" stroke="#707070" stroke-width="0.5"/>
      <path id="Path_4774" data-name="Path 4774" d="M175.513,163.515V133.56H274.44v29.955H241.606v90.611H208.453V163.515Z" transform="translate(-41.508 -130.466)" fill="#fff" stroke="#707070" stroke-width="0.5"/>
      <path id="Path_4775" data-name="Path 4775" d="M304.294,163.515V133.56h98.927v29.955H370.387v90.611H337.234V163.515Z" transform="translate(-61.342 -130.466)" fill="#fff" stroke="#707070" stroke-width="0.5"/>
    </g>
    <g id="Group_3110" data-name="Group 3110" transform="translate(11.974 106.628)">
      <path id="Path_4776" data-name="Path 4776" d="M21.76,213.246a64.346,64.346,0,0,1-8.422-32.62,63.568,63.568,0,0,1,8.422-32.62,58.82,58.82,0,0,1,23.345-22.6c10.021-5.437,21.32-8.1,34.006-8.1a71.363,71.363,0,0,1,26.331,4.8,62.582,62.582,0,0,1,20.787,13.005,59.951,59.951,0,0,1,13.538,20.041,68.082,68.082,0,0,1,0,50.742,59.336,59.336,0,0,1-13.538,20.148,60.922,60.922,0,0,1-20.787,13.005,71.347,71.347,0,0,1-26.331,4.8c-12.685,0-23.985-2.666-34.006-8.1A59.233,59.233,0,0,1,21.76,213.246Zm34.645-55.753c-5.969,6.077-8.954,13.858-8.954,23.133,0,9.381,2.985,17.057,8.954,23.239,5.97,6.077,13.646,9.168,22.813,9.168s16.737-3.091,22.706-9.168,8.955-13.858,8.955-23.239-2.985-17.162-8.955-23.239-13.538-9.06-22.706-9.06C69.944,148.326,62.375,151.417,56.405,157.493Z" transform="translate(-13.331 -117.302)" fill="#373f54"/>
      <path id="Path_4777" data-name="Path 4777" d="M171.733,150.914V120.959h98.926v29.955H237.826v90.611H204.673V150.914Z" transform="translate(-37.728 -117.865)" fill="#373f54"/>
      <path id="Path_4778" data-name="Path 4778" d="M300.514,150.914V120.959h98.927v29.955H366.607v90.611H333.454V150.914Z" transform="translate(-57.562 -117.865)" fill="#373f54"/>
    </g>
  </g>
</svg>
