<svg xmlns="http://www.w3.org/2000/svg" width="374.363" height="297.704" viewBox="0 0 374.363 297.704">
  <g id="Group_3116" data-name="Group 3116" transform="translate(-20.214 -44.796)">
    <path id="Path_4800" data-name="Path 4800" d="M33.243,87.923c40.3-3.269,40.123-3.184,56.586,30.165,29.212,59.174,58.655,118.233,89.015,179.38,11.055-21.9,23.173-41.475,30.991-62.635,8.057-21.807,48.107-30.616,58.989-30.715-10.175,20.54-23.625,44.95-33.186,64.132-10.4,20.86-21.134,41.556-31.164,62.59-3.243,6.8-7.62,8.241-14.786,9.331-23.9,3.635-36.126-5.6-46.494-28.014C110.777,242.08,75.332,173.4,41.073,104.178,38.641,99.264,36.311,94.3,33.243,87.923Z" fill="#fff" stroke="#707070" stroke-width="0.5"/>
    <path id="Path_4801" data-name="Path 4801" d="M220.235,220.529l19.9-11.965,110.22,6.671L359.88,113.04H168.471Z" fill="#b8d2ae"/>
    <g id="Group_3114" data-name="Group 3114">
      <path id="Path_4802" data-name="Path 4802" d="M275.706,213.751c15.021,0,25.964-4.914,38.345-5.211,24.059-.577,41.988-18.585,42.039-41.864.05-23.046-18.066-41.28-42.194-41.646q-38.86-.589-77.734.044c-7.931.142-12.754-1.819-15.79-9.576-3.542-9.053-8.353-17.609-13.6-28.415,25.775,0,49.338-.055,72.9.021,13.812.045,27.728-.731,41.414.658,36.959,3.752,65.35,30.043,71.295,64.758,6.3,36.8-11.6,70.593-46.1,87.027-2.321,1.1-4.664,2.161-8.1,3.751,18.342,31.573,36.447,62.74,55.966,96.338-14.748,0-27.4.272-40.016-.25-2.275-.094-5.134-3.031-6.51-5.369C323.557,293.142,301.137,257.315,275.706,213.751Z" fill="#fff" stroke="#707070" stroke-width="0.5"/>
      <path id="Path_4803" data-name="Path 4803" d="M119.73,87.105c13.847,0,24.98-.224,36.092.168,2.577.091,6.4,1.611,7.418,3.609,15.728,31.023,31.086,62.234,47.721,95.8-13.8,0-25.273.342-36.695-.251-2.705-.141-6.411-2.828-7.687-5.343C151.193,150.768,136.176,120.256,119.73,87.105Z" fill="#fff" stroke="#707070" stroke-width="0.5"/>
    </g>
    <circle id="Ellipse_97" data-name="Ellipse 97" cx="9.024" cy="9.024" r="9.024" transform="translate(60.114 278.308)" fill="#77b65d"/>
    <circle id="Ellipse_97-2" data-name="Ellipse 97" cx="18.37" cy="18.37" r="18.37" transform="translate(76.33 305.759)" fill="#77b65d"/>
    <circle id="Ellipse_97-3" data-name="Ellipse 97" cx="18.37" cy="18.37" r="18.37" transform="translate(350.151 44.796)" fill="#77b65d"/>
    <g id="Group_3115" data-name="Group 3115">
      <path id="Path_4804" data-name="Path 4804" d="M261.226,208.592c15.021,0,27.415.245,39.8-.052,24.058-.577,41.988-18.585,42.039-41.864.05-23.046-18.067-41.28-42.2-41.646q-38.861-.589-77.734.044c-7.93.142-12.754-1.819-15.789-9.576-3.542-9.053-8.353-17.609-13.6-28.415,25.775,0,49.337-.055,72.9.021,13.812.045,27.728-.731,41.415.658,36.958,3.752,65.349,30.043,71.294,64.758,6.3,36.8-11.6,70.593-46.1,87.027-2.32,1.1-4.664,2.161-8.1,3.751l55.965,96.338c-14.747,0-27.4.272-40.015-.25-2.275-.094-5.134-3.031-6.511-5.369C310.528,293.142,286.657,252.156,261.226,208.592Z" fill="#373f54"/>
      <path id="Path_4805" data-name="Path 4805" d="M20.214,87.923c40.3-3.269,40.123-3.184,56.586,30.165,29.212,59.174,58.656,118.233,89.016,179.38,11.055-21.9,23.173-41.475,30.991-62.635,8.057-21.807,27.369-30.892,55.015-25.53-10.175,20.54-19.651,39.765-29.212,58.947-10.4,20.86-21.134,41.556-31.164,62.59-3.243,6.8-7.62,8.241-14.787,9.331-23.9,3.635-36.125-5.6-46.494-28.014C97.748,242.08,62.3,173.4,28.044,104.178,25.612,99.264,23.282,94.3,20.214,87.923Z" fill="#373f54"/>
      <path id="Path_4806" data-name="Path 4806" d="M106.7,87.105c13.848,0,24.981-.224,36.092.168,2.577.091,6.406,1.611,7.419,3.609,15.727,31.023,31.086,62.234,47.721,95.8-13.8,0-25.274.342-36.7-.251-2.7-.141-6.41-2.828-7.686-5.343C138.164,150.768,123.148,120.256,106.7,87.105Z" fill="#373f54"/>
    </g>
  </g>
</svg>
