<svg xmlns="http://www.w3.org/2000/svg" width="397.25" height="249.245" viewBox="0 0 397.25 249.245">
  <g id="Group_3128" data-name="Group 3128" transform="translate(-22.082 -68.722)">
    <g id="Group_3125" data-name="Group 3125" opacity="0.5">
      <path id="Path_4817" data-name="Path 4817" d="M319,293.972H90.766a62.883,62.883,0,0,1-44.291-18.165,61.427,61.427,0,0,1,0-88.158A62.971,62.971,0,0,1,80.4,170.33c0-.281-.008-.561-.008-.846a83.088,83.088,0,0,1,82.993-82.993,82.141,82.141,0,0,1,47.163,14.775,83.148,83.148,0,0,1,23.921,25.619,62.224,62.224,0,0,1,94.155,43.33,62.91,62.91,0,0,1,34.663,17.434,61.426,61.426,0,0,1,0,88.158A62.881,62.881,0,0,1,319,293.972Z" fill="#ffd45e"/>
    </g>
    <g id="Group_3126" data-name="Group 3126">
      <path id="Path_4818" data-name="Path 4818" d="M350.832,293.972h-247.5a68.192,68.192,0,0,1-48.031-19.7,66.614,66.614,0,0,1,0-95.6A68.287,68.287,0,0,1,92.09,159.89c0-.3-.008-.609-.008-.918a90.1,90.1,0,0,1,90-90A89.07,89.07,0,0,1,233.227,85a90.144,90.144,0,0,1,25.941,27.782,67.478,67.478,0,0,1,102.105,46.988,68.219,68.219,0,0,1,37.59,18.906,66.614,66.614,0,0,1,0,95.6,68.192,68.192,0,0,1-48.031,19.7Zm-247.5-112.5c-25.227,0-45.75,20.188-45.75,45s20.523,45,45.75,45h247.5c25.227,0,45.75-20.188,45.75-45s-20.523-45-45.75-45h-11.25v-11.25a44.952,44.952,0,0,0-76.5-32.074l-12.109,11.89-6.239-15.785a67.408,67.408,0,0,0-130.156,24.719,61.007,61.007,0,0,0,.859,8.535l2.016,13.965Zm0,0" fill="#fff" stroke="#707070" stroke-width="0.5"/>
    </g>
    <circle id="Ellipse_97" data-name="Ellipse 97" cx="7.275" cy="7.275" r="7.275" transform="translate(27.83 100.568)" fill="#ffd45e"/>
    <circle id="Ellipse_97-2" data-name="Ellipse 97" cx="7.275" cy="7.275" r="7.275" transform="translate(326.473 303.417)" fill="#ffd45e"/>
    <circle id="Ellipse_97-3" data-name="Ellipse 97" cx="13.26" cy="13.26" r="13.26" transform="translate(42.538 121.731)" fill="#ffd45e"/>
    <g id="Group_3127" data-name="Group 3127">
      <path id="Path_4819" data-name="Path 4819" d="M337.832,293.972H90.332a68.192,68.192,0,0,1-48.031-19.7,66.614,66.614,0,0,1,0-95.6A68.287,68.287,0,0,1,79.09,159.89c0-.3-.008-.609-.008-.918a90.1,90.1,0,0,1,90-90A89.07,89.07,0,0,1,220.227,85a90.144,90.144,0,0,1,25.941,27.782,67.478,67.478,0,0,1,102.105,46.988,68.219,68.219,0,0,1,37.59,18.906,66.614,66.614,0,0,1,0,95.6,68.192,68.192,0,0,1-48.031,19.7Zm-247.5-112.5c-25.227,0-45.75,20.188-45.75,45s20.523,45,45.75,45h247.5c25.227,0,45.75-20.188,45.75-45s-20.523-45-45.75-45h-11.25v-11.25a44.952,44.952,0,0,0-76.5-32.074l-12.109,11.89-6.239-15.785a67.408,67.408,0,0,0-130.156,24.719,61.007,61.007,0,0,0,.859,8.535l2.016,13.965Zm0,0" fill="#373f54"/>
    </g>
    <text id="IoT" transform="translate(148.496 236.154)" fill="#373f54" font-size="85.926" font-family="Mont-HeavyDEMO, Mont DEMO" font-weight="800"><tspan x="0" y="0">IoT</tspan></text>
  </g>
</svg>
