<svg xmlns="http://www.w3.org/2000/svg" width="426.357" height="376.625" viewBox="0 0 426.357 376.625">
  <g id="AR" transform="translate(0.003 -29.625)">
    <path id="Path_4789" data-name="Path 4789" d="M276.1,403.7H117.9a21.317,21.317,0,0,1-21.3-21.3V72.4a11.822,11.822,0,0,1,11.8-11.8H276.2A11.822,11.822,0,0,1,288,72.4V391.9A11.973,11.973,0,0,1,276.1,403.7Z" fill="#f4a196" opacity="0.5"/>
    <path id="Path_4790" data-name="Path 4790" d="M28.9,223.2c3.2,1.7,6.2,3.2,9.2,4.7q58.95,29.25,118,58.4c18.7,9.2,37.3,18.5,56,27.6a8.162,8.162,0,0,0,6.5,0c23.9-11.7,47.8-23.6,71.7-35.4q47.1-23.4,94.1-46.7c5.6-2.8,11.2-5.5,17.4-8.6a18.2,18.2,0,0,0-2.8-1.6c-14-6.9-27.9-13.8-41.9-20.7-3.4-1.7-6.9-3.4-10.3-5.1-5.3-2.6-6.9-8.8-2.9-13.2a5.482,5.482,0,0,1,6.7-1.4c4.5,1.9,8.6,4.6,12.9,6.8,4.4,2.2,8.9,3.9,13.3,6.1q22.2,10.95,44.4,22c3.1,1.5,5,3.7,4.9,7.3-.1,3.5-2.1,5.5-5,6.9q-47.4,23.4-94.7,46.9c-35.1,17.4-70.3,34.7-105.4,52.2-4.4,2.2-8.1,1.9-12.4-.3q-48.9-24.45-97.8-48.5C77.1,263.7,43.2,247,9.3,230.2c-3.1-1.5-5.1-3.6-5-7.2s2.1-5.7,5.2-7.2c22.5-11.1,45-22.3,67.5-33.3a15.825,15.825,0,0,1,7.1-1.4c2.7.2,5.4,3.5,5.2,5.9-.3,3.5-1.4,6.6-4.9,8.4-18,8.9-35.9,17.8-53.9,26.7A9.255,9.255,0,0,0,28.9,223.2Z" fill="#fff" stroke="#707070" stroke-width="0.5"/>
    <path id="Path_4791" data-name="Path 4791" d="M335.1,212.5c0-19.2-.1-38.5-.1-57.7,0-26.6.2-53.2.1-79.7-.1-22.2-18.9-41.9-41.2-43-11.5-.6-23-.2-34.5-.2-25.4-.1-50.9-.1-76.3-.1h-.2c-9.4-.1-24.6-.1-33.2,0a50.282,50.282,0,0,0-7.8.5c-22.6,4-37.8,22.1-37.8,45.2v88.9c0,10.5.2,20.9.2,31.4,0,11.4-.2,22.8-.2,34.2a11.149,11.149,0,0,0,6,10c8.6,5.1,18.9-1,18.9-11.3V76.8c0-9.4,6.3-18,15.5-19.4,6.6-1,13.5-.2,20.3-.2a6.881,6.881,0,0,1,.2,1.3c.6,12.2,7.5,18.8,19.6,18.9,8.8,0,35.4.1,44.2,0,9.6,0,19.1,0,28.7-.2,4.6-.1,8.3-2.6,11.3-6,3.6-4,4.4-8.9,4.5-14.3,6,0,11.7-.1,17.4,0a19.71,19.71,0,0,1,19.2,19.4c.2,34,.2,68,.2,102,0,17.7-.1,35.4-.2,53.1a12.45,12.45,0,0,0,24.9,0C335.1,225,335.1,218.8,335.1,212.5Z" fill="#fff" stroke="#707070" stroke-width="0.5"/>
    <path id="Path_4792" data-name="Path 4792" d="M219.6,405.8h-70c-12.9,0-24.2-4.3-33.1-13.8-7.7-8.1-12.2-17.8-12.3-29-.2-18.8-.1-37.7-.1-56.5a12,12,0,0,1,12.5-12.4c7.1,0,12.4,5.3,12.4,12.6.1,17.6.3,35.2-.1,52.8-.3,12.9,10.1,21.7,21.6,21.6q68.7-.45,137.5,0c13.2.1,22.5-9.6,22.2-22.1-.4-17.2-.1-34.3-.1-51.5,0-8.1,5-13.4,12.5-13.4,7.3,0,12.4,5.4,12.4,13.3,0,17.9.1,35.8,0,53.7A44.621,44.621,0,0,1,290.2,406h-.3C266.5,405.8,243,405.8,219.6,405.8Z" fill="#fff" stroke="#707070" stroke-width="0.5"/>
    <path id="Path_4793" data-name="Path 4793" d="M219.5,346.6c4.2-.2,8.2-.1,11.1,3.7,4.5,6.1,1.6,14.4-5.8,15.8a33.615,33.615,0,0,1-10.5,0c-5.2-.8-8.2-5.3-7.8-10.8.4-4.9,4.2-8.5,9.4-8.8C217,346.6,218.3,346.6,219.5,346.6Z" fill="#fff" stroke="#707070" stroke-width="0.5"/>
    <circle id="Ellipse_97_3_" cx="8.4" cy="8.4" r="8.4" transform="translate(12.2 31.9)" fill="#f4a196"/>
    <circle id="Ellipse_97_4_" cx="8.4" cy="8.4" r="8.4" transform="translate(344.2 283.4)" fill="#f4a196"/>
    <circle id="Ellipse_97_2_" cx="17.1" cy="17.1" r="17.1" transform="translate(34 54.1)" fill="#f4a196"/>
    <g id="Group_3113" data-name="Group 3113">
      <path id="Path_4794" data-name="Path 4794" d="M211.1,403.7h-70c-12.9,0-24.2-4.3-33.1-13.8-7.7-8.1-12.2-17.8-12.3-29-.2-18.8-.1-37.7-.1-56.5A12,12,0,0,1,108.1,292c7.1,0,12.4,5.3,12.4,12.6.1,17.6.3,35.2-.1,52.8-.3,12.9,10.1,21.7,21.6,21.6q68.7-.45,137.5,0c13.2.1,22.5-9.6,22.2-22.1-.4-17.2-.1-34.3-.1-51.5,0-8.1,5-13.4,12.5-13.4,7.3,0,12.4,5.4,12.4,13.3,0,17.9.1,35.8,0,53.7a44.621,44.621,0,0,1-44.8,44.9h-.3C258,403.7,234.6,403.7,211.1,403.7Z" fill="#373f54"/>
      <path id="Path_4795" data-name="Path 4795" d="M24.6,216.8c3.2,1.7,6.2,3.2,9.2,4.7q58.95,29.25,118,58.4,28.35,14.1,56.8,28a5.978,5.978,0,0,0,4.9,0c24.2-11.8,48.4-23.8,72.6-35.8q47.1-23.4,94.1-46.7c5.6-2.8,11.2-5.5,17.4-8.6a18.2,18.2,0,0,0-2.8-1.6c-14-6.9-27.9-13.8-41.9-20.7-4.1-2-8.2-4.1-12.3-6.1-2.6-1.3-4.3-5.6-3.2-8.4,2-4.8,5.1-6.9,9-5.2,4.5,1.9,8.6,4.6,12.9,6.8,4.4,2.2,8.9,3.9,13.3,6.1q22.2,10.95,44.4,22c3.1,1.5,5,3.7,4.9,7.3-.1,3.5-2.1,5.5-5,6.9q-47.4,23.4-94.7,46.9c-35.1,17.4-70.3,34.7-105.4,52.2-4.4,2.2-8.1,1.9-12.4-.3q-48.9-24.45-97.8-48.5Q56.05,249,5,223.9c-3.1-1.5-5.1-3.6-5-7.2s2.1-5.7,5.2-7.2c22.5-11.1,45-22.3,67.5-33.3a15.825,15.825,0,0,1,7.1-1.4c2.7.2,5.4,3.5,5.2,5.9-.3,3.5-1.4,6.6-4.9,8.4-18,8.9-35.9,17.8-53.9,26.7C25.8,216,25.4,216.3,24.6,216.8Z" fill="#373f54"/>
      <path id="Path_4796" data-name="Path 4796" d="M326.6,210.4c0-19.2-.1-38.5-.1-57.7,0-26.6.2-53.2.1-79.7-.1-22.2-18.9-41.9-41.2-43-11.5-.6-23-.2-34.5-.2-25.4-.1-50.9-.1-76.3-.1h-.2c-9.4-.1-24.6-.1-33.2,0a50.282,50.282,0,0,0-7.8.5c-22.6,4-37.8,22.1-37.8,45.2v88.9c0,10.5.2,20.9.2,31.4,0,11.4-.2,22.8-.2,34.2a11.149,11.149,0,0,0,6,10c8.6,5.1,18.9-1,18.9-11.3V74.7c0-9.4,6.3-18,15.5-19.4,6.6-1,13.5-.2,20.3-.2a6.881,6.881,0,0,1,.2,1.3c.6,12.2,7.5,18.8,19.6,18.9,8.8,0,35.4.1,44.2,0,9.6,0,19.1,0,28.7-.2,4.6-.1,8.3-2.6,11.3-6,3.6-4,4.4-8.9,4.5-14.3,6,0,11.7-.1,17.4,0a19.71,19.71,0,0,1,19.2,19.4c.2,34,.2,68,.2,102,0,17.7-.1,35.4-.2,53.1a12.45,12.45,0,0,0,24.9,0C326.6,222.9,326.6,216.7,326.6,210.4Z" fill="#373f54"/>
      <path id="Path_4797" data-name="Path 4797" d="M256.4,216.7c4.8,7.1,9.6,14.1,14.3,21.2,1.2,1.7,2.4,3.4,3.5,5.2a7.538,7.538,0,0,1-2.1,10.3,7.4,7.4,0,0,1-10.3-2.1c-3.6-5-7-10.2-10.4-15.3-3.6-5.3-7.1-10.6-10.8-15.8-.8-1.1-2.3-1.7-3.5-2.5-.3.2-.6.5-.9.7v28.5a7.4,7.4,0,1,1-14.8.3c-.1-23.8-.1-47.5,0-71.3,0-4.1,2.6-7.4,6.6-7.5,8.2-.2,16.6-.4,24.7.7,9.6,1.3,17.4,10.1,19.2,19.7a24.972,24.972,0,0,1-11,25.3C259.4,214.9,258,215.8,256.4,216.7Zm-20.2-23.5c0,2.5.1,5,0,7.5-.1,1.8.4,2.7,2.4,2.6,2.9-.1,5.9.1,8.8-.1,5.7-.3,9.7-4.4,9.8-9.8a9.941,9.941,0,0,0-9.7-10.2,69.084,69.084,0,0,0-9.1,0,3.155,3.155,0,0,0-2.1,2.1A69.424,69.424,0,0,0,236.2,193.2Z" fill="#373f54"/>
      <path id="Path_4798" data-name="Path 4798" d="M211.3,246.6a7.749,7.749,0,0,1-6.1,7.9,7.556,7.556,0,0,1-8.1-4.6c-1.6-4.1-3.1-8.2-4.4-12.4-.6-1.9-1.5-2.4-3.4-2.4q-10.65.15-21.3,0a2.863,2.863,0,0,0-3.2,2.2c-1.2,3.9-2.6,7.7-4,11.5-1.7,4.6-5.8,6.7-9.8,5.2-4.2-1.6-5.8-5.6-4.2-10.3,8.1-23,16.3-46.1,24.4-69.1,1.5-4.2,4.2-6.5,7.5-6.5,3.4,0,6,2.2,7.5,6.5,8.1,22.9,16.3,45.9,24.4,68.8C210.9,244.7,211.1,245.9,211.3,246.6Zm-40.4-26.4h15.6c-2.6-7.2-5-14-7.5-20.9h-.7C175.9,206.1,173.5,212.9,170.9,220.2Z" fill="#373f54"/>
      <path id="Path_4799" data-name="Path 4799" d="M211,344.5c4.2-.2,8.2-.1,11.1,3.7,4.5,6.1,1.6,14.4-5.8,15.8a33.615,33.615,0,0,1-10.5,0c-5.2-.8-8.2-5.3-7.8-10.8.4-4.9,4.2-8.5,9.4-8.8C208.6,344.5,209.8,344.5,211,344.5Z" fill="#373f54"/>
    </g>
  </g>
</svg>
