<svg xmlns="http://www.w3.org/2000/svg" width="935.351" height="230.187" viewBox="0 0 935.351 230.187">
  <g id="dev-platforms" transform="translate(-417.456 -2241.413)">
    <g id="Group_3964" data-name="Group 3964" opacity="0.4">
      <path id="Path_4958" data-name="Path 4958" d="M538.7,2463l-2.6,8.4h-1.2l-2.1-5.4-2.1,5.4h-1.2l-2.7-8.4h1.5l1.9,6.2,2.3-6.1h.5l2.4,6.1,1.9-6.2Z"/>
      <path id="Path_4959" data-name="Path 4959" d="M545.7,2470.1v1.3h-5V2463h4.9v1.3h-3.5v2.2h3.2v1.3h-3.2v2.3h3.6Z"/>
      <path id="Path_4960" data-name="Path 4960" d="M554.1,2469a2.482,2.482,0,0,1-2.6,2.4h-3.4V2463h3.4a2.211,2.211,0,0,1,2.4,2.2,2.417,2.417,0,0,1-1,1.9A1.875,1.875,0,0,1,554.1,2469Zm-2.7-4.7h-1.9v2.2h1.9a1.049,1.049,0,0,0,1.1-1.1C552.6,2464.7,552.1,2464.3,551.4,2464.3Zm1.3,4.6a1.184,1.184,0,0,0-1.3-1.2h-2v2.4h2A1.183,1.183,0,0,0,552.7,2468.9Z"/>
    </g>
    <g id="Group_3965" data-name="Group 3965" transform="translate(4.156)" opacity="0.4">
      <path id="Path_4961" data-name="Path 4961" d="M769.7,2464.3h-2.5v7.1h-1.4v-7.1h-2.5V2463h6.3v1.3Z"/>
      <path id="Path_4962" data-name="Path 4962" d="M776,2469.6h-3.7l-.7,1.8h-1.5l3.4-8.4h1.3l3.5,8.4h-1.5Zm-3.3-1.3h2.8l-1.4-3.5Z"/>
      <path id="Path_4963" data-name="Path 4963" d="M786.2,2469a2.482,2.482,0,0,1-2.6,2.4h-3.4V2463h3.4a2.211,2.211,0,0,1,2.4,2.2,2.417,2.417,0,0,1-1,1.9A2.014,2.014,0,0,1,786.2,2469Zm-2.8-4.7h-1.9v2.2h1.9a1.049,1.049,0,0,0,1.1-1.1C784.6,2464.7,784.1,2464.3,783.4,2464.3Zm1.4,4.6a1.184,1.184,0,0,0-1.3-1.2h-2v2.4h2A1.24,1.24,0,0,0,784.8,2468.9Z"/>
      <path id="Path_4964" data-name="Path 4964" d="M793.4,2470.1v1.3h-4.9V2463h1.4v7.1h3.5Z"/>
      <path id="Path_4965" data-name="Path 4965" d="M800.5,2470.1v1.3h-5V2463h4.9v1.3h-3.5v2.2h3.2v1.3h-3.2v2.3h3.6Z"/>
      <path id="Path_4966" data-name="Path 4966" d="M808.3,2464.3h-2.5v7.1h-1.4v-7.1H802V2463h6.3Z"/>
    </g>
    <g id="Group_3966" data-name="Group 3966" opacity="0.4">
      <path id="Path_4968" data-name="Path 4968" d="M936.5,2471.3l-1-6.1-2.7,6h-.4l-2.7-6-1,6.1h-1.4l1.4-8.4h1.4l2.6,5.7,2.6-5.7h1.4l1.4,8.4Z"/>
      <path id="Path_4969" data-name="Path 4969" d="M944,2471.5a4.4,4.4,0,1,1,4.4-4.4,4.255,4.255,0,0,1-4.4,4.4Zm3-4.4a3,3,0,1,0-3,3A2.888,2.888,0,0,0,947,2467.1Z"/>
      <path id="Path_4970" data-name="Path 4970" d="M956.8,2469a2.482,2.482,0,0,1-2.6,2.4h-3.4V2463h3.4a2.211,2.211,0,0,1,2.4,2.2,2.417,2.417,0,0,1-1,1.9A1.917,1.917,0,0,1,956.8,2469Zm-1.6-3.7a1.11,1.11,0,0,0-1.1-1.1h-1.9v2.2h1.9a1.11,1.11,0,0,0,1.1-1.1Zm.2,3.5a1.184,1.184,0,0,0-1.3-1.2h-2v2.4h2A1.24,1.24,0,0,0,955.4,2468.8Z"/>
      <path id="Path_4971" data-name="Path 4971" d="M959.2,2462.9h1.4v8.4h-1.4Z"/>
      <path id="Path_4972" data-name="Path 4972" d="M968.3,2470v1.3h-4.9v-8.4h1.4v7.1h3.5Z"/>
      <path id="Path_4973" data-name="Path 4973" d="M975.3,2470v1.3h-5v-8.4h4.9v1.3h-3.5v2.2h3.2v1.3h-3.2v2.3h3.6Z"/>
    </g>
    <g id="Group_3967" data-name="Group 3967" opacity="0.4">
      <path id="Path_4974" data-name="Path 4974" d="M1058.3,2463l-2.6,8.4h-1.2l-2.1-5.4-2.1,5.4h-1.2l-2.7-8.4h1.5l1.9,6.2,2.3-6.1h.5l2.4,6.1,1.9-6.2Z"/>
      <path id="Path_4975" data-name="Path 4975" d="M1064.8,2469.6h-3.7l-.7,1.8h-1.5l3.4-8.4h1.3l3.5,8.4h-1.5Zm-3.2-1.3h2.8l-1.4-3.5Z"/>
      <path id="Path_4976" data-name="Path 4976" d="M1073.7,2464.3h-2.5v7.1h-1.4v-7.1h-2.5V2463h6.3v1.3Z"/>
      <path id="Path_4977" data-name="Path 4977" d="M1074.8,2467.2a4.232,4.232,0,0,1,4.3-4.4,3.9,3.9,0,0,1,4,3.1h-1.4a2.706,2.706,0,0,0-2.6-1.8,3,3,0,0,0,0,6,2.7,2.7,0,0,0,2.7-1.9h1.4a3.9,3.9,0,0,1-4,3.2A4.1,4.1,0,0,1,1074.8,2467.2Z"/>
      <path id="Path_4978" data-name="Path 4978" d="M1092,2463v8.4h-1.4v-3.7h-3.8v3.7h-1.4V2463h1.4v3.4h3.8V2463Z"/>
    </g>
    <g id="Group_3968" data-name="Group 3968" opacity="0.4">
      <path id="Path_4979" data-name="Path 4979" d="M1164.2,2469a2.482,2.482,0,0,1-2.6,2.4h-3.4V2463h3.4a2.211,2.211,0,0,1,2.4,2.2,2.417,2.417,0,0,1-1,1.9A2.014,2.014,0,0,1,1164.2,2469Zm-2.8-4.7h-1.9v2.2h1.9a1.049,1.049,0,0,0,1.1-1.1C1162.6,2464.7,1162.1,2464.3,1161.4,2464.3Zm1.4,4.6a1.184,1.184,0,0,0-1.3-1.2h-2v2.4h2A1.24,1.24,0,0,0,1162.8,2468.9Z"/>
      <path id="Path_4980" data-name="Path 4980" d="M1171.6,2470.1v1.3h-5V2463h4.9v1.3H1168v2.2h3.2v1.3H1168v2.3h3.6Z"/>
      <path id="Path_4981" data-name="Path 4981" d="M1179,2469.6h-3.7l-.7,1.8h-1.5l3.4-8.4h1.3l3.5,8.4h-1.5Zm-3.3-1.3h2.8l-1.4-3.5Z"/>
      <path id="Path_4982" data-name="Path 4982" d="M1182.3,2467.2a4.232,4.232,0,0,1,4.3-4.4,3.9,3.9,0,0,1,4,3.1h-1.4a2.706,2.706,0,0,0-2.6-1.8,3,3,0,0,0,0,6,2.7,2.7,0,0,0,2.7-1.9h1.4a3.9,3.9,0,0,1-4,3.2A4.044,4.044,0,0,1,1182.3,2467.2Z"/>
      <path id="Path_4983" data-name="Path 4983" d="M1192.3,2467.2a4.4,4.4,0,1,1,4.4,4.4A4.255,4.255,0,0,1,1192.3,2467.2Zm7.4,0a3,3,0,1,0-3,3A2.947,2.947,0,0,0,1199.7,2467.2Z"/>
      <path id="Path_4984" data-name="Path 4984" d="M1210.3,2463v8.4h-1.2l-4.4-6v6h-1.3V2463h1.2l4.3,5.9V2463Z"/>
    </g>
    <g id="Group_3969" data-name="Group 3969" opacity="0.4">
      <path id="Path_4985" data-name="Path 4985" d="M1306.5,2463h1.4v8.4h-1.4Z"/>
      <path id="Path_4986" data-name="Path 4986" d="M1310.2,2467.2a4.4,4.4,0,1,1,4.4,4.4A4.313,4.313,0,0,1,1310.2,2467.2Zm7.4,0a3,3,0,1,0-3,3A2.888,2.888,0,0,0,1317.6,2467.2Z"/>
      <path id="Path_4987" data-name="Path 4987" d="M1326.5,2464.3H1324v7.1h-1.4v-7.1h-2.5V2463h6.3v1.3Z"/>
    </g>
    <g id="Group_3974" data-name="Group 3974" transform="translate(416.756 2505.313)" opacity="0.9">
      <g id="Group_3973" data-name="Group 3973">
        <g id="Group_3971" data-name="Group 3971" transform="translate(85.815 166.955)">
          <path id="Path_4988" data-name="Path 4988" d="M1.2-229.9H.7v1A1.181,1.181,0,0,0,2-227.7H73.4a1.24,1.24,0,0,0,1.3-1.2v-1Z" fill="#555"/>
          <g id="Group_3970" data-name="Group 3970">
            <path id="Path_4989" data-name="Path 4989" d="M73.5-228.6H2a1.309,1.309,0,0,1-1.3-1.2,1.606,1.606,0,0,1,.5-1.1l7.2-5a5.809,5.809,0,0,0,2.4-4l2.3-24H62.3l2.3,24a5.482,5.482,0,0,0,2.4,4l7.2,5a1.28,1.28,0,0,1,.3,1.8A1.231,1.231,0,0,1,73.5-228.6Z" fill="gray"/>
          </g>
        </g>
        <g id="Group_3972" data-name="Group 3972" transform="translate(0.001)">
          <path id="Path_4990" data-name="Path 4990" d="M15.7-263.9H231.5A14.937,14.937,0,0,1,246.4-249v139a14.937,14.937,0,0,1-14.9,14.9H15.7A14.937,14.937,0,0,1,.8-110V-249A14.81,14.81,0,0,1,15.7-263.9Z" fill="#333"/>
          <path id="Path_4991" data-name="Path 4991" d="M15.7-263.7H231.5a14.937,14.937,0,0,1,14.9,14.9v138.9A14.937,14.937,0,0,1,231.5-95H15.7A14.937,14.937,0,0,1,.8-109.9V-248.8A14.81,14.81,0,0,1,15.7-263.7Z" fill="gray"/>
        </g>
        <path id="Path_4992" data-name="Path 4992" d="M246.4-117.5v16.7a5.911,5.911,0,0,1-5.9,5.9H6.7a5.848,5.848,0,0,1-5.9-5.9v-16.7Z" fill="#555"/>
        <rect id="Rectangle_665" data-name="Rectangle 665" width="245.7" height="0.7" transform="translate(0.7 -117.5)" fill="#777"/>
      </g>
      <rect id="Rectangle_666" data-name="Rectangle 666" width="225.1" height="135.4" transform="translate(10.9 -252.8)" fill="#fff"/>
    </g>
    <g id="Group_3979" data-name="Group 3979" transform="translate(717.756 2532.372)" opacity="0.95">
      <g id="Group_3977" data-name="Group 3977" transform="translate(8.39)">
        <g id="Group_3976" data-name="Group 3976">
          <g id="Group_3975" data-name="Group 3975" transform="translate(5 4.99)">
            <path id="Path_4993" data-name="Path 4993" d="M1.7-263.9H124a.945.945,0,0,1,1,1v164a.945.945,0,0,1-1,1H1.7a.945.945,0,0,1-1-1v-164A1.075,1.075,0,0,1,1.7-263.9Z" fill="#fff"/>
          </g>
          <path id="Path_4994" data-name="Path 4994" d="M7.6-87.9H128.2a6.807,6.807,0,0,0,6.8-6.8V-257a6.807,6.807,0,0,0-6.8-6.8H7.6A6.807,6.807,0,0,0,.8-257V-94.7A6.743,6.743,0,0,0,7.6-87.9Zm0-4.9a2.059,2.059,0,0,1-2-1.9V-257a1.923,1.923,0,0,1,2-1.9H128.2a2.059,2.059,0,0,1,2,1.9V-94.7a1.923,1.923,0,0,1-2,1.9Z" fill="gray"/>
        </g>
        <path id="Path_4995" data-name="Path 4995" d="M135.7-257.1v0Z" fill="#dfdfdf"/>
        <path id="Path_4996" data-name="Path 4996" d="M135.7-94.7v0Z" fill="#dfdfdf"/>
      </g>
      <g id="Group_3978" data-name="Group 3978" transform="translate(0 35.762)">
        <path id="Path_4997" data-name="Path 4997" d="M5.5-258.4l1.1,4.7v93.1a3.09,3.09,0,0,1-3.4,2.5,2.97,2.97,0,0,1-2.5-2.5v-93.1l1.1-4.7v-.2l1.1-4.8a.825.825,0,0,1,1-.5.822.822,0,0,1,.5.5l1.1,4.8Z" fill="#555"/>
      </g>
    </g>
    <g id="Group_3981" data-name="Group 3981" transform="translate(911.83 2543.395)" opacity="0.95">
      <g id="Group_3980" data-name="Group 3980">
        <path id="Path_4998" data-name="Path 4998" d="M71.5-263.9H8.8a8.51,8.51,0,0,0-8,8.4V-107a8.41,8.41,0,0,0,7.8,8.4h63a8.481,8.481,0,0,0,7.8-8.4V-255.4A8.374,8.374,0,0,0,71.5-263.9ZM77.2-107a6.456,6.456,0,0,1-1.3,3.8c0,.1-.1.1-.1.2-.1.2-.3.3-.4.5l-.4.4h0a2.092,2.092,0,0,1-.6.4,2.092,2.092,0,0,0-.6.4h0a.367.367,0,0,1-.3.1h0c-.1,0-.2.1-.3.1-.2.1-.5.1-.7.2a2.769,2.769,0,0,1-.9.1H8.7A6.285,6.285,0,0,1,3-107V-255.4a6.156,6.156,0,0,1,5.8-6.2H72.5c.1,0,.1,0,.2.1.1,0,.2.1.3.1s.2.1.3.1.2.1.3.1a4.671,4.671,0,0,1,1,.5.1.1,0,0,1,.1.1l.2.1c.1.1.2.1.2.2.1.1.3.2.4.4l.2.2.2.2c.2.3.5.6.7.9.1.2.2.3.3.5a1.69,1.69,0,0,1,.2.5c0,.1.1.2.1.3a1.268,1.268,0,0,1,.1.6v.2c0,.3.1.6.1.9Z" fill="gray"/>
        <path id="Path_4999" data-name="Path 4999" d="M9.2-264.9H71.5a9.426,9.426,0,0,1,8.9,9.4V-107a9.467,9.467,0,0,1-8.7,9.4H8.5A9.467,9.467,0,0,1-.2-107V-255.5a9.359,9.359,0,0,1,8.9-9.4h.5Zm62.2,2H8.7a7.442,7.442,0,0,0-7,7.4V-107a7.424,7.424,0,0,0,6.9,7.4h63a7.574,7.574,0,0,0,6.9-7.4V-255.5a7.456,7.456,0,0,0-7.1-7.4Zm-62.2.3H72.1a.367.367,0,0,1,.3.1h0a.367.367,0,0,1,.3.1h0c.1,0,.2.1.4.1.1,0,.2.1.3.1s.2.1.3.1a10.907,10.907,0,0,1,1.1.6h.1l.2.1c.1.1.2.2.3.2.2.1.3.3.5.4l.3.3.2.2a10.474,10.474,0,0,1,.8,1.1l.3.6h0a1.421,1.421,0,0,1,.2.6c0,.1.1.2.1.3.1.2.1.5.2.7a.367.367,0,0,0,.1.3,3.4,3.4,0,0,1,.1,1V-107a7.1,7.1,0,0,1-1.5,4.4h0c0,.1-.1.1-.1.2h0c-.2.2-.3.4-.5.5h0a1.756,1.756,0,0,1-.5.4l-.3.2h0a1.381,1.381,0,0,1-.4.3,2.507,2.507,0,0,1-.7.4l-.2.1h0l-.2.1-.2.1h0c-.1,0-.1.1-.2.1a2.354,2.354,0,0,1-.8.2c-.3.1-.7.1-1,.2H8.7A7.21,7.21,0,0,1,2-107V-255.4a7.21,7.21,0,0,1,6.7-7.2h.5Zm62,2H8.8A5.227,5.227,0,0,0,4-255.4V-107a5.227,5.227,0,0,0,4.8,5.2H71.4c.3,0,.5-.1.7-.1a1.421,1.421,0,0,0,.6-.2h0c.1,0,.2-.1.3-.1l.2-.1.1-.1.2-.1c.1-.1.2-.1.3-.2a1.756,1.756,0,0,0,.5-.4l.1-.1.3-.3.4-.4h0l.1-.1a5.167,5.167,0,0,0,1.1-3.2V-255.7a2.2,2.2,0,0,0-.1-.8h0v-.2h0c0-.2-.1-.3-.1-.5,0-.1,0-.1-.1-.2h0a.758.758,0,0,0-.2-.4.758.758,0,0,1-.2-.4h0a4.173,4.173,0,0,0-.6-.8l-.2-.2h0l-.1-.1h0a1.38,1.38,0,0,0-.4-.3h0a.349.349,0,0,0-.2-.1l-.2-.1-.1-.1c-.1-.1-.2-.1-.4-.2h0c-.1-.1-.3-.1-.4-.2h0c-.1,0-.1-.1-.2-.1h0c-.1,0-.1,0-.2-.1h0c-.1,0-.2-.1-.3-.1H72l-.4-.1h-.1Z" fill="gray"/>
        <path id="Path_5000" data-name="Path 5000" d="M23.7-255.9h0Z"/>
        <path id="Path_5001" data-name="Path 5001" d="M56.7-255.9Z"/>
        <path id="Path_5002" data-name="Path 5002" d="M19.4-259.1Z"/>
        <path id="Path_5003" data-name="Path 5003" d="M19.5-258.8a.1.1,0,0,0-.1-.1h0A.1.1,0,0,1,19.5-258.8Z"/>
        <path id="Path_5004" data-name="Path 5004" d="M20.1-257.8Z"/>
        <path id="Path_5005" data-name="Path 5005" d="M20.3-257.5h0l-.1-.1h0C20.3-257.6,20.3-257.6,20.3-257.5Z"/>
        <path id="Path_5006" data-name="Path 5006" d="M20.4-257.4Z"/>
        <path id="Path_5007" data-name="Path 5007" d="M21-256.9l-.1-.1-.1-.1h-.1l.1.1Z"/>
        <path id="Path_5008" data-name="Path 5008" d="M21.1-256.9Z"/>
        <path id="Path_5009" data-name="Path 5009" d="M21.4-256.6h0l-.1-.1A.1.1,0,0,1,21.4-256.6Z"/>
        <path id="Path_5010" data-name="Path 5010" d="M22.3-256.2c-.1,0-.1,0-.2-.1h0A.31.31,0,0,0,22.3-256.2Z"/>
        <path id="Path_5011" data-name="Path 5011" d="M22.5-256.1c.1,0,.2,0,.2.1,0,0,0-.1-.2-.1h0a.349.349,0,0,1-.2-.1A.349.349,0,0,1,22.5-256.1Z"/>
        <path id="Path_5012" data-name="Path 5012" d="M23.3-255.9h-.4C22.9-256,23.1-256,23.3-255.9Z"/>
        <path id="Path_5013" data-name="Path 5013" d="M23.7-255.9Z"/>
        <path id="Path_5014" data-name="Path 5014" d="M56.3-255.9Z"/>
        <path id="Path_5015" data-name="Path 5015" d="M56.5-255.9h0Z"/>
        <path id="Path_5016" data-name="Path 5016" d="M57-255.9c.2,0,.3-.1.5-.1h-.2a.367.367,0,0,0-.3.1Z"/>
        <path id="Path_5017" data-name="Path 5017" d="M57.9-256.2h-.5c.1,0,.2,0,.2-.1S57.8-256.2,57.9-256.2Z"/>
        <path id="Path_5018" data-name="Path 5018" d="M57.9-256.2c.1,0,.1-.1.2-.1h0A.31.31,0,0,1,57.9-256.2Z"/>
        <path id="Path_5019" data-name="Path 5019" d="M58.8-256.6l.1-.1-.1.1Z"/>
        <path id="Path_5020" data-name="Path 5020" d="M59.2-256.9Z"/>
        <path id="Path_5021" data-name="Path 5021" d="M59.5-257.1h0l-.1.1-.1.1.1-.1A.1.1,0,0,1,59.5-257.1Z"/>
        <path id="Path_5022" data-name="Path 5022" d="M59.9-257.5Z"/>
        <path id="Path_5023" data-name="Path 5023" d="M60-257.7h0c0,.1-.1.1,0,0Z"/>
        <path id="Path_5024" data-name="Path 5024" d="M60.1-257.8Z"/>
        <path id="Path_5025" data-name="Path 5025" d="M60.8-258.9h0c0,.1-.1.1-.1.2C60.7-258.8,60.7-258.9,60.8-258.9Z"/>
        <path id="Path_5026" data-name="Path 5026" d="M60.9-259.2Z"/>
        <path id="Path_5027" data-name="Path 5027" d="M61.6-261.6a1.063,1.063,0,0,0-1,.9v.1a1.268,1.268,0,0,1-.1.6v.2h0c0,.1,0,.1-.1.2s0,.1-.1.2h0v.2c0,.1,0,.1-.1.2s0,.1-.1.2h0a.1.1,0,0,1-.1.1c-.1,0,0,.1-.1.1h0v.2h0v.3h0v.1h0v.1h0v.1h0l-.1.1h0a.1.1,0,0,1-.1.1.1.1,0,0,1-.1.1h0v.1l-.1.1-.1.1-.1.1-.1.1h0l-.1.1-.1.1-.1.1c-.1.1-.1,0-.1.1h0a.1.1,0,0,0-.1.1h0l-.1.1a.1.1,0,0,0-.1.1l-.1.1h-.1a.1.1,0,0,0-.1.1H58c-.1,0-.1.1-.2.1s-.1,0-.2.1-.2,0-.2.1c-.2,0-.3.1-.5.1H22.8c-.2,0-.3-.1-.5-.1-.1,0-.2,0-.2-.1s-.1,0-.2-.1c-.1,0-.1-.1-.2-.1h-.2a.1.1,0,0,1-.1-.1h-.1a.1.1,0,0,1-.1-.1.1.1,0,0,1-.1-.1l-.1-.1h0a.1.1,0,0,1-.1-.1h0a.1.1,0,0,1-.1-.1c0-.1,0,0-.1-.1l-.1-.1-.1-.1h0a.1.1,0,0,1-.1-.1l-.1-.1-.1-.1-.1-.1v-.1h0l-.1-.1h0l-.1-.1h0v-.1h0v-.1h0v-.1h0v-.3h0v-.2h0a.1.1,0,0,0-.1-.1.1.1,0,0,0-.1-.1h0c0-.1-.1-.1-.1-.2s0-.1-.1-.2v-.2h0c0-.1,0-.1-.1-.2,0-.1,0-.1-.1-.2h0v-.2c0-.2-.1-.4-.1-.6v-.1a1.063,1.063,0,0,0-1-.9H61.6Z" fill="#555"/>
        <path id="Path_5028" data-name="Path 5028" d="M32.8-259.7H45.4a.9.9,0,0,1,.9.9h0a.9.9,0,0,1-.9.9H32.8a.9.9,0,0,1-.9-.9h0A.839.839,0,0,1,32.8-259.7Z" fill="#fff"/>
      </g>
      <path id="Path_5029" data-name="Path 5029" d="M77.2-255.4V-107a6.456,6.456,0,0,1-1.3,3.8c0,.1-.1.1-.1.2-.1.2-.3.3-.4.5l-.4.4h0a2.092,2.092,0,0,1-.6.4,2.092,2.092,0,0,0-.6.4h0a.367.367,0,0,1-.3.1h0c-.1,0-.2.1-.3.1-.2.1-.5.1-.7.2a2.769,2.769,0,0,1-.9.1H8.7A6.285,6.285,0,0,1,3-107V-255.4a6.156,6.156,0,0,1,5.8-6.2h9.4a1.063,1.063,0,0,1,1,.9v.1h0a1.268,1.268,0,0,0,.1.6v.2h0c0,.1,0,.1.1.2s0,.1.1.2h0v.2h0c0,.1,0,.1.1.2s0,.1.1.2h0a.1.1,0,0,0,.1.1c.1,0,0,.1.1.1h0v.2h0v.3h0v.1h0v.1h0v.1h0l.1.1h0a.1.1,0,0,0,.1.1h0v.1l.1.1.1.1.1.1.1.1h.1l.1.1h0l.1.1.1.1c.1.1,0,0,.1,0h0a.1.1,0,0,1,.1.1h.2a.1.1,0,0,1,.1.1l.1.1h.1a.1.1,0,0,1,.1.1h.2c.1,0,.1,0,.2.1H57.7c.1,0,.1,0,.2-.1h.2a.1.1,0,0,0,.1-.1h.1a.1.1,0,0,0,.1-.1.1.1,0,0,0,.1-.1h.2a.1.1,0,0,0,.1-.1h.1c.1,0,0,0,.1-.1l.1-.1h0l.1-.1h.1a.1.1,0,0,0,.1-.1l.1-.1.1-.1.1-.1v-.1h0l.1-.1h0l.1-.1h0v-.1h0v-.1h0v-.1h0v-.3h0v-.2h0a.1.1,0,0,1,.1-.1.1.1,0,0,1,.1-.1h0c0-.1.1-.1.1-.2s0-.1.1-.2h0v-.2h0c0-.1,0-.1.1-.2,0-.1,0-.1.1-.2h0v-.2c0-.2.1-.4.1-.6h0v-.1a1.063,1.063,0,0,1,1-.9h11c.1,0,.1,0,.2.1.1,0,.2.1.3.1s.2.1.3.1.2.1.3.1a2.187,2.187,0,0,1,.5.3c.2.1.3.2.5.3a.1.1,0,0,1,.1.1l.2.1c.1.1.2.1.2.2.1.1.3.2.4.4l.2.2.2.2c.2.3.5.6.7.9.1.2.2.3.3.5a1.69,1.69,0,0,1,.2.5c0,.1.1.2.1.3a1.268,1.268,0,0,1,.1.6v.2A1.978,1.978,0,0,0,77.2-255.4Z" fill="#fff"/>
    </g>
    <g id="Group_3985" data-name="Group 3985" transform="translate(1040.872 2604.528)" opacity="0.9">
      <g id="Group_3984" data-name="Group 3984">
        <g id="Group_3982" data-name="Group 3982" transform="translate(4.026)">
          <path id="Path_5030" data-name="Path 5030" d="M49-239.7H.7l4.7-5.9a13.207,13.207,0,0,0,2.8-6.8l1-8c.2-2.3,7.9-3.5,15.6-3.5s15.4,1.2,15.6,3.5l1,8a14.111,14.111,0,0,0,2.8,6.8Z" fill="gray"/>
          <path id="Path_5031" data-name="Path 5031" d="M49-183.2H.7l4.7,5.9a13.207,13.207,0,0,1,2.8,6.8l1,8c.2,2.3,7.9,3.5,15.6,3.5s15.4-1.2,15.6-3.5l1-8a14.111,14.111,0,0,1,2.8-6.8Z" fill="gray"/>
        </g>
        <g id="Group_3983" data-name="Group 3983" transform="translate(0 19.695)">
          <path id="Path_5032" data-name="Path 5032" d="M57.3-251.3v40a12.4,12.4,0,0,1-3.7,8.9l-.5.5-.2.2-.2.2-.1.1-.1.1a.1.1,0,0,0-.1.1c-.1,0-.1.1-.2.1h-.1c-.1,0-.1.1-.2.1a.1.1,0,0,0-.1.1h-.1l-.1.1a.349.349,0,0,1-.2.1h0c-.1,0-.1.1-.2.1-.1.1-.2.1-.3.2-.1,0-.2.1-.3.1s-.2.1-.3.1-.2.1-.3.1-.2.1-.3.1-.2.1-.3.1-.2.1-.3.1c-.2.1-.3.1-.5.2-.1,0-.1,0-.2.1h-.2l-.2.1h-.1c-.1,0-.2,0-.2.1H46a1.268,1.268,0,0,0-.6.1H10.8c-.1,0-.2,0-.2-.1h-.2c-.1,0-.2,0-.2-.1s-.1,0-.2-.1-.2,0-.2-.1c-.1,0-.2-.1-.3-.1s-.2-.1-.3-.1a.349.349,0,0,1-.2-.1l-.2-.1a10.371,10.371,0,0,0-1-.4c-.1,0-.1-.1-.2-.1a.349.349,0,0,1-.2-.1l-.1-.1a.1.1,0,0,1-.1-.1c0-.1-.1,0-.1-.1-.1,0-.1-.1-.2-.1s-.1-.1-.2-.1h0a.215.215,0,0,1-.2-.2h0c-.1,0-.1-.1-.2-.1l-.1-.1c-.1-.1-.2-.1-.2-.2l-.1-.1c-.1-.1-.2-.1-.2-.2s-.1-.1-.2-.2-.5.4-.5.4c-.2-.2-.4-.3-.5-.5a12.4,12.4,0,0,1-3.7-8.9v-40.4h0v-.3h0v-.6h0v-1.2a.367.367,0,0,1,.1-.3c.1-.1,0-.2.1-.2s0-.2.1-.3h0c0-.1,0-.1.1-.2s0-.1.1-.2a.31.31,0,0,0,.1-.2,1.007,1.007,0,0,0,.1-.3v-.1c0-.1.1-.1.1-.2h0a.349.349,0,0,1,.1-.2h0a.349.349,0,0,1,.1-.2,1.007,1.007,0,0,0,.1-.3c.1-.2.2-.3.3-.5,0-.1.1-.1.1-.2.1-.1.1-.2.2-.4.1-.1.1-.2.2-.3a14.309,14.309,0,0,1,1.1-1.5c0-.1.1-.1.2-.2l.5-.5a12.739,12.739,0,0,1,8.6-3.7H44.8a12.739,12.739,0,0,1,8.6,3.7A11.606,11.606,0,0,1,57.3-251.3Z" fill="#555"/>
          <path id="Path_5033" data-name="Path 5033" d="M54.4-251.3v40a9.7,9.7,0,0,1-2.8,6.8c-.1.1-.3.2-.4.4h0l-.1.1h0a.1.1,0,0,0-.1.1h0l-.1.1h-.2l-.1.1-.1.1-.1.1h0l-.1.1h0l-.1.1H50c-.1,0-.1.1-.2.1h0a.31.31,0,0,0-.2.1h0l-.2.1-.2.1-.2.1-.2.1c-.1,0-.1.1-.2.1h0c-.1,0-.3.1-.4.1H11.5l-.2-.1c-.1,0-.1,0-.2-.1H11l-.1-.1h0c-.2-.1-.5-.2-.7-.3h0a.1.1,0,0,1-.1-.1h0l-.1-.1H9.8l-.2-.1-.1-.1-.2-.2H9.2a.1.1,0,0,1-.1-.1h0c-.1,0-.1-.1-.2-.1l-.1-.1h0l-.1-.1h0c-.1-.1-.3-.2-.4-.4C5-206.2,4-208.6,4-211.2v-40.4H4v-.3H4v-.5H4v-.1H4v-.1H4v-.4H4v-.1H4v-.1H4v-.1H4v-.1H4v-.2H4v-.1H4v-.1H4v-.1H4l.1-.2h0v-.1c0-.1,0-.1.1-.2h0c0-.1,0-.1.1-.1v-.1h0a.1.1,0,0,1,.1-.1c0-.1.1-.1.1-.2h0c.1-.1.1-.3.2-.4h0v-.1h0a.367.367,0,0,0,.1-.3h0c0-.1.1-.1.1-.2h0a10.472,10.472,0,0,1,.8-1.1h0l.1-.1h0c.1-.1.2-.3.4-.4a9.642,9.642,0,0,1,6.4-2.8H45.1a9.642,9.642,0,0,1,6.4,2.8C53.4-256.3,54.4-253.8,54.4-251.3Z" fill="#ccc"/>
          <path id="Path_5034" data-name="Path 5034" d="M56.6-257.2c.1.1.2.3.3.4A1.381,1.381,0,0,0,56.6-257.2Zm-2-4h0c.1.1.2.2.2.3,0-.2-.1-.3-.2-.3Zm-.8-.8c.2.2.4.3.6.5a2.651,2.651,0,0,1-.6-.5Zm-.5-.4a2.181,2.181,0,0,1,.5.4,2.181,2.181,0,0,0-.5-.4ZM51-263.9l.6.3-.6-.3Z" fill="silver"/>
        </g>
      </g>
      <path id="Path_5035" data-name="Path 5035" d="M52.3-230.9v38.7a7.472,7.472,0,0,1-2.3,5.5l-.3.3h0l-.1.1h0l-.1.1h0l-.1.1h0l-.1.1h0a.1.1,0,0,0-.1.1l-.1.1h0a.349.349,0,0,1-.2.1h0a.1.1,0,0,0-.1.1h0l-.2.1a.349.349,0,0,1-.2.1l-.2.1c-.1,0-.1,0-.2.1l-.2.1h0c-.1,0-.2.1-.3.1H12.3c-.1,0-.1,0-.2-.1l-.2-.1h-.2l-.6-.3H11a.1.1,0,0,1-.1-.1h-.1l-.3-.2h-.1l-.3-.2H10l-.1-.1h0l-.7.1h0l-.1-.1H9l-.3-.3a7.807,7.807,0,0,1-2.3-5.5V-231h0v-.2h0v-.1h0v-.1h0v-.2h0v-.3h0v-.1h0v-.1h0v-.1h0v-.1h0v-.2h0v-.1h0v-.1h0v-.2a.1.1,0,0,1,.1-.1h0v-.1h0v-.3h0v-.1c0-.1,0-.1.1-.2h0c0-.1.1-.2.2-.3h0c0-.1.1-.1.1-.2h0l.1-.1H7a5.5,5.5,0,0,1,.7-.9h0v-.1h0l.3-.3a8.042,8.042,0,0,1,5.3-2.3H44.6a8.041,8.041,0,0,1,5.3,2.3C51.4-234.9,52.3-233,52.3-230.9Z" fill="#fff"/>
    </g>
    <g id="Group_3986" data-name="Group 3986" transform="translate(1148.881 2604.313)" opacity="0.85">
      <path id="Path_5036" data-name="Path 5036" d="M36.3-263.9l14.5,4.6,9.3,4.8,9.1,21.8,1,37.1-.6,24.3L61-166l-22.5,7L10-171.8l-3.8-5.5-.9-9.9L.8-208.3l.4-7.4L17-254.9Z" fill="#6d6d6d"/>
      <path id="Path_5037" data-name="Path 5037" d="M51.2-259.1l-.4-.2-14.5-4.6-16.1,7.5v5.3l27.4-3.1Z" fill="#5d5d5d"/>
      <path id="Path_5038" data-name="Path 5038" d="M51.2-259.1l-3.6,4.8,7,5.2,5.5-5.5Z" fill="#535453"/>
      <path id="Path_5039" data-name="Path 5039" d="M60.1-254.5,54.6-249l6.9,27.8,7.7-11.5Z" fill="#878787"/>
      <path id="Path_5040" data-name="Path 5040" d="M69.1-232.7l-7.7,11.5,8.7,25.6Z" fill="#5d5d5d"/>
      <path id="Path_5041" data-name="Path 5041" d="M70.2-195.6l-.6,24.3L61-166l-1.8-3.6Z" fill="#6d6d6d"/>
      <path id="Path_5042" data-name="Path 5042" d="M61-166l-1.8-3.6-17.4,4.4-3.2,6.3Z" fill="#535453"/>
      <path id="Path_5043" data-name="Path 5043" d="M38.5-159l3.2-6.3L12.1-176,10-171.8Z" fill="#9a9a9a"/>
      <path id="Path_5044" data-name="Path 5044" d="M41.8-165.2,31.2-187.3l-9.4-2.8L10-183l2.1,7Z" fill="#7a7a7a"/>
      <path id="Path_5045" data-name="Path 5045" d="M10-171.8l-3.8-5.5-.9-9.9L10-183l2.1,7Z" fill="#b6b6b6"/>
      <path id="Path_5046" data-name="Path 5046" d="M10-183l11.8-7.1-5.7-52.3L.7-208.3l4.5,21.1Z" fill="#535453"/>
      <path id="Path_5047" data-name="Path 5047" d="M20.2-251.1v-5.3l-3.3,1.5L1.1-215.7l-.4,7.4Z" fill="#878787"/>
      <path id="Path_5048" data-name="Path 5048" d="M61.5-221.2,31.2-187.3l10.6,22.1,17.4-4.4,11-26Z" fill="#494949"/>
    </g>
    <g id="Group_3987" data-name="Group 3987" transform="translate(1062.447 2335.348)" opacity="0.5">
      <path id="Path_5049" data-name="Path 5049" d="M268.1,80.8V85h6.4c3.5,0,3.6.1,3.6,3.5v1.6c-.2,2.1.1,3.7,2.3,5,3,1.8,3.2,6.3.8,9a6.227,6.227,0,0,1-8.9.5l-.3-.3c-2.6-2.6-2.6-7.4.6-9.1,3.3-1.9,2.3-4.4,2.3-7.1-2.6,0-5.1-.1-7.6,0-1.8.1-2.5-.7-2.4-2.4a46.851,46.851,0,0,0,0-5.3c-.1-1.9.6-2.7,2.6-2.7a76.926,76.926,0,0,0,9.6-.2A11.739,11.739,0,0,0,280,55c-1.9-.7-2.5-1.7-2.6-3.7a14.15,14.15,0,0,0-15.3-13,14.39,14.39,0,0,0-11.4,7.4c-1,1.8-1.8,2.4-3.9,1.7a11.566,11.566,0,0,0-14.6,7.3,7.511,7.511,0,0,0-.5,2.6c-.2,2-.9,2.9-3.1,3.1-4.1.3-7.3,4.2-7.4,8.4-.1,4.1,2.9,8.1,6.9,8.6a116.22,116.22,0,0,0,11.8.3c2.8,0,2.9.1,2.9,2.8V93c0,1.8-.6,2.5-2.4,2.4a8.1,8.1,0,0,0-2.2,0,3.47,3.47,0,0,0-1.9,1.2c-1.7,2.8-4.3,4.1-7.2,3.3a6.223,6.223,0,0,1-4.8-6.1,6.113,6.113,0,0,1,4.7-6.1,6.39,6.39,0,0,1,7.2,3.3c.8,1.4.8,1.4,3.4,1.1V80.8c-3,0-5.9-.1-8.8,0A11.945,11.945,0,0,1,218.3,71c-1-6.5,2.4-11.6,9.1-13.7a2.742,2.742,0,0,0,1.3-1.7c1.8-6.9,6.5-11.2,13.6-11.9a51.154,51.154,0,0,1,5.6.3c.8-1.1,1.6-2.2,2.4-3.2,5-5.3,11.1-7.1,18-5s10.9,7,12.1,14.2a3.558,3.558,0,0,0,1.6,2.2,14.962,14.962,0,0,1-6.7,28.4C273,80.8,270.6,80.8,268.1,80.8Zm8.4,22.3a3.25,3.25,0,1,0-3.2-3.4,3.27,3.27,0,0,0,3.2,3.4ZM230.4,90.8a3.15,3.15,0,1,0,.1,6.3h.3a3.089,3.089,0,0,0,2.9-3.4A3.186,3.186,0,0,0,230.4,90.8Z"/>
      <path id="Path_5050" data-name="Path 5050" d="M255.8,88.2c0,2.5.1,5,0,7.5a2.231,2.231,0,0,0,1.4,2.5,6.061,6.061,0,0,1,3.1,7.3,6.379,6.379,0,0,1-12.2-.1,6.026,6.026,0,0,1,3-7.1,2.371,2.371,0,0,0,1.5-2.7c-.1-5.2-.1-10.3,0-15.5a3.212,3.212,0,0,1,1-2.2c1-.7,2.1.2,2.2,1.7C255.8,82.5,255.8,85.4,255.8,88.2Zm-1.6,12.4a3.15,3.15,0,1,0,.1,6.3,3.1,3.1,0,0,0,3.1-3,3.309,3.309,0,0,0-3.2-3.3Z"/>
      <path id="Path_5051" data-name="Path 5051" d="M238.3,64.3,235.7,62c8.5-9.7,26.3-11.1,36.9-.1l-2.8,2.2a22.644,22.644,0,0,0-31.5.2Z"/>
      <path id="Path_5052" data-name="Path 5052" d="M243.7,69.6l-2.6-2.3c5.9-7.4,19.4-7.5,26.3,0l-2.7,2.2a15.169,15.169,0,0,0-10.5-4.2A14.493,14.493,0,0,0,243.7,69.6Z"/>
      <path id="Path_5053" data-name="Path 5053" d="M248.7,75.1c-.7-.8-1.3-1.4-1.9-2.1-.1-.2-.2-.3-.3-.5,3.9-4.4,11.3-4.4,15.5,0l-2.7,2.2C256,72.1,252.4,72.1,248.7,75.1Z"/>
      <path id="Path_5054" data-name="Path 5054" d="M276.5,103.1a3.25,3.25,0,1,1,.1-6.5h.1a3.166,3.166,0,0,1,3,3.4A3.2,3.2,0,0,1,276.5,103.1Z" fill="#fff"/>
      <path id="Path_5055" data-name="Path 5055" d="M230.4,90.8a3.15,3.15,0,1,1-3.1,3.3,3.1,3.1,0,0,1,3.1-3.3Z" fill="#fff"/>
      <path id="Path_5056" data-name="Path 5056" d="M254.2,100.6a3.154,3.154,0,1,1-3.3,3.2A3.378,3.378,0,0,1,254.2,100.6Z" fill="#fff"/>
    </g>
  </g>
</svg>
