<svg version="1.2" xmlns="http://www.w3.org/2000/svg" viewBox="0 0 350 88" width="350" height="88">
	<title>social-svg</title>
	<style>
		.s0 { fill: #4caf50 } 
		.s1 { fill: #fafafa } 
		.s2 { fill: #f2f2f2 } 
		.s3 { fill: #f14336 } 
		.s4 { fill: #d32e2a } 
		.s5 { fill: #03a9f4 } 
		.s6 { fill: #2196f3 } 
	</style>
	<g id="Layer">
		<path id="Layer" class="s0" d="m261.5 43.9c0 23.8-19.2 43.1-42.8 43.1c-8.8 0-16.8-2.6-23.6-7.1l-16.4 5.3l5.3-16c-5.1-7.1-8.1-15.8-8.1-25.2c0-23.8 19.2-43.1 42.8-43.1c23.7 0 42.8 19.2 42.8 43z" />
		<path id="Layer" class="s1" d="m243.7 61.8c-1.1 2.9-5.2 5.4-8.4 6.1c-2.3 0.4-5.2 0.9-15-3.2c-12.6-5.3-20.7-18.2-21.4-19c-0.6-0.8-5.1-6.8-5.1-13c0-6.2 3.2-9.2 4.4-10.5c1.1-1.1 2.8-1.5 4.4-1.5c0.5 0 1 0 1.4 0c1.3 0.1 1.9 0.1 2.7 2.2c1.1 2.5 3.6 8.7 3.8 9.3c0.3 0.7 0.7 1.6 0.2 2.4c-0.4 0.9-0.7 1.2-1.4 1.9c-0.6 0.8-1.3 1.3-1.9 2.1c-0.5 0.7-1.2 1.4-0.5 2.7c0.7 1.3 3.2 5.4 6.9 8.7c4.9 4.3 8.7 5.7 10.1 6.2c1.1 0.5 2.3 0.4 3.1-0.4c0.9-1.1 2.1-2.8 3.4-4.5c0.9-1.3 1.9-1.4 3-0.9c1.2 0.4 7.3 3.4 8.6 4c1.2 0.6 2 0.9 2.4 1.5c0.3 0.4 0.3 2.9-0.7 5.9z" />
	</g>
	<g id="Layer">
		<g id="Layer">
			<path id="Layer" class="s2" d="m169.6 21.6l-5.5 55.3h-65.7l-4.4-54.3l37.3 21z" />
			<path id="Layer" class="s2" d="m167.8 11.1l-36.6 34.5l-36.5-34.5h36.5z" />
		</g>
		<path id="Layer" class="s3" d="m98.4 27.1v49.8h-6c-2.2 0-4-1.8-4-4.1v-53l6.5 0.1z" />
		<path id="Layer" class="s4" d="m174.1 19.8v52.9c0 2.3-1.8 4.1-4 4.1h-6v-49.7l3.3-7.8z" />
		<path id="Layer" class="s3" d="m174.1 15.3v4.5l-10 7.3l-32.8 24.1l-32.9-24.1l-10-7.3v-4.5c0-2.3 1.8-4.1 4-4.1h2.3l36.6 26.7l36.5-26.8h2.3c2.2 0 4 1.9 4 4.2z" />
		<path id="Layer" class="s4" d="m98.4 27.1l-10-1.6v-5.7z" />
	</g>
	<path id="Layer" fill-rule="evenodd" class="s5" d="m62.9 87.1c-4.1 0-8-1-11.3-2.8c-28.7 5.2-53.3-19.9-47.5-48c-2-3.5-3.2-7.6-3.2-11.9c0-18.7 20.7-29.6 36.3-19.9c28.7-4.9 53.2 20.6 46.9 48.7c7.8 15.5-3.6 33.9-21.2 33.9zm5.2-32.3c0-17.2-22.6-15.8-31.2-20.1c-6.5-3.3-2.9-9.8 6.3-9.8c12.7 0 8.6 10.3 16.4 10.3c6.6 0 8.8-8.4 0.7-14.7c-8.9-6.9-29.3-6.2-36.3 2.8c-3.9 5.2-3.3 12.3-0.1 16.3c8.9 11 31.2 6.2 31.2 16.3c0 5.1-6.3 7.2-11.3 7.2c-11.4 0-10.1-8-14.1-11.3c-4.6-3.8-14.2 1.3-6.9 11.5c4.8 6.9 12.9 9 21.3 9c12.3 0 23.9-5.5 24-17.5z" />
	<g id="Layer">
		<path id="Layer" class="s6" d="m306.3 87.1c-23.8 0-42.9-19.3-42.9-43.1c0-23.8 19.1-43.1 42.8-43.1c23.7 0 42.9 19.3 42.9 43.1c0 23.8-19.2 43.1-42.9 43.1z" />
		<path id="Layer" class="s1" d="m330.4 55.6v9.9c0 1.5-1.2 2.7-2.7 2.7c-25.1 0-45.6-20.6-45.6-45.8c0-1.6 1.2-2.7 2.7-2.7h9.8c1.6 0 2.7 1.1 2.7 2.7c0 4.6 1.1 9.1 3.1 13.2c0.2 0.6 0.3 1.3 0 2c-0.1 0.7-0.7 1.3-1.3 1.6l-4 1.9c3.3 5.9 8.1 10.7 13.9 14l2-4c0.3-0.6 0.8-1.1 1.5-1.4c0.7-0.2 1.4-0.1 2.1 0.1c4.1 2.1 8.4 3.1 13.1 3.1c1.5 0 2.7 1.2 2.7 2.7z" />
	</g>
</svg>