<svg id="Group_15" data-name="Group 15" xmlns="http://www.w3.org/2000/svg" xmlns:xlink="http://www.w3.org/1999/xlink" width="786.198" height="472.3" viewBox="0 0 786.198 472.3">
  <defs>
    <clipPath id="clip-path">
      <rect id="Rectangle_19" data-name="Rectangle 19" width="786.198" height="472.3" fill="none"/>
    </clipPath>
  </defs>
  <line id="Line_2" data-name="Line 2" x2="531.027" transform="translate(111.751 107.675)" fill="none" stroke="#fff" stroke-width="1.436"/>
  <g id="Group_14" data-name="Group 14">
    <g id="Group_13" data-name="Group 13" clip-path="url(#clip-path)">
      <rect id="Rectangle_14" data-name="Rectangle 14" width="531.027" height="328.552" rx="5.569" transform="translate(111.75 72.865)" fill="none" stroke="#fff" stroke-width="1.436"/>
      <path id="Path_3" data-name="Path 3" d="M119.761,73.735a4.857,4.857,0,1,1-4.858-4.858A4.858,4.858,0,0,1,119.761,73.735Z" transform="translate(26.987 16.891)" fill="none" stroke="#fff" stroke-width="1.436"/>
      <path id="Path_4" data-name="Path 4" d="M134.921,73.735a4.857,4.857,0,1,1-4.858-4.858A4.858,4.858,0,0,1,134.921,73.735Z" transform="translate(30.704 16.891)" fill="none" stroke="#fff" stroke-width="1.436"/>
      <path id="Path_5" data-name="Path 5" d="M150.081,73.735a4.857,4.857,0,1,1-4.858-4.858A4.858,4.858,0,0,1,150.081,73.735Z" transform="translate(34.422 16.891)" fill="none" stroke="#fff" stroke-width="1.436"/>
      <path id="Path_6" data-name="Path 6" d="M120.589,251.646H15.947a5.9,5.9,0,0,1-5.9-5.9V186.707a5.9,5.9,0,0,1,5.9-5.9H120.589a5.9,5.9,0,0,1,5.9,5.9v59.037a5.9,5.9,0,0,1-5.9,5.9" transform="translate(2.464 44.339)" fill="#509bc2"/>
      <rect id="Rectangle_15" data-name="Rectangle 15" width="116.444" height="70.84" rx="4.739" transform="translate(12.51 225.144)" fill="none" stroke="#fff" stroke-width="1.436"/>
      <path id="Path_7" data-name="Path 7" d="M623.136,243.064H480.186a6.37,6.37,0,0,1-6.371-6.371V136.485a6.37,6.37,0,0,1,6.371-6.371H623.136a6.37,6.37,0,0,1,6.371,6.371V236.693a6.37,6.37,0,0,1-6.371,6.371" transform="translate(116.193 31.908)" fill="#509bc2"/>
      <rect id="Rectangle_16" data-name="Rectangle 16" width="155.692" height="112.95" rx="5.116" transform="translate(590.008 162.021)" fill="none" stroke="#fff" stroke-width="1.436"/>
      <path id="Path_8" data-name="Path 8" d="M422.215,128.941H338.279a2.575,2.575,0,0,1-2.575-2.574V105.484a2.575,2.575,0,0,1,2.575-2.574h83.936a2.574,2.574,0,0,1,2.574,2.574v20.884a2.574,2.574,0,0,1-2.574,2.574" transform="translate(82.324 25.236)" fill="#f36867"/>
      <line id="Line_3" data-name="Line 3" x2="59.909" transform="translate(430.38 137.422)" fill="none" stroke="#fff" stroke-width="0.81"/>
      <line id="Line_4" data-name="Line 4" x2="24.776" transform="translate(430.38 143.665)" fill="none" stroke="#fff" stroke-width="0.81"/>
      <path id="Path_9" data-name="Path 9" d="M343.637,121.45v10.145L356.4,121.45Z" transform="translate(84.269 29.783)" fill="#f36867"/>
      <path id="Path_10" data-name="Path 10" d="M133.621,36.1H20.94a4.214,4.214,0,0,1,0-8.429H133.621a4.214,4.214,0,1,1,0,8.429" transform="translate(4.102 6.786)" fill="#509bc2"/>
      <path id="Path_11" data-name="Path 11" d="M646.2,298.388H557.9a4.215,4.215,0,1,1,0-8.43h88.3a4.215,4.215,0,1,1,0,8.43" transform="translate(135.779 71.106)" fill="#fceeef"/>
      <path id="Path_12" data-name="Path 12" d="M321.077,18.651H311.21a4.7,4.7,0,0,1-4.694-4.695V4.695A4.7,4.7,0,0,1,311.21,0h9.867a4.7,4.7,0,0,1,4.694,4.695v9.262a4.7,4.7,0,0,1-4.694,4.695" transform="translate(75.166)" fill="#509bc2"/>
      <path id="Path_13" data-name="Path 13" d="M20.935,305.063H7.961a6.172,6.172,0,0,1-6.173-6.173v-12.18a6.173,6.173,0,0,1,6.173-6.173H20.935a6.173,6.173,0,0,1,6.173,6.173v12.18a6.172,6.172,0,0,1-6.173,6.173" transform="translate(0.438 68.796)" fill="#fceeef"/>
      <path id="Path_14" data-name="Path 14" d="M564.275,85.892h-9.286a4.417,4.417,0,0,1-4.418-4.418V72.757a4.417,4.417,0,0,1,4.418-4.418h9.286a4.418,4.418,0,0,1,4.418,4.418v8.717a4.418,4.418,0,0,1-4.418,4.418" transform="translate(135.015 16.759)" fill="#fceeef"/>
      <path id="Path_15" data-name="Path 15" d="M491.962,202.611a20.033,20.033,0,0,0-39.98-2.421c-.68,8.057.095,21.928,1.07,36.668L494,231.928Z" transform="translate(110.775 44.595)" fill="#f8f2da"/>
      <path id="Path_16" data-name="Path 16" d="M493.741,222.066,452.789,227c1.29,19.509,2.931,30.691,2.02,41.819a21.567,21.567,0,1,0,43.049,2.535Z" transform="translate(111.036 54.457)" fill="#fca0a0"/>
      <path id="Path_17" data-name="Path 17" d="M402.209,215.861l94.081,47.068c10.43,5.79,13.37,17.26,7.941,25.957a17.965,17.965,0,0,1-25.7,5.094l-85.048-61.258Z" transform="translate(96.494 52.935)" fill="#fca0a0"/>
      <path id="Path_18" data-name="Path 18" d="M391.155,240.949a18.457,18.457,0,1,0-11.577-23.394,18.455,18.455,0,0,0,11.577,23.394" transform="translate(92.844 50.272)" fill="#fca0a0"/>
      <path id="Path_19" data-name="Path 19" d="M390.063,207.28s-.931-7.221,8.455-4.834,17.781,9.667,13.227,27.673Z" transform="translate(95.648 49.527)" fill="#fca0a0"/>
      <path id="Path_20" data-name="Path 20" d="M407.488,179.086,387.6,174.445a1.932,1.932,0,0,0-2.325,1.712l-7.639,51.657a2.358,2.358,0,0,0,1.681,2.647L399.2,235.1a1.932,1.932,0,0,0,2.325-1.712l7.639-51.658a2.357,2.357,0,0,0-1.681-2.646" transform="translate(92.601 42.766)" fill="#37305e"/>
      <path id="Path_21" data-name="Path 21" d="M409.032,179.417l-19.886-4.641a1.932,1.932,0,0,0-2.325,1.712l-7.639,51.657a2.358,2.358,0,0,0,1.681,2.647l19.886,4.641a1.932,1.932,0,0,0,2.325-1.712l7.639-51.658a2.358,2.358,0,0,0-1.681-2.646" transform="translate(92.979 42.848)" fill="#261c42"/>
      <path id="Path_22" data-name="Path 22" d="M406.936,183.328l-17.473-4.077-6.226,42.1,17.473,4.078Z" transform="translate(93.98 43.957)" fill="#e7e7e7"/>
      <path id="Path_23" data-name="Path 23" d="M388.237,179.251l11.247,46.178,6.226-42.1Z" transform="translate(95.206 43.957)" fill="#fff"/>
      <path id="Path_24" data-name="Path 24" d="M403.59,204.411a29.916,29.916,0,0,0-8.129-2.363,4.212,4.212,0,0,0-3.474,7.215l7.09,6.79s-1.138,10.063,3.607,14.808l4.272-15.98Z" transform="translate(95.808 49.54)" fill="#fca0a0"/>
      <path id="Path_25" data-name="Path 25" d="M510.469,250.442,467.1,259.978s-11.562,25.7-30.787,140.4q-.444,2.652-.877,5.262c20.724.286,41.45.864,62.175,1.563l27.6-135.239Z" transform="translate(106.78 61.415)" fill="#785afc"/>
      <path id="Path_26" data-name="Path 26" d="M552.815,341.06c-1.466-55.5-29.588-85.5-29.588-85.5l-53.394,1.665L484.06,405.776c23.013.752,46.026,1.666,69.038,2.5.194-26.3.162-50.366-.283-67.22" transform="translate(115.216 62.669)" fill="#785afc"/>
      <path id="Path_27" data-name="Path 27" d="M462.111,295.936,478.5,309.489l7.458,86.386" transform="translate(113.322 72.572)" fill="none" stroke="#121e35" stroke-linecap="round" stroke-linejoin="round" stroke-width="1.14"/>
      <path id="Path_28" data-name="Path 28" d="M476.572,179.19l-15.139,6.391a6.339,6.339,0,0,0-3.838,6.127l4.067,86.375,68.956-.841,4.071-89.285c.123-4.762-3.683-10.465-8.432-10.832l-28.052-.507Z" transform="translate(112.213 43.311)" fill="#f8f2da"/>
      <path id="Path_29" data-name="Path 29" d="M459.9,203.939s-7.068,8.973.037,26.525" transform="translate(112.012 50.011)" fill="none" stroke="#121e35" stroke-linecap="round" stroke-linejoin="round" stroke-width="1.14"/>
      <path id="Path_30" data-name="Path 30" d="M548.257,208.986l-36.239,19.7c8.4,17.655,17.691,36.6,20.952,47.275a21.567,21.567,0,1,0,40.943-13.536Z" transform="translate(125.561 51.249)" fill="#fca0a0"/>
      <path id="Path_31" data-name="Path 31" d="M537.492,190.334a20.033,20.033,0,0,0-24.109-12.619c-10.9,2.952-10.621,28.3-7.349,39.111,2.341,7.739,1.591,6.362,7.938,19.7l36.239-19.7Z" transform="translate(123.606 43.409)" fill="#f8f2da"/>
      <line id="Line_5" data-name="Line 5" x1="7.94" y1="19.701" transform="translate(629.286 260.235)" fill="none" stroke="#121e35" stroke-linecap="round" stroke-linejoin="round" stroke-width="1.14"/>
      <path id="Path_32" data-name="Path 32" d="M469.7,244.35l96.493,2.094a17.964,17.964,0,1,1-3.834,35.668l-91.731-15.838Z" transform="translate(115.183 59.921)" fill="#fca0a0"/>
      <path id="Path_33" data-name="Path 33" d="M475.1,273.913a18.457,18.457,0,1,0-20.745-15.842A18.457,18.457,0,0,0,475.1,273.913" transform="translate(111.38 58.158)" fill="#fca0a0"/>
      <path id="Path_34" data-name="Path 34" d="M460.136,242.993s-4.036-6.061,5.437-8.08,20.224.784,24.121,18.945Z" transform="translate(112.629 57.47)" fill="#fca0a0"/>
      <path id="Path_35" data-name="Path 35" d="M483.489,163.088a21.948,21.948,0,1,0,16.31-26.409,21.949,21.949,0,0,0-16.31,26.409" transform="translate(118.419 33.372)" fill="#121e35"/>
      <path id="Path_36" data-name="Path 36" d="M445.828,111.948s35.454-20.879,59.745.859c14.8,13.241,9.18,34.893-10.665,48.316-18.9,12.787-25.895-46.918-25.895-46.918Z" transform="translate(109.329 25.238)" fill="#121e35"/>
      <path id="Path_37" data-name="Path 37" d="M467.773,105.823S433.28,107.68,435.7,133.772c1.605,17.332,28.6,16.766,28.6,16.766Z" transform="translate(106.815 25.951)" fill="#121e35"/>
      <path id="Path_38" data-name="Path 38" d="M459.979,145.046a9.062,9.062,0,1,1-11.344-5.961,9.061,9.061,0,0,1,11.344,5.961" transform="translate(108.455 34.007)" fill="#ea8c8c"/>
      <path id="Path_39" data-name="Path 39" d="M465.755,168.072l6.586,21.625c2.3,7.6,6.363,10.718,13.823,8.4,6.369-1.981,13.176-7.6,12-14.168l-12-33.532Z" transform="translate(114.216 36.881)" fill="#fca0a0"/>
      <path id="Path_40" data-name="Path 40" d="M475.356,178.716l-7.674,3.332s-11.929,19.942,10.852,20.681c27.48.892,29.725-14.984,34.111-25.613L498.6,175.774Z" transform="translate(113.923 43.105)" fill="#fca0a0"/>
      <path id="Path_41" data-name="Path 41" d="M469.376,179.347s19.076-2.8,19.076-28.268L465.177,165.7Z" transform="translate(114.074 37.049)" fill="#121e35"/>
      <path id="Path_42" data-name="Path 42" d="M478.995,180.348h0c-12.962,3.1-26.088-4.576-28.979-15.077l-6.673-24.814a25.3,25.3,0,0,1,16.878-30.878c13.343-4.15,29.863,2.574,34.015,15.916l5.149,20.016c3.984,15.481-5.127,30.088-20.389,34.836" transform="translate(108.496 26.573)" fill="#fca0a0"/>
      <path id="Path_43" data-name="Path 43" d="M470.393,120.315c.093,15.887,15.179,24.357,15.179,24.357l10.738-21.764s-25.993-15.644-25.917-2.593" transform="translate(115.353 28.23)" fill="#121e35"/>
      <path id="Path_44" data-name="Path 44" d="M482.123,125.6s-31.55-2.875-41.63,12.229c0,0-.869-30.874,32.985-32.677s24.028,22.107,24.028,22.107Z" transform="translate(108.02 25.762)" fill="#121e35"/>
      <path id="Path_45" data-name="Path 45" d="M457.916,145.664l.542,4.829,3.235-.64" transform="translate(112.294 35.721)" fill="none" stroke="#121e35" stroke-linecap="round" stroke-linejoin="round" stroke-width="1.101"/>
      <path id="Path_46" data-name="Path 46" d="M454.374,143.77a2.357,2.357,0,1,1-2.891-1.657,2.355,2.355,0,0,1,2.891,1.657" transform="translate(110.289 34.83)" fill="#121e35"/>
      <path id="Path_47" data-name="Path 47" d="M469.72,139.608a2.357,2.357,0,1,1-2.891-1.659,2.358,2.358,0,0,1,2.891,1.659" transform="translate(114.052 33.809)" fill="#121e35"/>
      <path id="Path_48" data-name="Path 48" d="M459.493,135.48l13.932-1.42s-2.188-3.743-7.866-3.109-6.065,4.529-6.065,4.529" transform="translate(112.68 32.095)" fill="#121e35"/>
      <path id="Path_49" data-name="Path 49" d="M455.774,136.736l-9.812,3.165a5.992,5.992,0,0,1,4.281-5.033c4.012-1.244,5.531,1.868,5.531,1.868" transform="translate(109.362 33.001)" fill="#121e35"/>
      <path id="Path_50" data-name="Path 50" d="M457.8,154.371l14.213-3.292a8.581,8.581,0,0,1-8.637,6.891c-5.211.09-5.576-3.6-5.576-3.6" transform="translate(112.264 37.049)" fill="#fff"/>
      <path id="Path_51" data-name="Path 51" d="M496.835,137.752a8.389,8.389,0,1,1-8.952-7.786,8.39,8.39,0,0,1,8.952,7.786" transform="translate(117.728 31.866)" fill="#fca0a0"/>
      <path id="Path_52" data-name="Path 52" d="M484.605,139.938s-.422-6.067,5.447-5.516" transform="translate(118.837 32.955)" fill="none" stroke="#121e35" stroke-linecap="round" stroke-linejoin="round" stroke-width="0.981"/>
      <path id="Path_53" data-name="Path 53" d="M111.251,328.427v63.342l57.2,1.466V347.858L180.8,345.7l8.3,46.065,51.749,3.287L220.7,299.969Z" transform="translate(27.282 73.561)" fill="#171d5f"/>
      <path id="Path_54" data-name="Path 54" d="M77.723,239.312,57.078,378.384,79.406,380.8l36.945-142.673Z" transform="translate(13.997 58.395)" fill="#f29891"/>
      <path id="Path_55" data-name="Path 55" d="M64.075,350.762s-36.961,8.512-35.485,18.367H73.658s17.063-1.3,12.746-15.953Z" transform="translate(7 86.017)" fill="#f29891"/>
      <path id="Path_56" data-name="Path 56" d="M131.8,190.118s-45.9-3.771-71.366,64.761l56.632,20.352Z" transform="translate(14.82 46.613)" fill="#f36867"/>
      <path id="Path_57" data-name="Path 57" d="M251.991,150.812,231.858,218.1l23.5,26.583S269.977,185.341,270.439,151Z" transform="translate(56.858 36.983)" fill="#fca0a0"/>
      <path id="Path_58" data-name="Path 58" d="M249.084,158.533s18.027,2.387,20.555-2.118c4.417-7.874,2.084-29.247,2.084-29.247s-31.632.7-31.212,1,8.572,30.364,8.572,30.364" transform="translate(58.979 31.185)" fill="#fca0a0"/>
      <path id="Path_59" data-name="Path 59" d="M250.828,157.33c-.335-1.584-12.461-15.238-16.824-20.433a2.844,2.844,0,0,1,.751-4.165,3.286,3.286,0,0,1,3.957.025l11.628,9Z" transform="translate(57.235 32.388)" fill="#fca0a0"/>
      <path id="Path_60" data-name="Path 60" d="M243.172,144.1l-4.741-25.435a3.193,3.193,0,0,1,2.478-3.727,2.752,2.752,0,0,1,3.234,1.987l4.99,18.351Z" transform="translate(58.454 28.172)" fill="#fca0a0"/>
      <path id="Path_61" data-name="Path 61" d="M247.041,132.8l-.34-19.388a3.178,3.178,0,0,1,2.926-3.266,2.738,2.738,0,0,1,2.893,2.339l3.048,21.334Z" transform="translate(60.498 27.009)" fill="#fca0a0"/>
      <path id="Path_62" data-name="Path 62" d="M254.118,134.616l1.482-19.78a3.481,3.481,0,0,1,3.488-3.241,3.03,3.03,0,0,1,2.947,3.132l-.2,18.2Z" transform="translate(62.317 27.366)" fill="#fca0a0"/>
      <path id="Path_63" data-name="Path 63" d="M266.867,130.178l2.306-12.681a2.462,2.462,0,0,0-2.344-2.6,2.812,2.812,0,0,0-2.813,2.209l-3.7,15.009Z" transform="translate(63.836 28.175)" fill="#fca0a0"/>
      <path id="Path_64" data-name="Path 64" d="M242.686,136.7s9.172-4.859,15.293,7.507" transform="translate(59.513 33.291)" fill="none" stroke="#282828" stroke-linecap="round" stroke-linejoin="round" stroke-width="1.183"/>
      <path id="Path_65" data-name="Path 65" d="M266.579,220.194s2.659,26.15-12.084,28.465-47.36-18.035-47.36-18.035l-15.092-51.085,56.613,31.36Z" transform="translate(47.094 44.028)" fill="#fca0a0"/>
      <path id="Path_66" data-name="Path 66" d="M160.372,183.8s31.345-20.793,80.081,11.808l-28.6,45.238-28.462-2.632Z" transform="translate(39.328 43.471)" fill="#f36867"/>
      <path id="Path_67" data-name="Path 67" d="M100.939,267.885l7.141,91.234,126.2-17.977L214.749,208.31l-39.8-25.795-53.083,9.458Z" transform="translate(24.753 44.758)" fill="#f36867"/>
      <line id="Line_6" data-name="Line 6" x1="3.353" y1="30.701" transform="translate(122.9 289.12)" fill="none" stroke="#121e35" stroke-linecap="round" stroke-linejoin="round" stroke-width="1.14"/>
      <line id="Line_7" data-name="Line 7" x1="4.86" y1="26.505" transform="translate(239.138 257.151)" fill="none" stroke="#121e35" stroke-linecap="round" stroke-linejoin="round" stroke-width="1.14"/>
      <path id="Path_68" data-name="Path 68" d="M127.5,192.627h0l-5.844-35.609,32.825-5.388,5.845,35.61,10.5,2.85s.13,15.134-24.053,19.439-29.03-9.982-29.03-9.982Z" transform="translate(28.874 37.184)" fill="#fca0a0"/>
      <path id="Path_69" data-name="Path 69" d="M155.181,160.669s-.549,13.988-12.524,17.55c-13.783,4.1-20.245-11.818-20.245-11.818s7.451,6.484,17.29,4.881a22.023,22.023,0,0,0,15.479-10.613" transform="translate(30.019 39.4)" fill="#121e35"/>
      <path id="Path_70" data-name="Path 70" d="M117.158,112.168s5.841-14.47,25.49-12.09c13.866,1.681,18.5,12.988,20.946,18.135a12.66,12.66,0,0,1,1.2,6.32l-2.695,24.25L139.09,117.891l-18.951,3.416Z" transform="translate(28.73 24.477)" fill="#121e35"/>
      <path id="Path_71" data-name="Path 71" d="M153.431,139.744s2.1-4.209,7.427-2.771,4.246,14.141-3.3,16.5a6.12,6.12,0,0,1-5.054-.8s.977-9.4.928-12.928" transform="translate(37.398 33.516)" fill="#fca0a0"/>
      <path id="Path_72" data-name="Path 72" d="M160.1,140.54s-4.445-1.007-6.869,5.632" transform="translate(37.576 34.451)" fill="none" stroke="#131313" stroke-linecap="round" stroke-linejoin="round" stroke-width="0.698"/>
      <path id="Path_73" data-name="Path 73" d="M113.014,143.752s-2.884-3.713-7.826-1.254-1.378,14.7,6.484,15.524a6.126,6.126,0,0,0,4.8-1.778s-2.81-9.025-3.457-12.492" transform="translate(25.238 34.738)" fill="#fca0a0"/>
      <path id="Path_74" data-name="Path 74" d="M105.91,145.838s4.159-1.864,7.844,4.168" transform="translate(25.972 35.697)" fill="none" stroke="#131313" stroke-linecap="round" stroke-linejoin="round" stroke-width="0.698"/>
      <path id="Path_75" data-name="Path 75" d="M163.3,134.364c.751,7.519,1.576,23.324-2.117,33.122-3.469,9.2-8.944,13.706-18.327,14.923s-17.99-.788-24.74-11.607-8.482-30.959-8.482-30.959-2.672-26.862,23.877-29.5c27.962-2.781,29.79,24.024,29.79,24.024" transform="translate(26.867 27.009)" fill="#fca0a0"/>
      <path id="Path_76" data-name="Path 76" d="M112.486,151.627l-7.116-23.121a10.181,10.181,0,0,1,.248-5.724c1.59-4.61,6.471-14.948,14.5-13l2.981,9.139s-9.658,2.969-12.328,16.254Z" transform="translate(25.767 26.862)" fill="#121e35"/>
      <path id="Path_77" data-name="Path 77" d="M114.676,118.05s17.751,17.606,49.113,12.568c0,0-5.257-22.466-20-22.626a51.541,51.541,0,0,0-26.29,7.491Z" transform="translate(28.122 26.482)" fill="#121e35"/>
      <path id="Path_78" data-name="Path 78" d="M122.113,117.09a48.052,48.052,0,0,1-12.522,19.568s-4.254-21.19,12.522-19.568" transform="translate(26.757 28.692)" fill="#121e35"/>
      <path id="Path_79" data-name="Path 79" d="M139.241,139.3a2.374,2.374,0,1,0,1.977-2.715,2.375,2.375,0,0,0-1.977,2.715" transform="translate(34.139 33.486)" fill="#121e35"/>
      <path id="Path_80" data-name="Path 80" d="M121.58,142.07a2.375,2.375,0,1,0,1.977-2.715,2.376,2.376,0,0,0-1.977,2.715" transform="translate(29.808 34.167)" fill="#121e35"/>
      <path id="Path_81" data-name="Path 81" d="M128.753,132.46l-15.131,6.552s.021-4.536,6.221-7.158,8.91.605,8.91.605" transform="translate(27.863 32.083)" fill="#121e35"/>
      <path id="Path_82" data-name="Path 82" d="M134.677,131.567l16.411,1.6s-1.412-4.311-8.116-4.9-8.294,3.309-8.294,3.309" transform="translate(33.027 31.437)" fill="#121e35"/>
      <path id="Path_83" data-name="Path 83" d="M131.37,144.621l.685,3.337a1.329,1.329,0,0,0,1.813.99l1.7-.735" transform="translate(32.216 35.465)" fill="none" stroke="#121e35" stroke-linecap="round" stroke-linejoin="round" stroke-width="1.026"/>
      <path id="Path_84" data-name="Path 84" d="M127.4,154.2l17.08-3.855s1.4,6.638-7,8.262S127.4,154.2,127.4,154.2" transform="translate(31.243 36.869)" fill="#fff"/>
      <rect id="Rectangle_17" data-name="Rectangle 17" width="746.87" height="18.651" transform="translate(0 453.649)" fill="#509bc2"/>
      <path id="Path_85" data-name="Path 85" d="M274.8,335.842H237.515a17.724,17.724,0,1,0,0,35.448H281.37Z" transform="translate(53.899 82.358)" fill="#fca0a0"/>
      <path id="Path_86" data-name="Path 86" d="M223.082,348.434l23.138-37.89,34.343,4.636-5.094,44.59Z" transform="translate(54.706 76.154)" fill="#fca0a0"/>
      <line id="Line_8" data-name="Line 8" x1="28.06" transform="translate(291.413 418.2)" fill="none" stroke="#121e35" stroke-linecap="round" stroke-linejoin="round" stroke-width="1.14"/>
      <path id="Path_87" data-name="Path 87" d="M358.971,335.842h37.281a17.724,17.724,0,1,1,0,35.448H352.4Z" transform="translate(86.417 82.358)" fill="#fca0a0"/>
      <path id="Path_88" data-name="Path 88" d="M409.482,349.447l-29.138-44.893L352.4,316.65l5.094,44.589Z" transform="translate(86.417 74.685)" fill="#fca0a0"/>
      <line id="Line_9" data-name="Line 9" x2="35.166" transform="translate(447.502 418.2)" fill="none" stroke="#121e35" stroke-linecap="round" stroke-linejoin="round" stroke-width="1.14"/>
      <path id="Path_89" data-name="Path 89" d="M321,257.167s-37.115,0-64.439,26.869v75.3s130.756,1.99,130.756,0,.035-80.279.035-80.279S360.6,257.167,321,257.167" transform="translate(62.915 63.064)" fill="#734aea"/>
      <path id="Path_90" data-name="Path 90" d="M269.158,274.749s-20.174,16.285-41.44,52.146c0,0,4.586,20.752,44.2,23.928Z" transform="translate(55.843 67.376)" fill="#734aea"/>
      <path id="Path_91" data-name="Path 91" d="M362.135,274.749s20.174,16.285,41.44,52.146c0,0-4.587,20.752-44.2,23.928Z" transform="translate(88.128 67.376)" fill="#734aea"/>
      <path id="Path_92" data-name="Path 92" d="M381.381,381.428H262.49a5.933,5.933,0,0,1-5.932-5.934V300.438a5.933,5.933,0,0,1,5.932-5.933H381.381a5.933,5.933,0,0,1,5.934,5.933v75.056a5.933,5.933,0,0,1-5.934,5.934" transform="translate(62.915 72.221)" fill="#ffe6e9"/>
      <path id="Path_93" data-name="Path 93" d="M318.652,330.985a8.014,8.014,0,1,1-8.013-8.013,8.013,8.013,0,0,1,8.013,8.013" transform="translate(74.212 79.202)" fill="#fff"/>
      <rect id="Rectangle_18" data-name="Rectangle 18" width="25.65" height="28.734" transform="translate(371.713 304.37)" fill="#fca0a0"/>
      <path id="Path_94" data-name="Path 94" d="M297.5,243.182s2.261,14.275,13.016,14.534c14.118.339,13.886-13.9,13.886-13.9s-1.925,4.186-12.841,4.2c-12.176.019-14.061-4.839-14.061-4.839" transform="translate(72.956 59.635)" fill="#121e35"/>
      <path id="Path_95" data-name="Path 95" d="M351.547,212.921c0,20.208-15.97,36.59-35.67,36.59s-35.671-16.382-35.671-36.59,15.97-36.59,35.671-36.59,35.67,16.382,35.67,36.59" transform="translate(68.715 43.241)" fill="#121e35"/>
      <path id="Path_96" data-name="Path 96" d="M334.057,216.954s2.569-4.086,7.866-2.076,2.9,14.874-5.046,16.514a6.29,6.29,0,0,1-5.082-1.33s1.954-9.5,2.261-13.108" transform="translate(81.366 52.558)" fill="#fca0a0"/>
      <path id="Path_97" data-name="Path 97" d="M340.579,218.442s-4.438-1.481-7.587,5.054" transform="translate(81.659 53.533)" fill="none" stroke="#131313" stroke-linecap="round" stroke-linejoin="round" stroke-width="0.775"/>
      <path id="Path_98" data-name="Path 98" d="M286.867,216.954s-2.568-4.086-7.866-2.076-2.9,14.874,5.046,16.514a6.289,6.289,0,0,0,5.082-1.33s-1.954-9.5-2.261-13.108" transform="translate(67.725 52.558)" fill="#fca0a0"/>
      <path id="Path_99" data-name="Path 99" d="M279.288,218.442s4.438-1.481,7.587,5.054" transform="translate(68.489 53.533)" fill="none" stroke="#131313" stroke-linecap="round" stroke-linejoin="round" stroke-width="0.775"/>
      <path id="Path_100" data-name="Path 100" d="M346.236,213.3c0,8.245-.85,25.492-6.2,35.731-5.017,9.612-13.315,14.785-24.2,15.092s-18.986-3.668-25.481-16.143-6.185-34.526-6.185-34.526S284.178,184,314.87,184c32.326,0,31.366,29.3,31.366,29.3" transform="translate(69.688 45.123)" fill="#fca0a0"/>
      <path id="Path_101" data-name="Path 101" d="M285.116,221.3s6.552-14.374.772-24.72c0,0-5.234,16.645-.772,24.72" transform="translate(69.477 48.208)" fill="#121e35"/>
      <path id="Path_102" data-name="Path 102" d="M334.157,221.3s-6.552-14.374-.772-24.72c0,0,5.234,16.645.772,24.72" transform="translate(81.171 48.208)" fill="#121e35"/>
      <path id="Path_103" data-name="Path 103" d="M321.66,185.332s-3.021,17.423,15,25.343c0,0-.741-20.393-15-25.343" transform="translate(78.833 45.449)" fill="#121e35"/>
      <path id="Path_104" data-name="Path 104" d="M334.814,188.446s-2.7,17.386-26.33,13.511C290.087,198.939,284.472,213,284.472,213s-3.264-26.141,26.436-31.487c0,0,15.194-.081,23.906,6.93" transform="translate(69.734 44.513)" fill="#121e35"/>
      <path id="Path_105" data-name="Path 105" d="M301.441,219.477a2.806,2.806,0,1,1-2.805-2.805,2.806,2.806,0,0,1,2.805,2.805" transform="translate(72.546 53.134)" fill="#121e35"/>
      <path id="Path_106" data-name="Path 106" d="M322.3,219.477a2.806,2.806,0,1,1-2.807-2.805,2.806,2.806,0,0,1,2.807,2.805" transform="translate(77.661 53.134)" fill="#121e35"/>
      <path id="Path_107" data-name="Path 107" d="M307.384,223.833l0,3.787a1.478,1.478,0,0,0,1.753,1.481l2.014-.423" transform="translate(75.379 54.89)" fill="none" stroke="#121e35" stroke-linecap="round" stroke-linejoin="round" stroke-width="1.14"/>
      <path id="Path_108" data-name="Path 108" d="M308.127,212.6l-17,2.043s1.365-4.51,8.312-5.285,8.692,3.241,8.692,3.241" transform="translate(71.391 51.317)" fill="#121e35"/>
      <path id="Path_109" data-name="Path 109" d="M312.651,212.6l17,2.043s-1.365-4.51-8.313-5.285-8.692,3.241-8.692,3.241" transform="translate(76.671 51.317)" fill="#121e35"/>
      <path id="Path_110" data-name="Path 110" d="M309.753,221.143a11.6,11.6,0,1,1-11.6-11.6A11.6,11.6,0,0,1,309.753,221.143Z" transform="translate(70.27 51.385)" fill="none" stroke="#fff" stroke-width="1.25"/>
      <path id="Path_111" data-name="Path 111" d="M336.14,221.143a11.6,11.6,0,1,1-11.6-11.6A11.6,11.6,0,0,1,336.14,221.143Z" transform="translate(76.741 51.385)" fill="none" stroke="#fff" stroke-width="1.25"/>
      <path id="Path_112" data-name="Path 112" d="M305.184,220.183s4.1-6.3,9.655,0" transform="translate(74.84 53.309)" fill="none" stroke="#fff" stroke-width="1.25"/>
      <path id="Path_113" data-name="Path 113" d="M301.055,232.182s1.706,2.209,9.288,2.209c6.895,0,10.024-2.209,10.024-2.209" transform="translate(73.827 56.937)" fill="none" stroke="#121e35" stroke-linecap="round" stroke-linejoin="round" stroke-width="1.14"/>
      <path id="Path_114" data-name="Path 114" d="M315.422,257.2s-15.669-.849-36.134,8.2c0,0-.428,17.662,34.894,17.662s38.468-19.356,38.468-19.356-22.432-8-37.227-6.506" transform="translate(68.489 63.028)" fill="#fca0a0"/>
      <path id="Path_115" data-name="Path 115" d="M346.978,172.2a23.284,23.284,0,1,1-23.285-23.285A23.285,23.285,0,0,1,346.978,172.2" transform="translate(73.669 36.518)" fill="#121e35"/>
    </g>
  </g>
</svg>
