<svg xmlns="http://www.w3.org/2000/svg" width="307.025" height="40" viewBox="0 0 307.025 40">
  <g id="Group_3993" data-name="Group 3993" transform="translate(5366 -1404)">
    <g id="Group_3988" data-name="Group 3988" transform="translate(-5630.77 -557.967)">
      <path id="Path_5057" data-name="Path 5057" d="M529.258,1991.467H517.432c-.019,0-.038-.009-.057-.011-.168-.023-.339-.035-.5-.07a3.8,3.8,0,0,1-3.021-3.686q-.012-5.706,0-11.411a3.793,3.793,0,0,1,1.477-3.025,3.72,3.72,0,0,1,1.828-.763l.281-.034h11.826a.341.341,0,0,0,.051.011,3.637,3.637,0,0,1,1.151.264,3.808,3.808,0,0,1,2.384,3.547q0,5.592,0,11.185a4.386,4.386,0,0,1-.114,1.112,3.768,3.768,0,0,1-1.474,2.166,3.694,3.694,0,0,1-1.73.683Zm-11.99-5.662h3.557c.154,0,.309,0,.463-.013a3.132,3.132,0,0,0,1.389-.4,1.925,1.925,0,0,0,.863-1.04,2.088,2.088,0,0,0,.086-.984,2.372,2.372,0,0,0-.143-.64,1.858,1.858,0,0,0-1.116-1.056l-.112-.041c.109-.064.213-.119.311-.185a1.511,1.511,0,0,0,.639-.849,2.033,2.033,0,0,0,.057-.718,1.725,1.725,0,0,0-.29-.868,1.678,1.678,0,0,0-1.076-.679,5.183,5.183,0,0,0-1.106-.126h-3.461l-.06,0Zm12.876-1.932a.108.108,0,0,0-.019-.005c-.423,0-.847,0-1.27,0-.038,0-.045.022-.056.047a1.168,1.168,0,0,1-.414.522,1.359,1.359,0,0,1-.879.225,1.193,1.193,0,0,1-1.071-.64,1.414,1.414,0,0,1-.161-.536h3.916c-.01-.223-.017-.438-.029-.653a4.6,4.6,0,0,0-.177-1.051,2.444,2.444,0,0,0-.626-1.088,2.267,2.267,0,0,0-1.363-.6,3.236,3.236,0,0,0-1.568.191,2.364,2.364,0,0,0-1.505,1.63,3.7,3.7,0,0,0-.065,1.727,2.422,2.422,0,0,0,1.217,1.738,3,3,0,0,0,1.2.372,2.788,2.788,0,0,0,1.466-.227,2.58,2.58,0,0,0,1.185-1.131A2.485,2.485,0,0,0,530.144,1983.873Zm-2.621-4.566h1.412c.045,0,.091,0,.136,0a.379.379,0,0,0,.329-.507.383.383,0,0,0-.385-.251h-2.979a.578.578,0,0,0-.077,0,.38.38,0,0,0,.068.756Z" fill="#1d1e31"/>
      <path id="Path_5058" data-name="Path 5058" d="M629.257,2186.615h1.171a1.622,1.622,0,0,1,.636.106.862.862,0,0,1,.536.668,1.019,1.019,0,0,1-.23.911,1.069,1.069,0,0,1-.68.352,3.1,3.1,0,0,1-.4.022c-.322,0-.644,0-.966,0h-.071Z" transform="translate(-110.006 -204.138)" fill="#1d1e31"/>
      <path id="Path_5059" data-name="Path 5059" d="M629.25,2122.439v-1.716h.94a1.76,1.76,0,0,1,.555.076.769.769,0,0,1,.562.784.88.88,0,0,1-.142.524.727.727,0,0,1-.462.288,1.969,1.969,0,0,1-.366.042c-.351.006-.7,0-1.052,0Z" transform="translate(-110.012 -141.343)" fill="#1d1e31"/>
      <path id="Path_5060" data-name="Path 5060" d="M783.288,2162.878a1.065,1.065,0,0,1,.659-.987,1.343,1.343,0,0,1,.756-.044.869.869,0,0,1,.522.3,1.094,1.094,0,0,1,.21.453c.021.088.033.179.05.273Z" transform="translate(-256.839 -180.556)" fill="#1d1e31"/>
    </g>
    <rect id="Rectangle_667" data-name="Rectangle 667" width="40" height="40" transform="translate(-5366 1404)" fill="none"/>
    <path id="Path_5061" data-name="Path 5061" d="M23.2,13.3H25V10.1c-.3,0-1.4-.1-2.7-.1-2.6,0-4.4,1.7-4.4,4.7v2.8H15v3.6h2.9V30h3.6V21.1h2.8l.4-3.6H21.5V15.1c0-1.1.2-1.8,1.7-1.8Z" transform="translate(-5366 1404)" fill="#1d1e31"/>
    <rect id="Rectangle_668" data-name="Rectangle 668" width="40" height="40" transform="translate(-5326 1404)" fill="none"/>
    <g id="Group_3990" data-name="Group 3990" transform="translate(-5366 1404)">
      <g id="Group_3989" data-name="Group 3989">
        <path id="Path_5062" data-name="Path 5062" d="M70,13.8a8.44,8.44,0,0,1-2.4.6,3.788,3.788,0,0,0,1.8-2.3,8.247,8.247,0,0,1-2.6,1,4.157,4.157,0,0,0-3-1.3,4.055,4.055,0,0,0-4.1,4.1,2.769,2.769,0,0,0,.1.9,11.955,11.955,0,0,1-8.5-4.3,3.7,3.7,0,0,0-.6,2.1A4.038,4.038,0,0,0,52.5,18a4.136,4.136,0,0,1-1.9-.5h0a4.074,4.074,0,0,0,3.3,4,3.75,3.75,0,0,1-1.1.1,2.2,2.2,0,0,1-.8-.1,4.215,4.215,0,0,0,3.8,2.9,8.24,8.24,0,0,1-5.1,1.7,3.4,3.4,0,0,1-1-.1A11.322,11.322,0,0,0,56,27.8,11.683,11.683,0,0,0,67.7,16.1v-.5A3.788,3.788,0,0,0,70,13.8Z" fill="#1d1e31"/>
      </g>
    </g>
    <rect id="Rectangle_669" data-name="Rectangle 669" width="40" height="40" transform="translate(-5286 1404)" fill="none"/>
    <g id="Group_3991" data-name="Group 3991" transform="translate(-5366 1404)">
      <path id="Path_5063" data-name="Path 5063" d="M110,30h0V22.7c0-3.6-.8-6.4-5-6.4a4.206,4.206,0,0,0-3.9,2.2H101V16.7H97V30h4.1V23.4c0-1.7.3-3.4,2.5-3.4,2.1,0,2.2,2,2.2,3.5V30Z" fill="#1d1e31"/>
      <path id="Path_5064" data-name="Path 5064" d="M90.3,16.6h4.1V30H90.3Z" fill="#1d1e31"/>
      <path id="Path_5065" data-name="Path 5065" d="M92.4,10a2.4,2.4,0,1,0,2.4,2.4A2.433,2.433,0,0,0,92.4,10Z" fill="#1d1e31"/>
    </g>
    <rect id="Rectangle_670" data-name="Rectangle 670" width="40" height="40" transform="translate(-5246 1404)" fill="none"/>
    <path id="Path_5066" data-name="Path 5066" d="M150.5,14.7a2.79,2.79,0,0,0-1.9-1.9c-1.7-.5-8.6-.5-8.6-.5s-6.9,0-8.6.5a2.749,2.749,0,0,0-1.9,2A25.008,25.008,0,0,0,129,20a26.332,26.332,0,0,0,.5,5.3,2.79,2.79,0,0,0,1.9,1.9c1.7.5,8.6.5,8.6.5s6.9,0,8.6-.5a2.79,2.79,0,0,0,1.9-1.9A26.332,26.332,0,0,0,151,20,26.332,26.332,0,0,0,150.5,14.7Zm-12.7,8.6V16.7l5.7,3.3Z" transform="translate(-5366 1404)" fill="#1d1e31"/>
    <rect id="Rectangle_671" data-name="Rectangle 671" width="40" height="40" transform="translate(-5206 1404)" fill="none"/>
    <path id="Path_5067" data-name="Path 5067" d="M180,10a10,10,0,1,0,10,10A10.029,10.029,0,0,0,180,10Zm6.5,4.7a8.78,8.78,0,0,1,1.9,5,15.193,15.193,0,0,0-5.6-.1c-.3-.7-.6-1.4-.9-2A15.609,15.609,0,0,0,186.5,14.7Zm-1.1-1.1a16.316,16.316,0,0,1-4.3,2.7c-1.1-2-2.2-3.6-2.8-4.5a9.908,9.908,0,0,1,1.8-.2A7.941,7.941,0,0,1,185.4,13.6Zm-8.8-1.3a26.96,26.96,0,0,1,2.9,4.5,27.149,27.149,0,0,1-7.7,1.2A9.106,9.106,0,0,1,176.6,12.3Zm-5,7.4h0a29.334,29.334,0,0,0,5.1-.5,21.067,21.067,0,0,0,3.6-.9l.9,1.8a14.172,14.172,0,0,0-3.9,1.9,15.816,15.816,0,0,0-3.7,3.4,8.753,8.753,0,0,1-2-5.4Q171.6,19.85,171.6,19.7Zm3.2,6.8a19.5,19.5,0,0,1,3.5-3.2,13.488,13.488,0,0,1,3.6-1.8,33.753,33.753,0,0,1,1.7,6.1,8.174,8.174,0,0,1-3.5.8A7.984,7.984,0,0,1,174.8,26.5Zm10.1.3a30.533,30.533,0,0,0-1.6-5.6,11.655,11.655,0,0,1,4.9.2A7.96,7.96,0,0,1,184.9,26.8Z" transform="translate(-5366 1404)" fill="#1d1e31"/>
    <rect id="Rectangle_672" data-name="Rectangle 672" width="40" height="40" transform="translate(-5166 1404)" fill="none"/>
    <g id="Group_3992" data-name="Group 3992" transform="translate(-5366 1404)">
      <path id="Path_5068" data-name="Path 5068" d="M229.9,15.9a5.053,5.053,0,0,0-.5-2.4,4.394,4.394,0,0,0-1.2-1.8,5.675,5.675,0,0,0-1.8-1.2A11.053,11.053,0,0,0,224,10a36.93,36.93,0,0,0-4.1-.1,35.859,35.859,0,0,0-4.1.1,5.053,5.053,0,0,0-2.4.5,4.394,4.394,0,0,0-1.8,1.2,5.675,5.675,0,0,0-1.2,1.8,11.053,11.053,0,0,0-.5,2.4,36.928,36.928,0,0,0-.1,4.1,35.857,35.857,0,0,0,.1,4.1,5.053,5.053,0,0,0,.5,2.4,4.394,4.394,0,0,0,1.2,1.8,5.675,5.675,0,0,0,1.8,1.2,11.052,11.052,0,0,0,2.4.5c1.1,0,1.4.1,4.1.1A35.859,35.859,0,0,0,224,30a5.053,5.053,0,0,0,2.4-.5,5.168,5.168,0,0,0,2.9-2.9,11.053,11.053,0,0,0,.5-2.4c0-1.1.1-1.4.1-4.1S230,16.9,229.9,15.9ZM228.1,24a6.127,6.127,0,0,1-.3,1.9,3,3,0,0,1-1.9,1.9,6.127,6.127,0,0,1-1.9.3c-1.1,0-1.4.1-4,.1a34.745,34.745,0,0,1-4-.1,6.127,6.127,0,0,1-1.9-.3,4.129,4.129,0,0,1-1.1-.7,2.589,2.589,0,0,1-.7-1.1,6.127,6.127,0,0,1-.3-1.9c0-1.1-.1-1.4-.1-4a34.743,34.743,0,0,1,.1-4,6.127,6.127,0,0,1,.3-1.9,2.836,2.836,0,0,1,.8-1.1,2.589,2.589,0,0,1,1.1-.7,6.127,6.127,0,0,1,1.9-.3c1.1,0,1.4-.1,4-.1a33.7,33.7,0,0,1,4,.1,6.127,6.127,0,0,1,1.9.3,4.129,4.129,0,0,1,1.1.7,2.589,2.589,0,0,1,.7,1.1,6.127,6.127,0,0,1,.3,1.9c0,1.1.1,1.4.1,4A32.627,32.627,0,0,1,228.1,24Z" fill="#1d1e31"/>
      <path id="Path_5069" data-name="Path 5069" d="M220,14.9a5.1,5.1,0,1,0,5.1,5.1A5.121,5.121,0,0,0,220,14.9Zm0,8.4a3.3,3.3,0,1,1,3.3-3.3A3.329,3.329,0,0,1,220,23.3Z" fill="#1d1e31"/>
      <path id="Path_5070" data-name="Path 5070" d="M226.5,14.7a1.2,1.2,0,1,1-1.2-1.2A1.155,1.155,0,0,1,226.5,14.7Z" fill="#1d1e31"/>
    </g>
    <rect id="Rectangle_673" data-name="Rectangle 673" width="40" height="40" transform="translate(-5126 1404)" fill="none"/>
    <path id="Path_5071" data-name="Path 5071" d="M267.1,12.9a9.97,9.97,0,1,0,0,14.1A9.959,9.959,0,0,0,267.1,12.9Zm-.4,12.7a14.309,14.309,0,0,0-1.5-1.1,15.924,15.924,0,0,0,.6-3.9h2.9a8.235,8.235,0,0,1-2,5Zm-15.4-5h2.9a15.923,15.923,0,0,0,.6,3.9,14.309,14.309,0,0,0-1.5,1.1A8.235,8.235,0,0,1,251.3,20.6Zm2-6.2a14.309,14.309,0,0,0,1.5,1.1,15.923,15.923,0,0,0-.6,3.9h-2.9A8.235,8.235,0,0,1,253.3,14.4Zm6.1,1.2a8.381,8.381,0,0,1-3-.8c.5-1.4,1.5-3.1,3-3.5Zm0,1.3v2.5h-3.8a11.419,11.419,0,0,1,.5-3.3A11.4,11.4,0,0,0,259.4,16.9Zm0,3.7v2.5a9.941,9.941,0,0,0-3.4.8,16.328,16.328,0,0,1-.5-3.3Zm0,3.8v4.2c-1.4-.4-2.4-2.1-3-3.5A9.425,9.425,0,0,1,259.4,24.4Zm1.2,0a8.381,8.381,0,0,1,3,.8c-.5,1.4-1.5,3.1-3,3.5Zm0-1.3V20.6h3.8a11.419,11.419,0,0,1-.5,3.3,11.4,11.4,0,0,0-3.3-.8Zm0-3.7V16.9a9.941,9.941,0,0,0,3.4-.8,16.329,16.329,0,0,1,.5,3.3Zm0-3.8V11.4c1.4.4,2.4,2.1,3,3.5A9.425,9.425,0,0,1,260.6,15.6Zm2.9-3.6a10.886,10.886,0,0,1,2.3,1.4c-.3.3-.7.5-1,.8A15.915,15.915,0,0,0,263.5,12Zm-8.2,2.2a3.915,3.915,0,0,1-1-.8,6.776,6.776,0,0,1,2.3-1.4,7.1,7.1,0,0,0-1.3,2.2Zm0,11.6a7.761,7.761,0,0,0,1.2,2.2,10.886,10.886,0,0,1-2.3-1.4A7.632,7.632,0,0,1,255.3,25.8Zm9.4,0a3.915,3.915,0,0,1,1,.8,6.776,6.776,0,0,1-2.3,1.4,7.1,7.1,0,0,0,1.3-2.2Zm1.1-6.4a15.923,15.923,0,0,0-.6-3.9,14.309,14.309,0,0,0,1.5-1.1,8.482,8.482,0,0,1,2,5Z" transform="translate(-5329 1404)" fill="#1d1e31"/>
  </g>
</svg>
