<?xml version="1.0" encoding="utf-8"?>
<!-- Generator: Adobe Illustrator 25.3.1, SVG Export Plug-In . SVG Version: 6.00 Build 0)  -->
<svg version="1.1" id="Layer_1" xmlns="http://www.w3.org/2000/svg" xmlns:xlink="http://www.w3.org/1999/xlink" x="0px" y="0px"
	 width="267.9px" height="25.9px" viewBox="0 0 267.9 25.9" style="enable-background:new 0 0 267.9 25.9;" xml:space="preserve">
<style type="text/css">
	.st0{fill:#4368B1;}
	.st1{fill:#429CD6;}
	.st2{fill:#2867B2;}
	.st3{fill:#4B934A;}
	.st4{fill:#FFFFFF;}
</style>
<path id="icon-facebook" class="st0" d="M97.2,5.5h-1.9c-1.9-0.1-3.5,1.3-3.6,3.2c0,0.2,0,0.3,0,0.5v1.7h-1.9
	c-0.2,0-0.3,0.1-0.3,0.3l0,0v2.4c0,0.2,0.1,0.3,0.3,0.3c0,0,0,0,0,0h1.9v6.2c0,0.2,0.1,0.3,0.3,0.3c0,0,0,0,0,0h2.5
	c0.2,0,0.3-0.1,0.3-0.3l0,0v-6.2h2.3c0.2,0,0.3-0.1,0.3-0.3l0,0v-2.4c0-0.1,0-0.2-0.1-0.2c-0.1-0.1-0.1-0.1-0.2-0.1h-2.3V9.4
	c0-0.7,0.2-1,1.1-1h1.3c0.2,0,0.3-0.1,0.3-0.3l0,0V5.8C97.5,5.7,97.4,5.5,97.2,5.5C97.2,5.5,97.2,5.5,97.2,5.5z"/>
<path id="icon-twitter" class="st1" d="M141.3,7.3c-0.6,0.3-1.2,0.6-1.8,0.7c-0.5-0.6-1.3-0.9-2.1-0.9c-1.6,0-2.9,1.3-2.9,2.9
	c0,0.2,0,0.5,0.1,0.7c-2.3-0.1-4.5-1.2-5.9-3.1c-0.8,1.3-0.4,3,0.9,3.9c-0.5,0-0.9-0.1-1.3-0.4v0c0,1.4,0.9,2.6,2.3,2.9
	c-0.4,0.1-0.9,0.1-1.3,0.1c0.4,1.2,1.4,2,2.7,2c-1,0.8-2.3,1.3-3.6,1.3c-0.2,0-0.5,0-0.7,0c1.3,0.9,2.8,1.3,4.4,1.3
	c4.5,0,8.2-3.7,8.2-8.3c0,0,0-0.1,0-0.1l0-0.4c0.6-0.4,1.1-0.9,1.4-1.5c-0.5,0.2-1.1,0.4-1.6,0.5C140.6,8.6,141,8,141.3,7.3z"/>
<path id="icon-linkedin" class="st2" d="M182.7,14.5v5.2h-3v-4.9c0-1.2-0.4-2.1-1.5-2.1c-0.7,0-1.3,0.4-1.5,1.1
	c-0.1,0.2-0.1,0.5-0.1,0.7v5.1h-3c0,0,0-8.2,0-9.1h3v1.3l0,0h0v0c0.5-1,1.6-1.5,2.7-1.5C181.2,10.4,182.7,11.7,182.7,14.5z
	 M170.4,6.2c-0.9-0.1-1.6,0.6-1.7,1.5c-0.1,0.9,0.6,1.6,1.5,1.7c0.1,0,0.1,0,0.2,0h0c0.9,0.1,1.6-0.6,1.7-1.4
	c0.1-0.9-0.6-1.6-1.4-1.7C170.6,6.2,170.5,6.2,170.4,6.2L170.4,6.2z M168.9,19.7h3v-9.1h-3V19.7z"/>
<g>
	<path d="M0.3,25.9C0.1,25.8,0,25.5,0,25.2c0-4,0-8,0-12.1c0-0.6,0.1-0.7,0.7-0.7c1.8,0,3.5,0,5.3,0c0.6,0,1.1,0.1,1.5,0.6
		c0.7-0.5,1.4-1,2-1.6c1-1.1,1.8-2.4,2.3-3.8c0.1-0.3,0.2-0.6,0.4-0.9c0.5-1.2,1.8-1.7,3-1.3c1.2,0.4,1.8,1.7,1.4,2.9
		c-0.4,1.3-0.9,2.5-1.3,3.8c0,0.1-0.1,0.2-0.1,0.3c0.1,0,0.2,0,0.3,0c1.7,0,3.4,0,5.1,0c0.9,0,1.7,0.4,2,1.2
		c0.4,0.9,0.2,1.6-0.5,2.3c0,0,0,0,0,0.1c0.4,0.4,0.7,0.9,0.7,1.5c0,0.6-0.2,1.1-0.7,1.6c0.4,0.4,0.7,0.9,0.7,1.6
		c0,0.6-0.2,1.1-0.7,1.6c0.1,0.1,0.1,0.1,0.1,0.2c1.1,1.2,0.5,3-1,3.4c0,0-0.1,0-0.1,0.1c-3.6,0-7.2,0-10.7,0
		c-0.3-0.1-0.6-0.1-0.9-0.2c-0.6-0.2-1.2-0.4-1.7-0.5c-0.2,0.4-0.6,0.6-1,0.7C4.5,25.9,2.4,25.9,0.3,25.9z M1,24.9c1.7,0,3.4,0,5,0
		c0.5,0,0.7-0.2,0.7-0.7c0-1,0-2,0-3c0-0.1,0-0.2,0-0.3c0.1-0.2,0.3-0.4,0.5-0.4c0.3,0,0.4,0.2,0.4,0.5c0,0.9,0,1.9,0,2.8
		c0,0.1,0,0.2,0.1,0.3c1.1,0.5,2.2,0.7,3.3,0.7c3,0,6.1,0,9.1,0c0.1,0,0.2,0,0.3,0c0.5,0,0.9-0.4,1-0.9c0.1-0.5-0.2-1-0.7-1.1
		c-0.1,0-0.3,0-0.4,0c-1.2,0-2.4,0-3.7,0c-0.4,0-0.6-0.2-0.6-0.5c0-0.3,0.2-0.5,0.7-0.5c0.3,0,0.6,0,1,0c0.9,0,1.9,0,2.8,0
		c0.6,0,1.1-0.5,1-1.1c0-0.5-0.5-0.9-1.1-1c-1.2,0-2.5,0-3.7,0c-0.1,0-0.2,0-0.3,0c-0.2-0.1-0.4-0.3-0.3-0.6c0-0.2,0.3-0.4,0.5-0.4
		c1.3,0,2.6,0,3.8,0c0.4,0,0.7-0.1,0.9-0.5c0.2-0.3,0.2-0.7,0-1.1c-0.2-0.3-0.5-0.5-0.9-0.5c-1.3,0-2.5,0-3.8,0c-0.1,0-0.2,0-0.3,0
		c-0.2-0.1-0.4-0.3-0.4-0.5c0-0.2,0.1-0.4,0.4-0.5c0.1,0,0.2,0,0.4,0c1.2,0,2.5,0,3.7,0c0.4,0,0.7-0.2,0.9-0.5
		c0.2-0.4,0.2-0.7,0-1.1c-0.2-0.4-0.6-0.5-1-0.5c-2,0-3.9,0-5.9,0c-0.1,0-0.2,0-0.3,0c-0.3,0-0.5-0.3-0.4-0.6c0-0.1,0.1-0.2,0.1-0.3
		c0.5-1.5,1.1-2.9,1.6-4.4c0.3-0.7-0.1-1.5-0.8-1.7c-0.7-0.3-1.5,0.1-1.8,0.8c-0.1,0.3-0.2,0.5-0.3,0.8c-0.9,2.5-2.5,4.5-4.8,6
		c-0.1,0.1-0.2,0.2-0.2,0.3c0,0.8,0,1.7,0,2.5c0,0.4-0.2,0.6-0.5,0.6c-0.3,0-0.5-0.2-0.5-0.6c0-0.9,0-1.7,0-2.6
		c0-0.6-0.2-0.8-0.8-0.8c-1.6,0-3.2,0-4.7,0c-0.1,0-0.2,0-0.3,0C1,17.3,1,21.1,1,24.9z"/>
	<path d="M14.9,1.7c0,0.4,0,0.8,0,1.2c0,0.4-0.2,0.6-0.5,0.6c-0.3,0-0.5-0.2-0.5-0.6c0-0.8,0-1.5,0-2.3c0-0.3,0.2-0.6,0.5-0.6
		c0.3,0,0.5,0.2,0.5,0.6C14.9,0.9,14.9,1.3,14.9,1.7z"/>
	<path d="M9.9,3c0.1-0.1,0.2-0.3,0.3-0.4c0.1-0.1,0.4,0,0.5,0c0.4,0.3,0.7,0.7,1.1,1.1C12,4,12,4.3,11.8,4.4c-0.2,0.2-0.5,0.2-0.7,0
		c-0.4-0.3-0.7-0.7-1.1-1.1C10,3.3,10,3.2,9.9,3z"/>
	<path d="M18.3,2.5c0.1,0.1,0.3,0.2,0.4,0.3c0.1,0.2,0.1,0.4,0,0.5c-0.4,0.4-0.7,0.7-1.1,1.1c-0.2,0.2-0.5,0.1-0.7,0
		c-0.2-0.2-0.2-0.5,0-0.7C17.3,3.4,17.6,3,18,2.7C18.1,2.6,18.2,2.6,18.3,2.5z"/>
	<path d="M3.3,22.7c0-0.3,0.2-0.5,0.5-0.5c0.3,0,0.5,0.2,0.5,0.5c0,0.3-0.2,0.5-0.5,0.5C3.5,23.2,3.3,23,3.3,22.7z"/>
	<path d="M7.8,19.1c0,0.3-0.2,0.5-0.5,0.5c-0.3,0-0.5-0.2-0.5-0.5c0-0.3,0.2-0.5,0.5-0.5C7.6,18.6,7.8,18.8,7.8,19.1z"/>
</g>
<g>
	<g>
		<path class="st3" d="M43.4,25.9c-0.3-0.2-0.3-0.4-0.3-0.7c0-4,0-8,0-12.1c0-0.6,0.1-0.7,0.7-0.7c1.8,0,3.5,0,5.3,0
			c0.6,0,1.1,0.1,1.5,0.6c0.7-0.5,1.4-1,2-1.6c1-1.1,1.8-2.4,2.3-3.8c0.1-0.3,0.2-0.6,0.4-0.9c0.5-1.2,1.8-1.7,3-1.3
			c1.2,0.4,1.8,1.7,1.4,2.9c-0.4,1.3-0.9,2.5-1.3,3.8c0,0.1-0.1,0.2-0.1,0.3c0.1,0,0.2,0,0.3,0c1.7,0,3.4,0,5.1,0
			c0.9,0,1.7,0.4,2,1.2c0.4,0.9,0.2,1.6-0.5,2.3c0,0,0,0,0,0.1c0.4,0.4,0.7,0.9,0.7,1.5c0,0.6-0.2,1.1-0.7,1.6
			c0.4,0.4,0.7,0.9,0.7,1.6c0,0.6-0.2,1.1-0.7,1.6c0.1,0.1,0.1,0.1,0.1,0.2c1.1,1.2,0.5,3-1,3.4c0,0-0.1,0-0.1,0.1
			c-3.6,0-7.2,0-10.7,0c-0.3-0.1-0.6-0.1-0.9-0.2c-0.6-0.2-1.2-0.4-1.7-0.5c-0.2,0.4-0.6,0.6-1,0.7C47.6,25.9,45.5,25.9,43.4,25.9z
			 M44.1,24.9c1.7,0,3.4,0,5,0c0.5,0,0.7-0.2,0.7-0.7c0-1,0-2,0-3c0-0.1,0-0.2,0-0.3c0.1-0.2,0.3-0.4,0.5-0.4c0.3,0,0.4,0.2,0.4,0.5
			c0,0.9,0,1.9,0,2.8c0,0.1,0,0.2,0.1,0.3c1.1,0.5,2.2,0.7,3.3,0.7c3,0,6.1,0,9.1,0c0.1,0,0.2,0,0.3,0c0.5,0,0.9-0.4,1-0.9
			c0.1-0.5-0.2-1-0.7-1.1c-0.1,0-0.3,0-0.4,0c-1.2,0-2.4,0-3.7,0c-0.4,0-0.6-0.2-0.6-0.5c0-0.3,0.2-0.5,0.7-0.5c0.3,0,0.6,0,1,0
			c0.9,0,1.9,0,2.8,0c0.6,0,1.1-0.5,1-1.1c0-0.5-0.5-0.9-1.1-1c-1.2,0-2.5,0-3.7,0c-0.1,0-0.2,0-0.3,0c-0.2-0.1-0.4-0.3-0.3-0.6
			c0-0.2,0.3-0.4,0.5-0.4c1.3,0,2.6,0,3.8,0c0.4,0,0.7-0.1,0.9-0.5c0.2-0.3,0.2-0.7,0-1.1c-0.2-0.3-0.5-0.5-0.9-0.5
			c-1.3,0-2.5,0-3.8,0c-0.1,0-0.2,0-0.3,0c-0.2-0.1-0.4-0.3-0.4-0.5c0-0.2,0.1-0.4,0.4-0.5c0.1,0,0.2,0,0.4,0c1.2,0,2.5,0,3.7,0
			c0.4,0,0.7-0.2,0.9-0.5c0.2-0.4,0.2-0.7,0-1.1c-0.2-0.4-0.6-0.5-1-0.5c-2,0-3.9,0-5.9,0c-0.1,0-0.2,0-0.3,0
			c-0.3,0-0.5-0.3-0.4-0.6c0-0.1,0.1-0.2,0.1-0.3c0.5-1.5,1.1-2.9,1.6-4.4c0.3-0.7-0.1-1.5-0.8-1.7c-0.7-0.3-1.5,0.1-1.8,0.8
			C56,7.5,55.9,7.8,55.8,8c-0.9,2.5-2.5,4.5-4.8,6c-0.1,0.1-0.2,0.2-0.2,0.3c0,0.8,0,1.7,0,2.5c0,0.4-0.2,0.6-0.5,0.6
			c-0.3,0-0.5-0.2-0.5-0.6c0-0.9,0-1.7,0-2.6c0-0.6-0.2-0.8-0.8-0.8c-1.6,0-3.2,0-4.7,0c-0.1,0-0.2,0-0.3,0
			C44.1,17.3,44.1,21.1,44.1,24.9z"/>
		<path class="st3" d="M58,1.7c0,0.4,0,0.8,0,1.2c0,0.4-0.2,0.6-0.5,0.6c-0.3,0-0.5-0.2-0.5-0.6c0-0.8,0-1.5,0-2.3
			c0-0.3,0.2-0.6,0.5-0.6C57.8,0,58,0.2,58,0.6C58,0.9,58,1.3,58,1.7z"/>
		<path class="st3" d="M53,3c0.1-0.1,0.2-0.3,0.3-0.4c0.1-0.1,0.4,0,0.5,0c0.4,0.3,0.7,0.7,1.1,1.1c0.2,0.2,0.1,0.5,0,0.7
			c-0.2,0.2-0.5,0.2-0.7,0c-0.4-0.3-0.7-0.7-1.1-1.1C53.1,3.3,53,3.2,53,3z"/>
		<path class="st3" d="M61.4,2.5c0.1,0.1,0.3,0.2,0.4,0.3c0.1,0.2,0.1,0.4,0,0.5c-0.4,0.4-0.7,0.7-1.1,1.1c-0.2,0.2-0.5,0.1-0.7,0
			c-0.2-0.2-0.2-0.5,0-0.7c0.3-0.4,0.7-0.7,1.1-1.1C61.2,2.6,61.3,2.6,61.4,2.5z"/>
		<path class="st3" d="M46.4,22.7c0-0.3,0.2-0.5,0.5-0.5c0.3,0,0.5,0.2,0.5,0.5c0,0.3-0.2,0.5-0.5,0.5C46.6,23.2,46.4,23,46.4,22.7z
			"/>
		<path class="st3" d="M50.9,19.1c0,0.3-0.2,0.5-0.5,0.5c-0.3,0-0.5-0.2-0.5-0.5c0-0.3,0.2-0.5,0.5-0.5
			C50.7,18.6,50.9,18.8,50.9,19.1z"/>
	</g>
</g>
<g id="icon-cmarix">
	<path id="XMLID_940_" class="st4" d="M221.6,5.9c-3.9,0-7.1,6-7.1,7.1c0,1,3.1,7.1,7.1,7.1c3.9,0,6.2-3.3,6.2-7.1
		C227.8,9.1,225.4,5.9,221.6,5.9z"/>
	<path id="XMLID_941_" class="st4" d="M208.8,16.3c-1.8-0.2-3.2-1.8-3-3.6c0.1-1.6,1.4-2.9,3-3c1.4,0,3.5,2.1,3.5,3.3
		C212.4,14.1,210.2,16.3,208.8,16.3z"/>
	<path id="XMLID_942_" class="st4" d="M221.6,21.7c-3.6,0-6.6-3.6-7.9-6.3l-0.1-0.1c-0.1-0.2-0.2-0.3-0.3-0.3
		c-0.1,0-0.1,0.1-0.2,0.1c-1,1.5-2.8,2.8-4.3,2.8c1.9,3.6,5.5,5.8,9.6,5.8c3.3,0,6.5-1.5,8.5-4.2C225.5,20.9,223.6,21.7,221.6,21.7z
		"/>
	<path id="XMLID_943_" class="st4" d="M213.2,10.8L213.2,10.8c0.1,0.1,0.1,0.2,0.2,0.2l0,0c0.1,0,0.2-0.2,0.4-0.6l0,0
		c1.4-2.6,4.3-6.1,7.9-6.1c2,0,3.9,0.7,5.3,2.1c-3.6-4.7-10.4-5.5-15.1-1.9c-1.2,1-2.2,2.2-2.9,3.5C210.3,8,212.1,9.3,213.2,10.8z"
		/>
</g>
<path id="icon-home" class="st4" d="M267.5,11.6l-8.7-7.9c-0.5-0.4-1.2-0.4-1.7,0l-8.7,7.9c-0.5,0.5-0.6,1.3-0.1,1.8l0,0
	c0.2,0.3,0.6,0.4,1,0.4c0.3,0,0.6-0.1,0.9-0.3l7.8-7.1l7.8,7.1c0.5,0.5,1.4,0.4,1.8-0.1C268,12.8,268,12,267.5,11.6L267.5,11.6z
	 M251,13.8v8.1c0,0.2,0.1,0.5,0.4,0.6c0.2,0.1,0.4,0.1,0.6,0.1h12c0.2,0,0.4,0,0.5-0.1c0.2-0.1,0.4-0.3,0.4-0.6v-8.1l-6.9-6.3
	L251,13.8z M255.1,13.2h5.7v3.9h-5.7V13.2z M249.7,4.3l5.3,0.2l-5,4.8L249.7,4.3z"/>
</svg>
