<?xml version="1.0" encoding="utf-8"?>
<!-- Generator: Adobe Illustrator 25.2.1, SVG Export Plug-In . SVG Version: 6.00 Build 0)  -->
<svg version="1.1" id="Layer_1" xmlns="http://www.w3.org/2000/svg" xmlns:xlink="http://www.w3.org/1999/xlink" x="0px" y="0px"
	 width="350px" height="110px" viewBox="0 0 350 110" enable-background="new 0 0 350 110" xml:space="preserve">
<g display="none">
	<rect display="inline" fill="#EBEBEC" width="50" height="50"/>
</g>
<g display="none">
	<rect x="60" display="inline" fill="#EBEBEC" width="50" height="50"/>
</g>
<g display="none">
	<rect x="120" display="inline" fill="#EBEBEC" width="50" height="50"/>
</g>
<g display="none">
	<rect x="180" display="inline" fill="#EBEBEC" width="50" height="50"/>
</g>
<g display="none">
	<rect x="240" display="inline" fill="#EBEBEC" width="50" height="50"/>
</g>
<g display="none">
	<rect x="300" display="inline" fill="#EBEBEC" width="50" height="50"/>
</g>
<g display="none">
	<rect y="60" display="inline" fill="#EBEBEC" width="50" height="50"/>
</g>
<g display="none">
	<rect x="60" y="60" display="inline" fill="#EBEBEC" width="50" height="50"/>
</g>
<g display="none">
	<rect x="120" y="60" display="inline" fill="#EBEBEC" width="50" height="50"/>
</g>
<g display="none">
	<rect x="180" y="60" display="inline" fill="#EBEBEC" width="50" height="50"/>
</g>
<g display="none">
	<rect x="240" y="60" display="inline" fill="#EBEBEC" width="50" height="50"/>
</g>
<g display="none">
	<rect x="300" y="60" display="inline" fill="#EBEBEC" width="50" height="50"/>
</g>
<g transform="translate(1.5)">
	<path fill="#F4A297" d="M31.2,27.2l1.5,3.3H17.6l-2.2-11.2l7.9-0.1h7.9V27.2z"/>
	<path fill="#F05144" d="M28.3,16.6h-1.8l-0.9-1.5l0.9-1.6h1.8l0.9,1.5L28.3,16.6z"/>
	<path fill="#F05144" d="M31,16.3h-0.8l-0.4-0.7l0.4-0.7H31l0.4,0.7L31,16.3z"/>
	<path fill="#F05144" d="M15.3,30.7l-1.4-0.5l-0.3-1.4l1.1-1l1.4,0.5l0.3,1.5L15.3,30.7z"/>
	<path fill="#F05144" d="M33.8,33.5H33l-0.4-0.7l0.4-0.7h0.8l0.4,0.7L33.8,33.5z"/>
	<g transform="translate(45.054 101.85)">
		<g transform="matrix(1, 0, 0, 1, -46.55, -101.85)">
			<path fill="#010101" d="M23,32.2c-1.2,0-2.2,1-2.2,2.2s1,2.2,2.2,2.2s2.2-1,2.2-2.2C25.2,33.1,24.2,32.2,23,32.2z M23,35.3
				c-0.5,0-1-0.4-1-1s0.4-1,1-1c0.5,0,1,0.4,1,1C24,34.9,23.5,35.3,23,35.3z"/>
		</g>
	</g>
	<g transform="translate(86.972 101.85)">
		<g transform="matrix(1, 0, 0, 1, -88.47, -101.85)">
			<path fill="#010101" d="M30.7,32.2c-1.2,0-2.2,1-2.2,2.2s1,2.2,2.2,2.2s2.2-1,2.2-2.2C32.9,33.1,31.9,32.2,30.7,32.2z M30.7,35.3
				c-0.5,0-1-0.4-1-1s0.4-1,1-1c0.5,0,1,0.4,1,1C31.7,34.9,31.2,35.3,30.7,35.3z"/>
		</g>
	</g>
	<g transform="translate(50.715 38.926)">
		<path fill="#010101" d="M-21-18.3h-8.8c-0.3,0-0.6,0.3-0.6,0.6c0,0.3,0.3,0.6,0.6,0.6l0,0h8.8c0.3,0,0.6-0.3,0.6-0.6
			C-20.4-18.1-20.6-18.3-21-18.3L-21-18.3z"/>
	</g>
	<g transform="translate(53.335 56.236)">
		<path fill="#010101" d="M-24.1-32.5h-7.8c-0.3,0-0.6,0.3-0.6,0.6c0,0.3,0.3,0.6,0.6,0.6h7.8c0.3,0,0.6-0.3,0.6-0.6
			C-23.5-32.2-23.8-32.5-24.1-32.5z"/>
	</g>
	<g transform="translate(0 0)">
		<g transform="translate(0)">
			<g transform="matrix(1, 0, 0, 1, -1.5, 0)">
				<path fill="#010101" d="M37.2,17.9c-0.2-0.3-0.6-0.5-1-0.5h-19l-0.4-1.9c-0.1-0.4-0.3-0.7-0.7-0.9l-2.7-1.2
					c-0.3-0.1-0.7,0-0.8,0.3s0,0.7,0.3,0.8l0,0l2.7,1.2l3,14.4c0.1,0.6,0.6,1,1.2,1h14.7c0.3,0,0.6-0.3,0.6-0.6
					c0-0.3-0.3-0.6-0.6-0.6H19.7l-0.4-1.8h15.2c0.6,0,1.1-0.4,1.2-1l1.7-8.3C37.6,18.5,37.5,18.1,37.2,17.9z M34.6,27H19.1l-1.7-8.3
					h18.9L34.6,27z"/>
			</g>
		</g>
	</g>
</g>
<g transform="translate(-1.5 -7.7)">
	<path fill="#F37B7C" d="M78.9,34c0,0-2.7-12.4,8.7-6.9c0,0,4.2-2.8,7.2-0.8c3,1.9-0.7,10.7-7.3,13.9C83.8,39.6,80.6,37.3,78.9,34z"
		/>
	<path opacity="0.16" fill="#010101" enable-background="new    " d="M98.5,32.1c0,0.7-0.1,1.3-0.3,1.9c-1,4.4-9.5,9.8-9.8,10.1
		c-0.2,0.1-0.5,0.1-0.7,0c-1.7-1.1-3.4-2.3-4.9-3.6c-0.3-0.3-0.3-0.7-0.1-1c0.3-0.3,0.7-0.3,1-0.1l0,0c1.4,1.2,2.9,2.3,4.4,3.3
		c2.6-1.7,8.2-5.9,8.9-9c0.2-0.5,0.3-1,0.3-1.6c0-1.8-1-3.4-2.5-4.3c-2.1-1.1-4.6-0.6-6.1,1.2c-0.3,0.3-0.7,0.3-1,0.1
		c0,0,0,0-0.1-0.1c-1.5-1.8-4-2.2-6.1-1.2c-1.6,0.8-2.5,2.5-2.5,4.3c0,0.5,0.1,1,0.3,1.5c0.1,0.5,0.3,0.9,0.6,1.4h4l1.4-3.2
		c0.1-0.3,0.4-0.4,0.7-0.4c0.3,0,0.5,0.2,0.6,0.5l1,4.3l1.3-2.1c0.1-0.2,0.3-0.3,0.6-0.3H92c0.4,0,0.7,0.3,0.7,0.7l0,0
		c0,0.4-0.3,0.7-0.7,0.7h-2.1l-2,3.2c-0.1,0.2-0.3,0.3-0.6,0.3H87c-0.3,0-0.5-0.2-0.6-0.5l-0.9-3.9L84.8,36
		c-0.1,0.3-0.3,0.4-0.6,0.4H76c-0.4,0-0.7-0.3-0.7-0.7S75.6,35,76,35l0,0h2c-0.1-0.3-0.2-0.7-0.3-1c-0.2-0.6-0.3-1.2-0.3-1.9
		c0-2.3,1.2-4.4,3.2-5.5c2.4-1.3,5.3-0.9,7.3,0.9c2-1.8,4.9-2.2,7.3-0.9C97.3,27.7,98.5,29.8,98.5,32.1z"/>
	<path fill="#010101" d="M98.5,31.1c0,0.7-0.1,1.3-0.3,1.9c-1,4.4-9.5,9.8-9.8,10.1c-0.2,0.1-0.5,0.1-0.7,0
		c-1.7-1.1-3.4-2.3-4.9-3.6c-0.3-0.3-0.3-0.7-0.1-1c0.3-0.3,0.7-0.3,1-0.1l0,0c1.4,1.2,2.9,2.3,4.4,3.3c2.6-1.7,8.2-5.9,8.9-9
		c0.2-0.5,0.3-1,0.3-1.6c0-1.8-1-3.4-2.5-4.3c-2.1-1.1-4.6-0.6-6.1,1.2c-0.3,0.3-0.7,0.3-1,0.1c0,0,0,0-0.1-0.1
		c-1.5-1.8-4-2.2-6.1-1.2c-1.6,0.8-2.5,2.5-2.5,4.3c0,0.5,0.1,1,0.3,1.5c0.1,0.5,0.3,0.9,0.6,1.4h4l1.4-3.2c0.1-0.3,0.4-0.4,0.7-0.4
		c0.3,0,0.5,0.2,0.6,0.5l1,4.3l1.3-2.1c0.1-0.2,0.3-0.3,0.6-0.3H92c0.4,0,0.7,0.3,0.7,0.7l0,0c0,0.4-0.3,0.7-0.7,0.7h-2.1l-2,3.2
		c-0.1,0.2-0.3,0.3-0.6,0.3H87c-0.3,0-0.5-0.2-0.6-0.5l-0.9-3.9L84.8,35c-0.1,0.3-0.3,0.4-0.6,0.4H76c-0.4,0-0.7-0.3-0.7-0.7
		S75.6,34,76,34l0,0h2c-0.1-0.3-0.2-0.7-0.3-1c-0.2-0.6-0.3-1.2-0.3-1.9c0-2.3,1.2-4.4,3.2-5.5c2.4-1.3,5.3-0.9,7.3,0.9
		c2-1.8,4.9-2.2,7.3-0.9C97.3,26.7,98.5,28.8,98.5,31.1z"/>
	<path fill="#F37B7C" d="M98.4,24.6h-1.1L96.7,24v-1.1l0.6-0.6h1.1l0.6,0.6V24L98.4,24.6z"/>
	<path fill="#F37B7C" d="M96.3,25.4h-0.4l-0.3-0.3v-0.4l0.3-0.3h0.4l0.3,0.3v0.4C96.5,25.2,96.4,25.3,96.3,25.4z"/>
	<path fill="#F37B7C" d="M75.8,30.5h-1.1L74,29.8v-1.1l0.6-0.6h1.1l0.6,0.6v1.1C76.1,30.1,76,30.3,75.8,30.5z"/>
	<path fill="#F37B7C" d="M76.6,31.5h-0.4l-0.3-0.3v-0.4l0.3-0.3h0.4l0.3,0.3v0.4C76.8,31.3,76.7,31.4,76.6,31.5z"/>
</g>
<g transform="translate(-31.781 -29.4)">
	<path fill="#ADBEE0" d="M166.2,55.5l9.5-10.5l5.1,5.3v12.2h-12.6v-5.3C168.2,57.2,168.3,56.5,166.2,55.5z"/>
	<g opacity="0.16">
		<path fill="#010101" d="M181.7,66.4c-0.9,0-1.8-0.2-2.5-0.6c-1-0.5-2.1-0.8-3.2-0.8c-1.1,0-2.2,0.2-3.2,0.8
			c-0.8,0.4-1.6,0.7-2.5,0.6c-0.9,0-1.8-0.2-2.5-0.6c-1-0.5-2.1-0.8-3.2-0.8v1.4c0.9,0,1.8,0.2,2.5,0.6c1,0.5,2.1,0.8,3.2,0.8
			c1.1,0,2.2-0.2,3.2-0.8c0.8-0.4,1.6-0.7,2.5-0.6c0.9,0,1.8,0.2,2.5,0.6c2,1,4.3,1,6.3,0c0.8-0.4,1.6-0.7,2.5-0.6V65
			c-1,0-2.1,0.3-3.1,0.8C183.4,66.2,182.6,66.5,181.7,66.4z"/>
		<path fill="#010101" d="M165.4,58h2.1v6.3c0.1,0,0.2,0.1,0.3,0.2c0.4,0.2,0.7,0.3,1.1,0.5v-7.6c0-0.4-0.3-0.7-0.7-0.7H167l9-9.6
			l9,9.6h-1.2c-0.4,0-0.7,0.3-0.7,0.7V65c0.4-0.1,0.8-0.3,1.1-0.5c0.1,0,0.2-0.1,0.3-0.2V58h2.1c0.4,0,0.7-0.3,0.7-0.7
			c0-0.2-0.1-0.4-0.2-0.5l-2.6-2.8v-7.3h-4.3v2.7l-3.7-4c-0.3-0.3-0.7-0.3-1,0l-10.7,11.4c-0.3,0.3-0.3,0.7,0,1
			C165,57.9,165.2,58,165.4,58z M181.7,48h1.4v4.4l-1.4-1.5V48z"/>
	</g>
	<g>
		<path fill="#010101" d="M181.7,65.4c-0.9,0-1.8-0.2-2.5-0.6c-1-0.5-2.1-0.8-3.2-0.8c-1.1,0-2.2,0.2-3.2,0.8
			c-0.8,0.4-1.6,0.7-2.5,0.6c-0.9,0-1.8-0.2-2.5-0.6c-1-0.5-2.1-0.8-3.2-0.8v1.4c0.9,0,1.8,0.2,2.5,0.6c1,0.5,2.1,0.8,3.2,0.8
			c1.1,0,2.2-0.2,3.2-0.8c0.8-0.4,1.6-0.7,2.5-0.6c0.9,0,1.8,0.2,2.5,0.6c2,1,4.3,1,6.3,0c0.8-0.4,1.6-0.7,2.5-0.6V64
			c-1,0-2.1,0.3-3.1,0.8C183.4,65.2,182.6,65.5,181.7,65.4z"/>
		<path fill="#010101" d="M165.4,57h2.1v6.3c0.1,0,0.2,0.1,0.3,0.2c0.4,0.2,0.7,0.3,1.1,0.5v-7.6c0-0.4-0.3-0.7-0.7-0.7H167l9-9.6
			l9,9.6h-1.2c-0.4,0-0.7,0.3-0.7,0.7V64c0.4-0.1,0.8-0.3,1.1-0.5c0.1,0,0.2-0.1,0.3-0.2V57h2.1c0.4,0,0.7-0.3,0.7-0.7
			c0-0.2-0.1-0.4-0.2-0.5l-2.6-2.8v-7.3h-4.3v2.7l-3.7-4c-0.3-0.3-0.7-0.3-1,0l-10.7,11.4c-0.3,0.3-0.3,0.7,0,1
			C165,56.9,165.2,57,165.4,57z M181.7,47h1.4v4.4l-1.4-1.5V47z"/>
	</g>
	<g transform="translate(52.236 59.673)">
		<rect x="121.1" y="-4.3" fill="#FFFFFF" width="5.3" height="7.1"/>
		<path fill="#010101" d="M126.9,3.4h-6.4v-8.2h6.4V3.4L126.9,3.4z M121.6,2.3h4.2v-6h-4.2V2.3z"/>
	</g>
	<path fill="#8296CC" d="M166.9,52.5h-0.4c0-0.5-0.4-0.8-0.8-0.8l0,0v-0.4c0.5,0,0.8-0.4,0.8-0.8l0,0h0.4c0,0.5,0.4,0.8,0.8,0.8l0,0
		v0.4C167.3,51.6,166.9,52,166.9,52.5L166.9,52.5z"/>
	<path fill="#8296CC" d="M188.1,62.4h-1.5c0-0.5-0.4-0.8-0.8-0.8l0,0v-1.5c0.5,0,0.8-0.4,0.8-0.8l0,0h1.5c0,0.5,0.4,0.8,0.8,0.8l0,0
		v1.5C188.5,61.6,188.1,62,188.1,62.4z"/>
	<path fill="#8296CC" d="M182.6,44h-0.4c0-0.5-0.4-0.8-0.8-0.8l0,0v-0.4c0.5,0,0.8-0.4,0.8-0.8l0,0h0.4c0,0.5,0.4,0.8,0.8,0.8l0,0
		v0.4C183,43.2,182.6,43.5,182.6,44L182.6,44z"/>
	<path fill="#8296CC" d="M181.4,45.5h-0.1c0-0.5-0.4-0.8-0.8-0.8l0,0v-0.1c0.5,0,0.8-0.4,0.8-0.8l0,0h0.1c0,0.5,0.4,0.8,0.8,0.8l0,0
		v0.1C181.8,44.7,181.4,45,181.4,45.5z"/>
</g>
<g>
	<ellipse fill="#AFB0B2" cx="204.7" cy="25.6" rx="9.1" ry="8.7"/>
	<g transform="translate(6.422 7.07)">
		<path fill="#010101" d="M210,28.4h-10.7c-5.9,0-10.7-4.8-10.7-10.7S193.4,7,199.3,7S210,11.8,210,17.7l0,0l0,0c0,3-1.3,5.9-3.6,8
			h3.6V28.4z M199.3,8.1c-5.3,0-9.7,4.3-9.7,9.7c0,5.3,4.3,9.7,9.7,9.7h9.7v-0.7h-5.7l1.4-0.9c4.4-3,5.7-8.9,2.7-13.4
			C205.6,9.7,202.5,8.1,199.3,8.1z M195.8,25.6c-0.6,0-1.3-0.2-1.8-0.6c-0.7-0.5-1.1-1.2-1.2-2c-0.1-0.8,0.1-1.6,0.5-2.3
			c0.5-0.7,1.2-1.1,2-1.2c1.7-0.3,3.2,0.9,3.5,2.5c0.1,0.8-0.1,1.6-0.5,2.3l0,0c-0.5,0.7-1.2,1.1-2,1.2
			C196.1,25.6,196,25.6,195.8,25.6z M195.8,20.5c-0.1,0-0.2,0-0.3,0c-0.5,0.1-1,0.4-1.3,0.8s-0.4,1-0.4,1.5c0.1,0.5,0.4,1,0.8,1.3
			c0.4,0.3,1,0.4,1.5,0.4c0.5-0.1,1-0.4,1.3-0.8l0,0c0.7-0.9,0.5-2.2-0.5-2.8l0,0C196.7,20.7,196.2,20.5,195.8,20.5z M202.8,25.6
			c-0.2,0-0.3,0-0.5,0c-1.7-0.3-2.8-1.8-2.5-3.5s1.8-2.8,3.5-2.5c0.8,0.1,1.5,0.6,2,1.2s0.7,1.5,0.5,2.3c-0.1,0.8-0.6,1.5-1.2,2l0,0
			C204.1,25.4,203.4,25.6,202.8,25.6z M202.8,20.5c-0.4,0-0.8,0.1-1.2,0.4c-0.9,0.7-1.1,1.9-0.5,2.8c0.3,0.4,0.8,0.7,1.3,0.8
			c0.5,0.1,1.1,0,1.5-0.4l0,0c0.4-0.3,0.7-0.8,0.8-1.3c0.2-1.1-0.6-2.2-1.7-2.3C203,20.5,202.9,20.5,202.8,20.5L202.8,20.5z
			 M199.3,19.1c-0.7,0-1.4-0.6-1.4-1.4c0-0.7,0.6-1.4,1.4-1.4c0.7,0,1.4,0.6,1.4,1.4C200.6,18.5,200,19.1,199.3,19.1L199.3,19.1z
			 M199.3,17.4c-0.2,0-0.3,0.2-0.3,0.3c0,0.2,0.2,0.3,0.3,0.3c0.2,0,0.3-0.2,0.3-0.3l0,0C199.6,17.6,199.5,17.4,199.3,17.4
			L199.3,17.4L199.3,17.4z M204.9,19c-1.7,0-3.1-1.4-3.1-3c0-1.7,1.4-3.1,3-3.1c1.7,0,3.1,1.4,3.1,3c0,1.3-0.8,2.5-2.1,2.9
			C205.6,18.9,205.3,19,204.9,19L204.9,19z M204.9,13.9c-0.2,0-0.4,0-0.6,0.1l0,0c-1.1,0.3-1.7,1.5-1.3,2.6c0.3,1.1,1.5,1.7,2.6,1.3
			c1.1-0.3,1.7-1.5,1.3-2.6C206.6,14.5,205.8,13.9,204.9,13.9L204.9,13.9z M193.6,19c-0.3,0-0.6,0-0.9-0.2c-1.6-0.5-2.5-2.2-2-3.8
			l0,0c0.5-1.6,2.2-2.5,3.8-2s2.5,2.2,2,3.8C196.1,18.1,195,19,193.6,19L193.6,19z M191.7,15.3c-0.3,1.1,0.2,2.2,1.3,2.6
			c1.1,0.3,2.2-0.2,2.6-1.3c0.3-1.1-0.2-2.2-1.3-2.6C193.2,13.6,192.1,14.2,191.7,15.3L191.7,15.3z M199.3,14.9
			c-1.7,0-3.1-1.4-3.1-3.1s1.4-3.1,3.1-3.1c1.7,0,3.1,1.4,3.1,3.1l0,0C202.3,13.5,201,14.9,199.3,14.9z M199.3,9.8c-1.1,0-2,0.9-2,2
			s0.9,2,2,2s2-0.9,2-2l0,0C201.3,10.7,200.4,9.8,199.3,9.8L199.3,9.8z"/>
	</g>
	<ellipse fill="#7A7B7B" cx="215" cy="14" rx="1.5" ry="1.5"/>
	<ellipse fill="#7A7B7B" cx="195" cy="36" rx="1.5" ry="1.5"/>
	<ellipse fill="#7A7B7B" cx="214" cy="16.5" rx="0.7" ry="0.7"/>
	<ellipse fill="#7A7B7B" cx="197" cy="33.8" rx="0.7" ry="0.7"/>
	<ellipse fill="#7A7B7B" cx="215.6" cy="31.3" rx="0.7" ry="0.7"/>
</g>
<g transform="translate(0.856)">
	<path fill="#F9D180" d="M253.7,27.6l2.7-1.2l1.2,2l4.2-1.4l3.4-0.4l3.2,1.1c0,0,1.8,3.4-4.2,1.2l2.3,4.2c0,0-4.5-2.2-7.4-1.7
		c-3.1,0.6-0.4-0.7-0.4-0.7l0.7,1.7l-6.1,3.1v-7.6L253.7,27.6z"/>
	<ellipse fill="#F9D180" cx="270" cy="21.6" rx="3.9" ry="3.7"/>
	<g>
		<path d="M256.4,31.7c0.3,0,0.5-0.2,0.5-0.5c0-0.3-0.2-0.5-0.5-0.5c-0.3,0-0.5,0.2-0.5,0.5C256,31.5,256.2,31.7,256.4,31.7z"/>
		<path d="M274,24.9c-0.4,0-0.7,0.3-0.7,0.7s0.3,0.7,0.7,0.7c0.4,0,0.7-0.3,0.7-0.7S274.3,24.9,274,24.9z"/>
		<path d="M267.9,21.3h0.8c0.1,0,0.2,0.1,0.2,0.2c0,0.3,0.3,0.6,0.6,0.6s0.6-0.3,0.6-0.6c0-0.7-0.5-1.3-1.2-1.4v-0.2
			c0-0.3-0.3-0.6-0.6-0.6s-0.6,0.3-0.6,0.6V20c-0.7,0.1-1.2,0.8-1.2,1.5v0.4c0,0.8,0.7,1.5,1.5,1.5h0.7c0.1,0,0.2,0.1,0.2,0.2v0.4
			c0,0.1-0.1,0.2-0.2,0.2h-0.8c-0.1,0-0.2-0.1-0.2-0.2c0-0.3-0.3-0.6-0.6-0.6s-0.6,0.3-0.6,0.6c0,0.7,0.5,1.3,1.2,1.4v0.2
			c0,0.3,0.3,0.6,0.6,0.6c0.3,0,0.6-0.3,0.6-0.6v-0.2c0.7-0.1,1.2-0.8,1.2-1.5v-0.4c0-0.8-0.7-1.5-1.5-1.5h-0.7
			c-0.1,0-0.2-0.1-0.2-0.2v-0.4C267.7,21.4,267.8,21.3,267.9,21.3z"/>
		<path d="M275.5,28.6c0,0,0-0.1-0.1-0.1c-0.2-0.5-0.5-1.3-1-1.4c-0.5-0.2-1-0.2-1.5,0l-2.9,1.3c0,0,0,0,0,0
			c-0.3,0.2-0.4,0.5-0.3,0.8c0.2,0.3,0.5,0.4,0.8,0.3l2.9-1.3c0.2-0.1,0.3-0.1,0.5,0c0.2,0.1,0.3,0.2,0.4,0.4c0.1,0.3,0,0.7-0.3,0.9
			l-5.9,2.6c-0.9,0.4-1.9,0.4-2.7-0.1l-2.2-1.1c-1.2-0.6-2.5-0.6-3.7-0.1l-1.5-3.3l2.1-0.9c1-0.5,2.2-0.5,3.2-0.1l4.3,1.6
			c0.3,0.1,0.5,0.4,0.4,0.8c-0.1,0.3-0.4,0.5-0.8,0.4l-3.4-1.1c-0.3-0.1-0.7,0.1-0.8,0.4c-0.1,0.2,0,0.3,0,0.5
			c0.1,0.1,0.2,0.3,0.4,0.3l3.4,1.1c1,0.3,2-0.2,2.4-1.1c0.3-1-0.2-2-1.1-2.4l-4.3-1.6c-0.3-0.1-0.5-0.2-0.8-0.2v-2.4
			c0-2.4,1.9-4.4,4.4-4.4h1.7c2.4,0,4.4,2,4.4,4.4v1.2c0,0,0,0,0,0c0,0.3,0.3,0.6,0.6,0.6s0.6-0.3,0.6-0.6v-1.2
			c0-2.6-1.8-4.9-4.4-5.5V16l1.1-1.9c0.1-0.2,0.1-0.3,0.1-0.5c-0.1-0.2-0.2-0.3-0.3-0.4l-1.4-0.6c-0.1-0.1-0.3-0.1-0.5,0l-1,0.4
			l-0.9-0.3c-0.1-0.1-0.3-0.1-0.5,0l-1.5,0.6c0,0-0.1,0-0.1,0c-0.3,0.2-0.4,0.6-0.2,0.9l1.1,2v1.2c-2.6,0.6-4.4,2.8-4.4,5.5v2.3
			c-0.7,0-1.5,0.2-2.1,0.5l-2.1,0.9c-0.4-0.4-1-0.6-1.5-0.3l-2.9,1.3c-0.2,0.1-0.4,0.3-0.4,0.6v7.8c0,0.2,0.1,0.4,0.3,0.5
			c0.1,0.1,0.2,0.1,0.3,0.1c0.1,0,0.2,0,0.3-0.1l5.6-2.8c0.5-0.2,0.8-0.8,0.7-1.4c0.9-0.3,1.8-0.3,2.7,0.1l2.2,1.1
			c1.2,0.6,2.6,0.6,3.8,0.1l5.9-2.6c0.1,0,0.2-0.1,0.4-0.1c0.3,0,0.5-0.2,0.6-0.4C275.7,29.6,275.7,29.1,275.5,28.6z M255.4,32.1
			c0.1-0.3-0.1-0.7-0.4-0.8c-0.2-0.1-0.3,0-0.5,0l-0.6,0.3v-3.5l2.5-1.1c0,0,0,0,0,0c0,0,0,0,0,0l0.1,0.2l0,0l2.1,4.7c0,0,0,0,0,0
			c0,0,0,0,0,0l0,0l-4.7,2.4v-1.5l1.2-0.6C255.3,32.4,255.4,32.3,255.4,32.1z M268.9,16.4V17h-1.5v-0.6H268.9z M266.5,14l0.6-0.2
			l0.9,0.3c0.1,0.1,0.3,0.1,0.4,0l1-0.3l0.5,0.2l-0.7,1.2h-2.1L266.5,14z"/>
	</g>
	<ellipse fill="#F9B438" cx="261.8" cy="14.7" rx="1.7" ry="1.7"/>
	<ellipse fill="#F9B438" cx="263.8" cy="16.3" rx="0.6" ry="0.6"/>
	<ellipse fill="#F9B438" cx="261.5" cy="35.9" rx="1.7" ry="1.7"/>
	<ellipse fill="#F9B438" cx="261.5" cy="32.7" rx="0.6" ry="0.6"/>
</g>
<g>
	<g transform="translate(34.23 8.63)">
		<path d="M286.8,8c-0.3,0-0.6,0.3-0.6,0.6v1.7c0,0.3,0.3,0.6,0.6,0.6s0.6-0.3,0.6-0.6l0,0V8.6C287.4,8.2,287.1,8,286.8,8
			C286.8,8,286.8,8,286.8,8z"/>
	</g>
	<path fill="#42C8FC" d="M317.3,26.6c0,0,6.6-9.4,15.2-0.3c0,0-3.5-0.4-3.5,1.1c0,0-1.9-2.7-4,0c0,0-1.8-3-3.9,0
		C321,27.4,320.4,24.7,317.3,26.6z"/>
	<g transform="translate(77.766)">
		<path d="M253.3,14.6c-0.3,0-0.6,0.3-0.6,0.6c0,0,0,0,0,0v5.2c0,0.3,0.3,0.6,0.6,0.6c0,0,0,0,0,0c0.3,0,0.6-0.2,0.6-0.6
			c0,0,0,0,0,0v-5.2C253.9,14.9,253.6,14.6,253.3,14.6z"/>
	</g>
	<g transform="translate(42.763)">
		<path d="M280.2,14.6c-0.3,0-0.6,0.3-0.6,0.6c0,0,0,0,0,0v3.6c0,0.3,0.3,0.6,0.6,0.6c0.3,0,0.6-0.3,0.6-0.6v-3.6
			C280.8,14.9,280.5,14.6,280.2,14.6z"/>
	</g>
	<g transform="translate(25.31)">
		<path d="M293.6,14.6c-0.3,0-0.6,0.3-0.6,0.6c0,0,0,0,0,0v5.2c0,0.3,0.3,0.6,0.6,0.6c0,0,0,0,0,0c0.3,0,0.6-0.2,0.6-0.6
			c0,0,0,0,0,0v-5.2C294.2,14.9,294,14.6,293.6,14.6C293.6,14.6,293.6,14.6,293.6,14.6z"/>
	</g>
	<g transform="translate(17.099 20.995)" opacity="0.16">
		<g transform="matrix(1, 0, 0, 1, -17.1, -21)">
			<path d="M331,22.6c-1.6-1.5-3.8-2.4-6-2.4c-4.7,0-8.5,3.8-8.5,8.5v0c0,0.3,0.3,0.6,0.6,0.6c0.3,0,0.6-0.3,0.6-0.6
				c0-0.4,0.1-0.7,0.4-1c0.3-0.3,0.6-0.4,1-0.4c0.4,0,0.7,0.1,1,0.4c0.3,0.3,0.4,0.6,0.4,1c0,0.3,0.3,0.6,0.6,0.6
				c0.3,0,0.6-0.3,0.6-0.6c0,0,0,0,0,0c0-0.4,0.1-0.7,0.4-1c0.3-0.3,0.6-0.4,1-0.4c0.4,0,0.7,0.1,1,0.4c0.3,0.3,0.4,0.6,0.4,1v5.7
				c0,0.5,0.2,0.9,0.5,1.2c0.3,0.3,0.8,0.5,1.2,0.5c0.5,0,0.9-0.2,1.2-0.5c0.3-0.3,0.5-0.8,0.5-1.2c0-0.3-0.3-0.6-0.6-0.6
				c-0.3,0-0.6,0.3-0.6,0.6c0,0.1,0,0.3-0.1,0.4c-0.1,0.1-0.2,0.1-0.3,0.1c-0.1,0-0.3,0-0.3-0.1c-0.1-0.1-0.1-0.2-0.1-0.3v-5.7
				c0-0.4,0.1-0.7,0.4-1c0.3-0.3,0.6-0.4,1-0.4c0.4,0,0.7,0.1,1,0.4c0.3,0.3,0.4,0.6,0.4,1c0,0.3,0.3,0.6,0.6,0.6
				c0.3,0,0.6-0.3,0.6-0.6c0-0.4,0.1-0.7,0.4-1c0.3-0.3,0.6-0.4,1-0.4c0.3,0,0.7,0.1,0.9,0.3c0.3,0.2,0.4,0.5,0.4,0.9
				c0,0.3,0.3,0.5,0.6,0.5c0.3,0,0.6-0.3,0.6-0.6C333.5,26.2,332.6,24.1,331,22.6z M330.9,26.1c-0.7,0-1.3,0.3-1.8,0.7l-0.2,0.2
				c0-0.1-0.1-0.1-0.2-0.2c-1-1-2.6-1-3.7,0L325,27c0-0.1-0.1-0.1-0.2-0.2c-1-1-2.6-1-3.7,0L321,27c0-0.1-0.1-0.1-0.2-0.2
				c-0.5-0.5-1.1-0.8-1.8-0.7c-0.3,0-0.7,0.1-1,0.2c0.4-1.1,1-2,1.8-2.8c1.4-1.4,3.2-2.2,5.2-2.2c1.9,0,3.7,0.7,5.1,2.1
				c0.8,0.8,1.4,1.8,1.8,2.9C331.6,26.1,331.3,26.1,330.9,26.1L330.9,26.1z"/>
		</g>
	</g>
	<g transform="translate(17.099 20.995)">
		<g transform="matrix(1, 0, 0, 1, -17.1, -21)">
			<path d="M331,21.9c-1.6-1.5-3.8-2.4-6-2.4c-4.7,0-8.5,3.8-8.5,8.5v0c0,0.3,0.3,0.6,0.6,0.6c0.3,0,0.6-0.3,0.6-0.6
				c0-0.4,0.1-0.7,0.4-1c0.3-0.3,0.6-0.4,1-0.4c0.4,0,0.7,0.1,1,0.4c0.3,0.3,0.4,0.6,0.4,1c0,0.3,0.3,0.6,0.6,0.6
				c0.3,0,0.6-0.3,0.6-0.6c0,0,0,0,0,0c0-0.4,0.1-0.7,0.4-1c0.3-0.3,0.6-0.4,1-0.4c0.4,0,0.7,0.1,1,0.4c0.3,0.3,0.4,0.6,0.4,1v5.7
				c0,0.5,0.2,0.9,0.5,1.2c0.3,0.3,0.8,0.5,1.2,0.5c0.5,0,0.9-0.2,1.2-0.5c0.3-0.3,0.5-0.8,0.5-1.2c0-0.3-0.3-0.6-0.6-0.6
				c-0.3,0-0.6,0.3-0.6,0.6c0,0.1,0,0.3-0.1,0.4c-0.1,0.1-0.2,0.1-0.3,0.1c-0.1,0-0.3,0-0.3-0.1c-0.1-0.1-0.1-0.2-0.1-0.3V28
				c0-0.4,0.1-0.7,0.4-1c0.3-0.3,0.6-0.4,1-0.4c0.4,0,0.7,0.1,1,0.4c0.3,0.3,0.4,0.6,0.4,1c0,0.3,0.3,0.6,0.6,0.6
				c0.3,0,0.6-0.3,0.6-0.6c0-0.4,0.1-0.7,0.4-1c0.3-0.3,0.6-0.4,1-0.4c0.3,0,0.7,0.1,0.9,0.3c0.3,0.2,0.4,0.5,0.4,0.9
				c0,0.3,0.3,0.5,0.6,0.5c0.3,0,0.6-0.3,0.6-0.6C333.5,25.5,332.6,23.4,331,21.9z M330.9,25.4c-0.7,0-1.3,0.3-1.8,0.7l-0.2,0.2
				c0-0.1-0.1-0.1-0.2-0.2c-1-1-2.6-1-3.7,0l-0.2,0.2c0-0.1-0.1-0.1-0.2-0.2c-1-1-2.6-1-3.7,0l-0.2,0.2c0-0.1-0.1-0.1-0.2-0.2
				c-0.5-0.5-1.1-0.8-1.8-0.7c-0.3,0-0.7,0.1-1,0.2c0.4-1.1,1-2,1.8-2.8c1.4-1.4,3.2-2.2,5.2-2.2c1.9,0,3.7,0.7,5.1,2.1
				c0.8,0.8,1.4,1.8,1.8,2.9C331.6,25.5,331.3,25.4,330.9,25.4L330.9,25.4z"/>
		</g>
	</g>
	<g transform="translate(68.718 8.727)">
		<g transform="translate(0 0)">
			<path d="M260.2,7.9c-0.3,0-0.6,0.3-0.6,0.6v1.7c0,0.3,0.3,0.6,0.6,0.6c0.3,0,0.6-0.3,0.6-0.6V8.5C260.9,8.2,260.6,7.9,260.2,7.9
				C260.3,7.9,260.2,7.9,260.2,7.9z"/>
		</g>
	</g>
	<g transform="translate(51.297 6.601)">
		<path d="M273.6,9.5c-0.3,0-0.6,0.3-0.6,0.6v1.7c0,0.3,0.3,0.6,0.6,0.6s0.6-0.3,0.6-0.6c0,0,0,0,0,0v-1.7
			C274.2,9.8,274,9.5,273.6,9.5z"/>
	</g>
	<g transform="translate(60.313)">
		<path d="M266.7,14.6L266.7,14.6c-0.4,0-0.6,0.3-0.6,0.6c0,0,0,0,0,0v3.6c0,0.3,0.3,0.6,0.6,0.6c0.3,0,0.6-0.3,0.6-0.6v-3.6
			C267.3,14.9,267,14.6,266.7,14.6z"/>
	</g>
	<circle fill="#42C8FC" cx="314.2" cy="21.1" r="1.7"/>
	<ellipse fill="#42C8FC" cx="315.6" cy="24" rx="0.9" ry="0.9"/>
	<circle fill="#42C8FC" cx="335.8" cy="20.6" r="1.7"/>
	<ellipse fill="#42C8FC" cx="334.1" cy="23.5" rx="0.9" ry="0.9"/>
</g>
<g transform="translate(-36.65 -0.5)">
	<path fill="#8296CC" d="M51.9,78.8c0,0,6.5-2.4,8.5-4.1c0,0,4.7,4.6,7.3,4.6c0,0,1.1,14.5-7.3,16.7C60.4,96,51.1,98.4,51.9,78.8z"
		/>
	<g>
		<path fill="#010101" d="M71.6,77.8c-3.4-0.9-6.6-2.3-9.7-4.1c-0.2-0.1-0.4-0.1-0.6,0c-3,1.8-6.3,3.2-9.7,4.1
			c-0.3,0.1-0.4,0.3-0.4,0.6v5.2c-0.1,4.1,1.6,8.1,4.6,11c2.3,2.2,4.9,3.4,5.8,3.4c1,0,3.6-1.2,5.8-3.4c3-2.9,4.6-6.9,4.6-11v-5.2
			C72.1,78.1,71.9,77.8,71.6,77.8z M70.8,83.6c0.1,3.8-1.5,7.5-4.2,10.1c-2.2,2.1-4.5,3.1-5,3.1s-2.8-0.9-5-3.1
			c-2.7-2.6-4.3-6.3-4.2-10.1v-4.7c3.2-0.9,6.3-2.2,9.2-3.9c2.9,1.7,6,3,9.2,3.9V83.6L70.8,83.6L70.8,83.6z"/>
		<path fill="#010101" d="M57.2,78.6L57.2,78.6c-0.1-0.3-0.5-0.5-0.8-0.3c-0.9,0.4-1.8,0.7-2.8,1c-0.3,0.1-0.4,0.3-0.4,0.6v2
			c0,0.3,0.3,0.6,0.6,0.6s0.6-0.3,0.6-0.6v-1.5c0.8-0.3,1.6-0.6,2.4-0.9C57.2,79.3,57.3,79,57.2,78.6z"/>
		<path fill="#010101" d="M58.1,78.9L58.1,78.9L58.1,78.9c0.1,0,0.2,0,0.3-0.1s0.3-0.2,0.3-0.3c0.1-0.2,0.1-0.3,0-0.5
			c-0.1-0.3-0.5-0.4-0.8-0.3s-0.4,0.5-0.3,0.8C57.6,78.7,57.8,78.9,58.1,78.9z"/>
		<path fill="#010101" d="M67.8,90L67.8,90c-0.3-0.2-0.7-0.1-0.8,0.2c-0.4,0.6-0.9,1.3-1.5,1.8c-0.4,0.5-0.9,0.9-1.4,1.3
			c-0.3,0.2-0.3,0.6-0.1,0.8c0.1,0.2,0.3,0.2,0.5,0.2c0.1,0,0.3,0,0.4-0.1c0.6-0.4,1.1-0.9,1.6-1.4c0.6-0.6,1.1-1.3,1.6-2
			C68.1,90.6,68,90.2,67.8,90z"/>
		<path fill="#010101" d="M62.8,94.1L62.8,94.1c-0.2,0.1-0.3,0.2-0.3,0.4c0,0.2,0,0.3,0.1,0.5s0.3,0.3,0.5,0.3l0,0
			c0.1,0,0.2,0,0.3-0.1l0,0c0.3-0.2,0.4-0.5,0.2-0.8C63.5,94,63.1,93.9,62.8,94.1z"/>
		<path fill="#010101" d="M67.5,81.4c-0.3-0.3-0.8-0.5-1.2-0.5l0,0c-0.5,0-0.9,0.2-1.2,0.5l-5,5l-1.8-1.8c-0.3-0.3-0.8-0.5-1.2-0.5
			l0,0c-1,0-1.7,0.8-1.7,1.7c0,0.5,0.2,0.9,0.5,1.2l3,3c0.3,0.3,0.8,0.5,1.2,0.5l0,0c0.5,0,0.9-0.2,1.2-0.5l6.3-6.3
			C68.2,83.2,68.2,82.1,67.5,81.4z M66.7,83l-6.3,6.3c-0.2,0.2-0.6,0.2-0.8,0l-3-3c-0.1-0.1-0.2-0.2-0.2-0.4c0-0.1,0.1-0.3,0.2-0.4
			c0.1-0.1,0.2-0.2,0.4-0.2c0.1,0,0.3,0.1,0.4,0.2l2.2,2.2c0.1,0.1,0.3,0.2,0.4,0.2l0,0c0.2,0,0.3-0.1,0.4-0.2l5.5-5.5
			c0.1-0.1,0.2-0.2,0.4-0.2c0.1,0,0.3,0.1,0.4,0.2C66.9,82.5,66.9,82.8,66.7,83z"/>
	</g>
	<path fill="#8296CC" d="M72,75.7h-1.7l-0.1-0.1v-1.7l0.1-0.1H72l0.1,0.1L72,75.7C72.1,75.6,72,75.6,72,75.7z"/>
	<path fill="#8296CC" d="M69.7,76H69v-0.1v-0.7l0.1-0.1h0.7l0.1,0.1L69.7,76C69.8,75.9,69.7,76,69.7,76z"/>
	<path fill="#8296CC" d="M55,96.9h-0.3c0-0.4-0.4-0.8-0.8-0.8l0,0v-0.3c0.4,0,0.8-0.4,0.8-0.8l0,0H55c0,0.4,0.4,0.8,0.8,0.8l0,0v0.3
		C55.4,96.1,55,96.4,55,96.9z"/>
	<path fill="#8296CC" d="M54.8,75.5l-1.2-1.2v-0.2l1.2-1.2H55l1.2,1.2v0.2L55,75.5H54.8z"/>
	<path fill="#8296CC" d="M53.9,94.3h-0.7l-0.1-0.1v-0.7l0.1-0.1h0.7l0.1,0.1L53.9,94.3L53.9,94.3z"/>
</g>
<g>
	<rect x="78.1" y="81.7" fill="#5DC5C2" width="12.1" height="13.5"/>
	<path fill="#010101" d="M92.3,75.1C92.2,75,92,75,91.9,75H79.8c-1.5,0-2.7,1.2-2.7,2.7v15.7c0,1.5,1.2,2.7,2.7,2.7h12.1l0,0
		c0.2,0,0.3-0.1,0.4-0.2s0.2-0.3,0.2-0.4v-20C92.5,75.4,92.4,75.3,92.3,75.1z M89.6,79.2h-9.9c-0.8,0-1.5-0.7-1.5-1.5
		s0.7-1.5,1.5-1.5h9.9C89,77.1,89,78.3,89.6,79.2z M90.4,77.3c0.1-0.5,0.5-0.8,0.9-1v2.8c-0.3-0.1-0.6-0.4-0.8-0.7
		C90.3,78.1,90.3,77.7,90.4,77.3z M86,84.5c0.1,0,0.2,0.1,0.3,0.1c0.1,0,0.3,0,0.4-0.1l0.9-0.7l0.9,0.7c0.3,0.2,0.6,0.1,0.8-0.1
		c0.1-0.1,0.1-0.2,0.1-0.4v-3.5h1.8V95H80.3V80.4h5.3v3.5C85.7,84.2,85.8,84.4,86,84.5z M88.3,82.8L88,82.5c-0.2-0.2-0.5-0.2-0.7,0
		l-0.4,0.3v-2.3h1.4V82.8z M79.2,80.3v14.5c-0.6-0.2-0.9-0.8-0.9-1.4V79.9C78.5,80.1,78.8,80.3,79.2,80.3z"/>
	<g transform="translate(30.082 53.921)">
		<g transform="translate(0)">
			<path fill="#010101" d="M58.3,32.7h-4.8c-0.3,0-0.5,0.2-0.5,0.5s0.2,0.5,0.5,0.5h4.8c0.3,0,0.5-0.2,0.5-0.5S58.6,32.7,58.3,32.7
				L58.3,32.7z"/>
		</g>
	</g>
	<g transform="translate(24.875 65.563)">
		<g transform="translate(0)">
			<path fill="#010101" d="M64.9,24.1h-7.5c-0.3,0-0.5,0.2-0.5,0.5s0.2,0.5,0.5,0.5h7.5c0.3,0,0.5-0.2,0.5-0.5
				C65.3,24.3,65.1,24.1,64.9,24.1L64.9,24.1z"/>
		</g>
	</g>
	<path fill="#5DC5C2" d="M87.1,78.6h-6.9c0-0.5-0.4-0.9-0.9-0.9l0,0v-0.1c0.5,0,0.9-0.4,0.9-0.9l0,0h6.9c0,0.5,0.4,0.9,0.9,0.9l0,0
		v0.1C87.5,77.7,87.1,78.1,87.1,78.6L87.1,78.6z"/>
	<path fill="#5DC5C2" d="M93.8,74.9h-0.5c-0.5,0-0.9-0.4-0.9-0.9l0,0v-0.5c0-0.5,0.4-0.9,0.9-0.9l0,0h0.5c0.5,0,0.9,0.4,0.9,0.9l0,0
		V74C94.7,74.5,94.3,74.9,93.8,74.9L93.8,74.9z"/>
	<path fill="#5DC5C2" d="M93.3,75.5h0.4c0.2,0,0.3,0.1,0.3,0.3l0,0v0.4c0,0.2-0.1,0.3-0.3,0.3l0,0h-0.4c-0.2,0-0.3-0.1-0.3-0.3l0,0
		v-0.4C93,75.7,93.2,75.5,93.3,75.5z"/>
	<path fill="#5DC5C2" d="M90.1,94.7h-0.5c-0.5,0-0.9-0.4-0.9-0.9l0,0v-0.5c0-0.5,0.4-0.9,0.9-0.9l0,0h0.5c0.5,0,0.9,0.4,0.9,0.9l0,0
		v0.5C91.1,94.3,90.7,94.7,90.1,94.7L90.1,94.7z"/>
	<path fill="#5DC5C2" d="M76.7,76.1h-0.5c0-0.5-0.4-0.9-0.9-0.9l0,0v-0.5c0.5,0,0.9-0.4,0.9-0.9l0,0h0.5c0,0.5,0.4,0.9,0.9,0.9l0,0
		v0.5C77.1,75.1,76.7,75.5,76.7,76.1z"/>
	<path fill="#5DC5C2" d="M89.7,96.5h0.4c0.2,0,0.3,0.1,0.3,0.3l0,0v0.4c0,0.2-0.1,0.3-0.3,0.3l0,0h-0.4c-0.2,0-0.3-0.1-0.3-0.3l0,0
		v-0.4C89.4,96.6,89.5,96.5,89.7,96.5z"/>
</g>
<g id="Component_14_1" transform="translate(0.303 0.303)">
	<circle id="Ellipse_27" fill="#A7A9AC" cx="143.3" cy="84" r="8.3"/>
	<circle id="Ellipse_28" fill="#D0D2D3" cx="143.7" cy="84.3" r="8"/>
	<g id="Group_411" transform="translate(-2524.066 -7323.35)">
		<path fill="#010101" d="M2673.2,7398.9L2673.2,7398.9L2673.2,7398.9c-0.2-0.1-0.2-0.1-0.3-0.1s-0.2,0.1-0.3,0.2
			c-0.2,0.2-0.2,0.5,0,0.7c0.3,0.3,0.6,0.6,0.9,1l-1.1,3.5l-2.2,0.8l-3.2-2.3v-2.5l2.9-2.1c0.5,0.2,1,0.4,1.5,0.7
			c0.1,0.1,0.2,0.1,0.4,0.1c0.1,0,0.2-0.1,0.3-0.2s0.1-0.2,0.1-0.4s-0.1-0.2-0.2-0.3c-4.7-3-11-1.5-13.9,3.2v0.1
			c-0.1,0.1-0.1,0.2-0.1,0.4c0,0.1,0.1,0.2,0.2,0.3c0.2,0.1,0.5,0.1,0.7-0.2c0,0,0-0.1,0.1-0.1l0.9,2.7l-2.3,1.7
			c0.1-1,0.3-1.9,0.6-2.8c0.1-0.2,0-0.5-0.3-0.6s-0.5,0-0.6,0.3c-2.1,5.2,0.5,11.1,5.7,13.1c1.2,0.5,2.5,0.7,3.7,0.7
			c4,0,7.9-2.4,9.4-6.4C2677.4,7406.2,2676.3,7401.7,2673.2,7398.9z M2675.5,7405.8l-2.3-1.7l0.9-2.7
			C2675,7402.8,2675.4,7404.3,2675.5,7405.8z M2662.1,7412.2l0.9,2.7c-1.4-0.6-2.7-1.5-3.7-2.7H2662.1z M2666.4,7399.2l-2.3-1.7
			c1.5-0.4,3.1-0.4,4.6,0L2666.4,7399.2z M2669.8,7414.4c0.1-0.2-0.1-0.5-0.3-0.6s-0.5,0.1-0.6,0.3l-0.4,1.2c-1.4,0.3-2.9,0.3-4.4,0
			l-1.1-3.4l1.4-1.8h4l1.3,1.7l-0.2,0.8c-0.1,0.2,0.1,0.5,0.3,0.6s0.5-0.1,0.6-0.3l0.2-0.6h3c-1,1.2-2.3,2.2-3.8,2.8V7414.4z
			 M2664.5,7409.1l-1.2-3.6l3.1-2.2l3.1,2.2l-1.2,3.6H2664.5z M2660.2,7404.9l2.2,0.8l1.2,3.8l-1.4,1.8h-3.6
			c-0.8-1.3-1.3-2.8-1.4-4.3L2660.2,7404.9z M2665.9,7402.4l-3.2,2.3l-2.2-0.8l-1.1-3.5c0.7-0.8,1.6-1.6,2.5-2.1
			c0.4-0.2,0.7-0.4,1.1-0.5l2.9,2.1V7402.4z M2675.5,7407c-0.1,1.5-0.6,3-1.4,4.3h-3.6l-1.4-1.8l1.2-3.8l2.2-0.8L2675.5,7407z"/>
		<path id="Path_985" fill="#010101" d="M2669.4,7416.9"/>
		<path id="Path_986" fill="#010101" d="M2680.9,7413.4c0.2,0,0.4-0.2,0.4-0.4c0-0.1,0-0.2-0.1-0.3l-3.4-3.4c-0.2-0.2-0.4-0.2-0.6,0
			s-0.2,0.4,0,0.6l3.4,3.4C2680.7,7413.3,2680.8,7413.4,2680.9,7413.4L2680.9,7413.4z"/>
		<path id="Path_987" fill="#010101" d="M2680.5,7419.8c0.2,0,0.4-0.2,0.4-0.4c0-0.1,0-0.2-0.1-0.3l-4.2-4.1c-0.2-0.2-0.4-0.2-0.6,0
			c-0.2,0.2-0.2,0.4,0,0.6l4.2,4.1C2680.3,7419.8,2680.4,7419.8,2680.5,7419.8z"/>
		<path id="Path_988" fill="#010101" d="M2680,7415.9c0.2,0.2,0.4,0.2,0.6,0c0.2-0.2,0.2-0.4,0-0.6l-2.1-2.1c-0.2-0.2-0.4-0.2-0.6,0
			c-0.2,0.2-0.2,0.4,0,0.6L2680,7415.9z"/>
	</g>
	<circle id="Ellipse_159" fill="#010101" cx="153.1" cy="89.1" r="0.7"/>
</g>
<g>
	<path id="Path_989" opacity="0.4" fill="#F78F39" enable-background="new    " d="M207.9,81.6v9.1h-6.7c-0.1-0.9-0.8-1.5-1.6-1.4
		c-0.8,0-1.4,0.7-1.4,1.4h-3.5v-9.1H207.9z"/>
	<path id="Path_990" opacity="0.4" fill="#F78F39" enable-background="new    " d="M214.8,83.5h-3.9v2.7h5.8L214.8,83.5z"/>
	<rect id="Rectangle_130" x="215.5" y="88.9" fill="#010101" width="1.5" height="0.8"/>
	<g>
		<path fill="#010101" d="M217.4,86.3l-3.5-5.4c-0.1-0.1-0.2-0.2-0.4-0.2l0,0h-3.8v-2.3c0-0.2-0.2-0.4-0.4-0.4h-14.7
			c-0.2,0-0.4,0.2-0.4,0.4v12.4c0,0.2,0.2,0.4,0.4,0.4h2.7c0.2,1.1,1.2,1.9,2.3,1.9s2.1-0.8,2.3-1.9h7.3h1.1
			c0.2,1.1,1.2,1.9,2.3,1.9c1.2,0,2.1-0.8,2.3-1.9h1.9c0.1,0,0.2,0,0.3-0.1s0.1-0.2,0.1-0.3v-4.2C217.5,86.5,217.5,86.4,217.4,86.3z
			 M199.7,92.3c-0.8,0-1.5-0.7-1.5-1.5v-0.1c0-0.4,0.2-0.8,0.5-1s0.6-0.4,1-0.4h0.1c0.7,0,1.3,0.6,1.4,1.4v0.1
			C201.2,91.6,200.5,92.3,199.7,92.3z M208.9,79.6h-13.1v0.8h13.1v0.8l0,0v7.7h-6.5v0.8h6.5v0.7H202c-0.2-1.1-1.2-2-2.4-1.9
			c-1.1,0-2,0.9-2.2,1.9h-2.2v-0.7h1.9v-0.8h-1.9v-10H209v0.7H208.9z M214.3,83.1l1.7,2.7h-4.8v-2.7H214.3z M212.8,92.3L212.8,92.3
			c-0.4,0-0.8-0.2-1-0.4c-0.3-0.3-0.4-0.6-0.4-1s0.2-0.8,0.4-1c0.3-0.3,0.6-0.4,1-0.4c0.8,0,1.5,0.7,1.5,1.5
			C214.3,91.6,213.6,92.3,212.8,92.3z M216.6,90.4h-1.5c-0.2-1.1-1.2-1.9-2.3-1.9c-1.2,0-2.1,0.8-2.3,1.9h-0.7v-8.8h3.6l0.5,0.7H211
			c-0.2,0-0.4,0.2-0.4,0.4v3.5c0,0.2,0.2,0.4,0.4,0.4h5.6l0.1,0.1v3.7C216.7,90.4,216.6,90.4,216.6,90.4z"/>
		<circle fill="#010101" cx="199.7" cy="90.8" r="0.4"/>
		<circle fill="#010101" cx="212.8" cy="90.8" r="0.4"/>
	</g>
	<circle id="Ellipse_42" fill="#F78F39" cx="193.2" cy="91.7" r="0.7"/>
	<circle id="Ellipse_43" fill="#F78F39" cx="211.6" cy="77.9" r="1.1"/>
	<circle id="Ellipse_44" fill="#F78F39" cx="213.8" cy="79.5" r="0.6"/>
</g>
<g id="Component_16_1" transform="translate(0.053)">
	<path id="Path_996" opacity="0.4" fill="#77B65D" enable-background="new    " d="M258.2,86.3c-0.5,1.5-0.1,3.1,1,4.2
		c0.8,0.8,1.8,1.2,2.9,1.2c0.3,0,0.5,0,0.8-0.1v3.2c0,0.3,0.2,0.5,0.5,0.5s0.5-0.2,0.5-0.5l0,0v-3.2c0.3,0,0.5,0.1,0.8,0.1
		c1.1,0,2.2-0.4,2.9-1.2c1.1-1.1,1.5-2.7,1-4.2c0-0.1-0.2-0.3-0.3-0.3c-0.2-0.1-0.4-0.1-0.6-0.2c1-1.1,1.4-2.6,0.9-4.1
		c0-0.1-0.2-0.3-0.3-0.3c-0.9-0.3-1.8-0.3-2.6,0c0.1-0.3,0.1-0.7,0.1-1c0-1.5-0.8-3-2.2-3.7c-0.1-0.1-0.3-0.1-0.4,0
		c-1.4,0.7-2.3,2.1-2.2,3.7c0,0.4,0,0.7,0.1,1c-0.9-0.3-1.8-0.3-2.6,0c-0.1,0.1-0.3,0.2-0.3,0.3c-0.4,1.4-0.1,3,0.9,4.1
		c-0.2,0-0.4,0.1-0.6,0.2C258.4,86,258.3,86.2,258.2,86.3z"/>
	<path fill="#010101" d="M269.5,85.8c-0.1-0.2-0.2-0.3-0.4-0.4c-0.1,0-0.3-0.1-0.5-0.1c0.9-1.1,1.3-2.6,0.8-4
		c-0.1-0.2-0.2-0.3-0.4-0.4c-0.8-0.3-1.7-0.3-2.5,0c0.1-0.3,0.1-0.6,0.1-0.9c0-1.6-0.9-3.1-2.3-3.8c-0.2-0.1-0.4-0.1-0.5,0
		c-1.4,0.7-2.3,2.2-2.3,3.8c0,0.3,0,0.6,0.1,0.9c-0.8-0.2-1.7-0.2-2.5,0c-0.2,0.1-0.3,0.2-0.4,0.4c-0.4,1.4-0.1,2.9,0.8,4
		c-0.2,0-0.3,0.1-0.5,0.1c-0.2,0.1-0.3,0.2-0.4,0.4c-0.5,1.5-0.1,3.2,1.1,4.3c0.8,0.8,1.9,1.3,3,1.3c0.2,0,0.5,0,0.7-0.1v3.1
		c0,0.3,0.3,0.6,0.6,0.6l0,0c0.3,0,0.6-0.3,0.6-0.6v-3.1c0.2,0,0.5,0.1,0.7,0.1c1.1,0,2.2-0.5,3-1.3C269.6,89,270,87.3,269.5,85.8z
		 M259.9,86.5c0.5-0.1,1-0.1,1.5,0.1h0.1c0.4,0.2,0.8,0.4,1.1,0.7c0.5,0.5,0.9,1.2,0.9,2v0.3c0,0.2,0,0.3-0.1,0.4
		c-0.8,0.1-1.6,0-2.3-0.4c-0.7-0.5-1.2-1.1-1.3-2C259.8,87.3,259.8,86.9,259.9,86.5z M263,86.1c-0.4,0.1-0.8-0.1-0.9-0.5v-0.1H262
		c-0.1,0-0.1-0.1-0.2-0.1c-0.4-0.2-0.8-0.4-1.1-0.7c-0.7-0.7-1.1-1.8-0.9-2.8c1-0.2,2,0.1,2.8,0.9l0,0l0.1,0.1
		c0.5,0.5,0.7,1.2,0.8,1.8V85C263.6,85.6,263.4,86,263,86.1z M267.6,89.3L267.6,89.3L267.6,89.3c-0.1,0.5-0.4,0.9-0.7,1.1
		c-0.4,0.2-0.8,0.3-1.2,0.2c-0.4-0.1-0.8-0.3-1-0.7s-0.3-0.8-0.2-1.2c0.1-0.6,0.6-1.1,1.3-1.3l0,0l0,0c0.3-0.3,0.7-0.5,1.1-0.7
		c0.1,0,0.1,0,0.2-0.1c0.3-0.1,0.6-0.1,0.9-0.1c0.2,0,0.4,0,0.6,0.1C268.7,87.5,268.3,88.5,267.6,89.3z M264.8,82
		c-0.1,0.1-0.2,0.2-0.2,0.2c-0.1,0.1-0.3,0.2-0.4,0.4c-0.2-0.1-0.4-0.3-0.5-0.4l-0.1-0.1c-0.5-0.6-0.8-1.3-0.8-2.1
		c0-1,0.5-2,1.4-2.6c0.9,0.6,1.4,1.5,1.4,2.6C265.5,80.7,265.3,81.4,264.8,82z M267.6,84.7c-0.3,0.3-0.7,0.5-1,0.7
		c-0.1,0-0.1,0-0.2,0.1c-0.5,0.1-1,0.2-1.5,0.1c0-0.2-0.1-0.4-0.1-0.6c0-0.7,0.3-1.4,0.7-2c0.1-0.1,0.1-0.2,0.2-0.2
		c0.7-0.7,1.7-1,2.7-0.8C268.7,82.9,268.3,84,267.6,84.7z"/>
	<path id="Path_998" fill="#77B65D" d="M273.4,73.7L273.4,73.7c0.3,0.1,0.5,0,0.6-0.3c0.1-0.2,0-0.5-0.3-0.6l0,0
		c-0.3-0.1-0.5,0-0.6,0.3C273,73.3,273.1,73.6,273.4,73.7z"/>
	<circle id="Ellipse_29" fill="#77B65D" cx="253.2" cy="93.6" r="0.7"/>
	<circle id="Ellipse_30" fill="#77B65D" cx="275.5" cy="76.2" r="1.9"/>
	<g id="Path_999">
		<path fill="#010101" d="M264.2,97.3c-0.4,0-0.8,0-1.3-0.1c-3.1-0.3-5.9-1.9-7.9-4.3c-2.8-3.5-3.4-8.3-1.5-12.3
			c0.1-0.3,0.5-0.5,0.8-0.3c0.3,0.1,0.5,0.5,0.3,0.8c-1.7,3.6-1.2,7.9,1.3,11c1.8,2.2,4.2,3.5,7,3.8s5.5-0.5,7.7-2.3s3.5-4.2,3.8-7
			s-0.5-5.5-2.3-7.7s-4.2-3.5-7-3.8s-5.5,0.5-7.7,2.3c-0.3,0.2-0.7,0.2-0.9-0.1c-0.2-0.3-0.2-0.7,0.1-0.9c2.4-2,5.5-2.9,8.6-2.5
			c3.1,0.3,5.9,1.9,7.9,4.3s2.9,5.5,2.5,8.6c-0.3,3.1-1.9,5.9-4.3,7.9C269.4,96.4,266.8,97.3,264.2,97.3z"/>
	</g>
</g>
<g>
	<path id="Path_1000" opacity="0.4" fill="#0D88CA" enable-background="new    " d="M320.3,84.6h11.1L329.9,96h-8L320.3,84.6z"/>
	<g id="Group_412" transform="translate(-2189.905 -7317.786)">
		<path id="Path_1001" fill="#010101" d="M2522.1,7398.8L2522.1,7398.8l-0.1-0.1c-0.2-3-2.5-5.3-5.5-5.7h-0.1v-1
			c0-0.9-0.8-1.7-1.7-1.7l0,0h-4.5c-0.3,0-0.6,0.3-0.6,0.6c0,0.3,0.3,0.6,0.6,0.6h4.5c0.3,0,0.6,0.2,0.6,0.6v1h-0.1
			c-3,0.3-5.3,2.7-5.5,5.7v0.1h-0.1c-1.1,0.4-1.7,1.6-1.3,2.8c0.2,0.7,0.8,1.1,1.5,1.3h0.1v0.1l1.3,11c0,0.3,0.3,0.5,0.6,0.5h8.4
			c0.3,0,0.5-0.2,0.6-0.5l0.9-8.5l0,0l0.3-2.5v-0.1h0.1c1.1-0.3,1.8-1.5,1.5-2.6C2523.3,7399.6,2522.8,7399,2522.1,7398.8
			L2522.1,7398.8z M2516.4,7394.1h0.2c2.2,0.3,4,2.1,4.3,4.4v0.2h-4.5V7394.1z M2510.8,7398.5c0.3-2.3,2.1-4,4.3-4.4h0.2v4.6h-4.5
			V7398.5z M2509.2,7400.8c0-0.6,0.5-1,1-1h5v2h-5C2509.7,7401.8,2509.2,7401.4,2509.2,7400.8L2509.2,7400.8L2509.2,7400.8z
			 M2511.2,7404.8v-0.1l-0.2-1.6v-0.2h4.3v1.9L2511.2,7404.8L2511.2,7404.8z M2520.3,7406.1l-0.8,7.1v0.1h-7.4v-0.1l-0.8-7.1v-0.2
			h3.9v5.1c0,0.3,0.2,0.6,0.6,0.6s0.6-0.2,0.6-0.6l0,0v-5.1h4L2520.3,7406.1z M2520.7,7403.1l-0.2,1.6v0.1h-4.1v-1.9h4.3V7403.1z
			 M2521.4,7401.8h-5v-2h5c0.6,0,1,0.4,1,1C2522.4,7401.3,2521.9,7401.8,2521.4,7401.8L2521.4,7401.8z"/>
	</g>
	<path id="Path_1002" fill="#010101" d="M329.5,95.4"/>
	<path id="Path_1003" fill="#010101" d="M328.1,90.7c-0.3,0.1-0.5,0.4-0.4,0.8c0.1,0.3,0.4,0.5,0.8,0.4c0.3-0.1,0.5-0.4,0.4-0.8l0,0
		C328.8,90.8,328.4,90.6,328.1,90.7L328.1,90.7z"/>
	<path id="Path_1004" fill="#010101" d="M323.3,89.5c-0.3,0.1-0.5,0.4-0.4,0.8c0.1,0.3,0.4,0.5,0.8,0.4c0.3-0.1,0.5-0.4,0.4-0.8l0,0
		C324,89.6,323.6,89.4,323.3,89.5z"/>
	<circle id="Ellipse_159_1_" fill="#0D88CA" cx="317.2" cy="76" r="2"/>
	<circle id="Ellipse_160" fill="#0D88CA" cx="333" cy="96.3" r="1.2"/>
	<circle id="Ellipse_161" fill="#0D88CA" cx="334.2" cy="93.4" r="0.6"/>
</g>
</svg>
