<svg xmlns="http://www.w3.org/2000/svg" width="391.495" height="403.611" viewBox="0 0 391.495 403.611">
  <g id="php" transform="translate(-0.005 0.011)">
    <g id="angular-dev">
      <g id="Group_1271">
        <path id="Path_4645" data-name="Path 4645" d="M263.3,174.1s21.4,45.6,21.4,48-19,12.7-22.7,14.8-8.7,4.2-8.7,4.2l2.1,21.1s32.7-7.4,46.4-14.8,13.2-15.8,10-28.2-24.3-60.7-24.3-60.7Z" fill="#fff" stroke="#333" stroke-linecap="round" stroke-linejoin="round" stroke-width="1"/>
        <path id="Path_627" d="M301.8,247.7c13.7-7.4,13.2-15.8,10-28.2s-24.3-60.7-24.3-60.7l-3.4,2.1-1,2.1s19.8,48.3,20.9,64.4c.8,10.8-20.8,24.3-35.4,31.9C279.4,256.4,293.9,251.9,301.8,247.7Z" fill="#fbe7cf"/>
        <path id="Path_4646" data-name="Path 4646" d="M109,164.1s-15.6,57.2-16.1,67.3,30.9,30.1,32.2,31.1-1.8-34.8-1.8-34.8l10.6-52.2Z" fill="#fff" stroke="#333" stroke-linecap="round" stroke-linejoin="round" stroke-width="1"/>
        <path id="Path_628" d="M125.1,250.9c-9.2-7.9-22.7-19-24.3-23.7-2.4-7.1,15.6-58.6,15.6-58.6l-.3-1.6-6.8-3.2S93.7,221,93.2,231.1s30.9,30.1,32.2,31.1C125.6,263,125.4,257.7,125.1,250.9Z" fill="#fbe7cf"/>
      </g>
      <g id="Group_1272">
        <path id="Path_4647" data-name="Path 4647" d="M182.3,106.6s-6.1,4.2-17.7,4.8c-11.9.5-12.4-7.9-26.9-7.9-17.7,0-39.8,55.9-39.8,55.9s11.1,10.8,21.9,15.3a81.9,81.9,0,0,0,18.7,5.5l1.6,36.7h119l1.3-36.7,37.2-24.3s-18.2-32.7-27.2-44.8-23.7-7.7-28.2-4.5-17.9,4-23,3.2-19.2-5.3-19.2-5.3S192.4,98.1,182.3,106.6Z" fill="#009cd9" stroke="#000" stroke-miterlimit="10" stroke-width="0.5"/>
        <line id="Line_19" data-name="Line 19" x1="0.5" y2="60.9" transform="translate(139.1 119.8)" fill="none" stroke="#333" stroke-linecap="round" stroke-linejoin="round" stroke-width="0.5"/>
        <path id="Path_4648" data-name="Path 4648" d="M143.8,125.3s1.6,29.8,7.9,46.4" fill="none" stroke="#333" stroke-linecap="round" stroke-linejoin="round" stroke-width="0.5"/>
        <path id="Path_4649" data-name="Path 4649" d="M153.1,173.8s3.2,9,5,11.9" fill="none" stroke="#333" stroke-linecap="round" stroke-linejoin="round" stroke-width="0.5"/>
        <path id="Path_4650" data-name="Path 4650" d="M147.8,121.9s3.7,17.7,9.5,31.7" fill="none" stroke="#333" stroke-linecap="round" stroke-linejoin="round" stroke-width="0.5"/>
        <path id="Path_4651" data-name="Path 4651" d="M251.2,127.2s-5.8,23.5-10.8,34" fill="none" stroke="#333" stroke-linecap="round" stroke-linejoin="round" stroke-width="0.5"/>
        <line id="Line_20" data-name="Line 20" x1="0.3" y1="47.4" transform="translate(260.4 133)" fill="none" stroke="#333" stroke-linecap="round" stroke-linejoin="round" stroke-width="0.5"/>
        <path id="Path_4652" data-name="Path 4652" d="M258,133.8s-4.2,30.1-14.8,45.9" fill="none" stroke="#333" stroke-linecap="round" stroke-linejoin="round" stroke-width="0.5"/>
        <path id="Path_4653" data-name="Path 4653" d="M252.8,173.6a150.6,150.6,0,0,1-8.2,14" fill="none" stroke="#333" stroke-linecap="round" stroke-linejoin="round" stroke-width="0.5"/>
        <path id="Path_4654" data-name="Path 4654" d="M175.5,110.3s3.4,20.6,8.2,31.1,13.2,12.7,20.3,9.5,12.4-18.5,12.1-38.2" fill="none" stroke="#333" stroke-linecap="round" stroke-linejoin="round" stroke-width="0.5"/>
      </g>
      <g id="Group_1273">
        <path id="Path_4655" data-name="Path 4655" d="M158.6,67s-4.5-7.9-8.2-4,2.9,13.5,6.6,16.6,6.3,1.3,6.1-2.1C162.6,74.4,158.6,67,158.6,67Z" fill="#fbe7cf" stroke="#000" stroke-miterlimit="10" stroke-width="0.5"/>
        <path id="Path_4656" data-name="Path 4656" d="M231.1,67s4.5-7.9,8.2-4-2.9,13.5-6.6,16.6-6.3,1.3-6.1-2.1C227.2,74.4,231.1,67,231.1,67Z" fill="#fbe7cf" stroke="#000" stroke-miterlimit="10" stroke-width="0.5"/>
        <path id="Path_4657" data-name="Path 4657" d="M180.2,105s4.2,19.5,8.7,30.3c4.2,10.8,12.4,10.8,15.8,4s5.5-33,5.5-33S187.6,109.2,180.2,105Z" fill="#fff" stroke="#333" stroke-linecap="round" stroke-linejoin="round" stroke-width="1"/>
        <path id="Path_4658" data-name="Path 4658" d="M159.1,69.7s6.3,22.2,17.9,35.1c11.9,12.9,16.1,16.1,22.4,15s12.9-9.2,22.4-26.1c9.2-17.1,10-30.1,10.8-31.1.8-1.3-1.9-25.3-15.3-35.6s-28.2-14.7-41.4-3.7C162.8,34.6,154.6,53,159.1,69.7Z" fill="#fff" stroke="#333" stroke-linecap="round" stroke-linejoin="round" stroke-width="1"/>
        <path id="Path_629" d="M217.1,26.9c-13.4-10.3-28.2-14.8-41.4-3.7C162.8,34.5,154.6,53,158.8,69.6c0,0,1.3,4.2,3.4,10a3.861,3.861,0,0,1,.3-2.1c2.9-9,11.3-26.7,39.8-18.7C225,65.1,222.1,85.2,220,95.7c.5-.8.8-1.3,1.3-2.1,9.2-17.2,10-30.1,10.8-31.1C233.2,61.2,230.6,37.2,217.1,26.9Z" fill="#fbe7cf"/>
        <path id="Path_4659" data-name="Path 4659" d="M199.5,81.3a136.213,136.213,0,0,0-1.3,14.2c.3,4.8,1.6,6.3-.5,6.6-2.1.5-4.5-2.9-4.5-2.9" fill="none" stroke="#333" stroke-linecap="round" stroke-linejoin="round" stroke-width="1"/>
        <path id="Path_4660" data-name="Path 4660" d="M190.8,77s-4.5-11.3-19.8-6" fill="none" stroke="#333" stroke-linecap="round" stroke-linejoin="round" stroke-width="1"/>
        <path id="Path_4661" data-name="Path 4661" d="M203.2,75.7s4-11.1,17.4-4.5" fill="none" stroke="#333" stroke-linecap="round" stroke-linejoin="round" stroke-width="1"/>
        <path id="Path_4662" data-name="Path 4662" d="M193.7,86c0,6.1-7.1,11.1-15.8,11.1S162,92.1,162,86s6.6-8.7,15.3-8.7C186,77,193.7,79.7,193.7,86Z" fill="none" stroke="#333" stroke-linecap="round" stroke-linejoin="round" stroke-width="1"/>
        <path id="Path_4663" data-name="Path 4663" d="M230.1,86c0,6.1-7.1,11.1-15.8,11.1s-15.8-5-15.8-11.1,6.6-8.7,15.3-8.7C222.4,77,230.1,79.7,230.1,86Z" fill="none" stroke="#333" stroke-linecap="round" stroke-linejoin="round" stroke-width="1"/>
      </g>
      <g id="Group_1274">
        <path id="Path_4664" data-name="Path 4664" d="M27.8,278.3l-1,97.3c0,.5,1.3,1,2.9,1h0c1.6,0,2.9-.5,2.9-1l6.9-97.3Z" fill="#fff" stroke="#333" stroke-linecap="round" stroke-linejoin="round" stroke-width="1"/>
        <path id="Path_4665" data-name="Path 4665" d="M11.4,301.2,10.4,402c0,.5,1.3,1.1,2.9,1.1h0c1.6,0,2.9-.5,2.9-1.1L23,301.5Z" fill="#fff" stroke="#333" stroke-linecap="round" stroke-linejoin="round" stroke-width="1"/>
        <path id="Path_4666" data-name="Path 4666" d="M364.1,278.3l1.1,97.3c0,.5-1.3,1-2.9,1h0c-1.6,0-2.9-.5-2.9-1l-6.9-97.3Z" fill="#fff" stroke="#333" stroke-linecap="round" stroke-linejoin="round" stroke-width="1"/>
        <path id="Path_4667" data-name="Path 4667" d="M380.4,301.2l1,100.8c0,.5-1.3,1.1-2.9,1.1h0c-1.6,0-2.9-.5-2.9-1.1l-6.9-100.5Z" fill="#fff" stroke="#333" stroke-linecap="round" stroke-linejoin="round" stroke-width="1"/>
      </g>
      <g id="Group_1275">
        <path id="Path_4668" data-name="Path 4668" d="M390.7,321.6l-7.1-6.6L367,278.8a9.586,9.586,0,0,0-8.7-5.5H33.6a9.761,9.761,0,0,0-8.7,5.5L4,323.9.6,322.6v10.3H.9a5.738,5.738,0,0,0,5.8,5H385.2a5.855,5.855,0,0,0,5.8-5.3Z" fill="#333" stroke="#333" stroke-linecap="round" stroke-linejoin="round" stroke-width="1"/>
        <path id="Path_4669" data-name="Path 4669" d="M384.9,328.4H6.4c-4.2,0-7.1-4.2-5.3-7.6l23.7-50.9a9.586,9.586,0,0,1,8.7-5.5H358a9.762,9.762,0,0,1,8.7,5.5l23.7,50.9C392,324.5,389.1,328.4,384.9,328.4Z" fill="#fff" stroke="#333" stroke-linecap="round" stroke-linejoin="round" stroke-width="1"/>
        <path id="Path_630" d="M25.6,294.1s-8.4,5.8-3.2,7.9,67,.5,74.4-1.6,16.1-21.9,16.1-25.1-10.8-5.5-14.8-5.8-56.5,2.9-56.5,2.9Z" fill="#f4bd58"/>
        <ellipse id="Ellipse_83" cx="21.9" cy="9.2" rx="21.9" ry="9.2" transform="translate(310.3 286)" fill="#fcd392"/>
        <ellipse id="Ellipse_84" cx="78.6" cy="14.8" rx="78.6" ry="14.8" transform="translate(113.8 285.9)" fill="#f4bd58"/>
      </g>
      <g id="Group_1276">
        <path id="Path_4670" data-name="Path 4670" d="M316.1,259.3s-1.3-5.8-6.3-4-4.2,14.8-3.4,21.9c1,7.1,7.4,4,7.4,4V277s-2.4,1.9-3.7-.8-1-15.8.3-15.6,3.7,4.2,3.7,4.2S314.8,264.3,316.1,259.3Z" fill="#f4bd58" stroke="#000" stroke-miterlimit="10" stroke-width="1"/>
        <path id="Path_4671" data-name="Path 4671" d="M312.6,260.4V292c0,3.7,8.4,6.6,19,6.6s19-2.9,19-6.6V260.4Z" fill="#f4bd58"/>
        <path id="Path_4672" data-name="Path 4672" d="M350.6,260.4c0,3.2-8.4,5.8-19,5.8s-19-2.6-19-5.8,8.4-5.8,19-5.8S350.6,257.2,350.6,260.4Z" fill="#fff" stroke="#333" stroke-linecap="round" stroke-linejoin="round" stroke-width="1"/>
        <path id="Path_4673" data-name="Path 4673" d="M348.3,260.4c0,2.9-7.4,5-16.6,5s-16.6-2.4-16.6-5c0-2.9,7.4-5,16.6-5S348.3,257.5,348.3,260.4Z" fill="#fff" stroke="#333" stroke-linecap="round" stroke-linejoin="round" stroke-width="1"/>
        <path id="Path_4674" data-name="Path 4674" d="M319,263.5a39.045,39.045,0,0,0,12.7,1.8,41.947,41.947,0,0,0,12.7-1.8,43.395,43.395,0,0,0-25.4,0Z" fill="#333" stroke="#333" stroke-linecap="round" stroke-linejoin="round" stroke-width="1"/>
      </g>
      <g id="Group_1277">
        <path id="Path_4675" data-name="Path 4675" d="M23.3,274.9l.3,10.5,72.8.8V273.8Z" fill="#fff" stroke="#333" stroke-linecap="round" stroke-linejoin="round" stroke-width="1"/>
        <path id="Path_4676" data-name="Path 4676" d="M96.3,286.2l10.6-22.7v-6.9L95.8,275.9Z" fill="#fff" stroke="#333" stroke-linecap="round" stroke-linejoin="round" stroke-width="1"/>
        <path id="Path_4677" data-name="Path 4677" d="M23.3,284.6l.3,10.8,72.8.8V283.5Z" fill="#fff" stroke="#333" stroke-linecap="round" stroke-linejoin="round" stroke-width="1"/>
        <path id="Path_4678" data-name="Path 4678" d="M96.3,296.2l10.6-23v-6.6l-11.1,19Z" fill="#fff" stroke="#333" stroke-linecap="round" stroke-linejoin="round" stroke-width="1"/>
        <path id="Path_4679" data-name="Path 4679" d="M51.5,247.4s1.6-3.4-.8-4.8-5,1.9-6.6,3.2S12.5,267,11.4,270.1s0,10,6.6,10.8,12.1-3.7,15-4.2c2.9-.8,4-1.1,4-1.1l20-26.9Z" fill="#fff" stroke="#333" stroke-linecap="round" stroke-linejoin="round" stroke-width="1"/>
        <path id="Path_4680" data-name="Path 4680" d="M18,280.7c6.6.8,12.1-3.7,15-4.2,2.9-.8,4-1.1,4-1.1l.8-1-18.7-4a6.2,6.2,0,0,0-7.6-.8C10.6,273,11.7,280.1,18,280.7Z" fill="#fff" stroke="#333" stroke-linecap="round" stroke-linejoin="round" stroke-width="1"/>
        <path id="Path_4681" data-name="Path 4681" d="M19.3,270.6H75.5c17.4,0,22.7-1,22.7-1L109,247.1s-34,2.1-44.6,1.3-12.9-1.3-12.9-1.3Z" fill="#fff" stroke="#333" stroke-linecap="round" stroke-linejoin="round" stroke-width="1"/>
        <path id="Path_4682" data-name="Path 4682" d="M19.3,270.6l1,4.2s45.6.3,57.5.3c12.1,0,21.1.5,21.1.5l-.8-6.1Z" fill="#fff" stroke="#333" stroke-linecap="round" stroke-linejoin="round" stroke-width="1"/>
        <path id="Path_4683" data-name="Path 4683" d="M99,275.7l10-23v-5.3L98.2,269.6Z" fill="#fff" stroke="#333" stroke-linecap="round" stroke-linejoin="round" stroke-width="1"/>
      </g>
      <g id="Group_1278">
        <path id="Path_4684" data-name="Path 4684" d="M261.2,302.6H123.5a2.369,2.369,0,0,1-2.4-2.4h0a2.433,2.433,0,0,1,2.4-2.4H261.2a2.369,2.369,0,0,1,2.4,2.4h0A2.581,2.581,0,0,1,261.2,302.6Z" fill="#fff" stroke="#333" stroke-linecap="round" stroke-linejoin="round" stroke-width="1"/>
        <path id="Path_4685" data-name="Path 4685" d="M262.3,298.1H122.5a1.994,1.994,0,0,1-2.1-1.8l-7.6-91.5a2.212,2.212,0,0,1,1.9-2.4H270a2.135,2.135,0,0,1,2.1,2.2v.2l-7.6,91.5A2.577,2.577,0,0,1,262.3,298.1Z" fill="#fff" stroke="#333" stroke-linecap="round" stroke-linejoin="round" stroke-width="1"/>
        <g id="Group_3107" data-name="Group 3107">
          <g id="Group_343_2_">
            <circle id="Ellipse_127-2_2_" cx="3.2" cy="3.2" r="3.2" transform="translate(207.4 225.5)" fill="#009cd9"/>
            <circle id="Ellipse_128-2_4_" cx="1.3" cy="1.3" r="1.3" transform="translate(203.5 230.4)" fill="#009cd9"/>
            <circle id="Ellipse_128-2_3_" cx="1.9" cy="1.9" r="1.9" transform="translate(163.8 269.7)" fill="#009cd9"/>
          </g>
          <path id="Path_4686" data-name="Path 4686" d="M204.4,264.4a7.844,7.844,0,0,1-2.2-.2.419.419,0,0,0-.6.3,8.937,8.937,0,0,1-8.2,4.3,8.755,8.755,0,0,1-3.2-.7c-.4-.2-.5-.1-.7.2a10.217,10.217,0,0,1-7.8,5.8,10.607,10.607,0,0,1-11.3-6.1c-.2-.4-.4-.6-.9-.5a9.832,9.832,0,0,1-11-8.1,9.725,9.725,0,0,1,4.4-10c.3-.2.2-.4.1-.6a11.077,11.077,0,0,1,1.9-11.3,11.381,11.381,0,0,1,16.3-1.2,11.986,11.986,0,0,1,1.1,1.2c.3.3.4.3.7,0a9.74,9.74,0,0,1,7-2.8,10.091,10.091,0,0,1,8.7,4.8c.3.4.5.5,1,.3a12.684,12.684,0,1,1,5.9,24.5A4.48,4.48,0,0,1,204.4,264.4Z" fill="#009cd9" opacity="0.5"/>
          <g id="Group_3103" data-name="Group 3103">
            <path id="Path_4687" data-name="Path 4687" d="M206.4,262.4a7.844,7.844,0,0,1-2.2-.2.419.419,0,0,0-.6.3,8.937,8.937,0,0,1-8.2,4.3,8.755,8.755,0,0,1-3.2-.7c-.4-.2-.5-.1-.7.2a10.217,10.217,0,0,1-7.8,5.8,10.607,10.607,0,0,1-11.3-6.1c-.2-.4-.4-.6-.9-.5a9.832,9.832,0,0,1-11-8.1,9.725,9.725,0,0,1,4.4-10c.3-.2.2-.4.1-.6a11.077,11.077,0,0,1,1.9-11.3,11.381,11.381,0,0,1,16.3-1.2,11.986,11.986,0,0,1,1.1,1.2c.3.3.4.3.7,0a9.74,9.74,0,0,1,7-2.8,10.091,10.091,0,0,1,8.7,4.8c.3.4.5.5,1,.3a12.684,12.684,0,1,1,5.9,24.5A4.48,4.48,0,0,1,206.4,262.4Z" fill="none" stroke="#373f54" stroke-miterlimit="10" stroke-width="1.5"/>
            <path id="Path_4688" data-name="Path 4688" d="M190.3,255.7H190c-.2-.1-.6,0-.5-.4.1-.3,0-.7.6-.6.7.1,1-.1,1.1-.8.4-1.5.6-3.1.9-4.7.1-.3-.2-.3-.4-.3s-.5.1-.4-.2-.1-.7.4-.7a.466.466,0,0,0,.6-.5,1.968,1.968,0,0,1,2.6-1.7c.2,0,.5,0,.3.3-.1.2,0,.7-.5.6-.8-.1-1.1.2-1.3.9-.1.3,0,.4.3.4h.3c.2.1.6-.2.5.2,0,.3,0,.8-.6.7-.7-.1-.8.2-.9.8-.2,1.3-.4,2.7-.7,4-.2.9-.5,1.7-1.5,1.9a.749.749,0,0,1-.5.1Z" fill="#373f54"/>
            <path id="Path_4689" data-name="Path 4689" d="M209.7,251h2.8c.2,0,.3-.1.4-.3a2.877,2.877,0,0,0-.5-2,2.285,2.285,0,0,0-2.9-.4c-1.1.6-1.3,1.6-1.3,2.8a2.163,2.163,0,0,0,1.4,2.2,3.862,3.862,0,0,0,2.8,0c.3-.1.3-.3.2-.5s-.1-.6-.5-.4a3.178,3.178,0,0,1-1.4.2,1.4,1.4,0,0,1-1.3-1.1C209.4,251.1,209.5,251,209.7,251Zm0-1.7a1.14,1.14,0,0,1,2,.4c.1.3.1.4-.3.4h-1.3c-.2,0-.5.1-.6-.1S209.6,249.5,209.7,249.3Z" fill="#373f54"/>
            <path id="Path_4690" data-name="Path 4690" d="M178,251.2v-1.6c-.1-.9-.5-1.5-1.4-1.6a4.924,4.924,0,0,0-2.4.2c-.3.1-.4.3-.2.6.1.4.3.4.6.3a2.263,2.263,0,0,1,1.8-.1.6.6,0,0,1,.4.8c-.1.4-.4.1-.6.1a3.233,3.233,0,0,0-1.7.3,1.626,1.626,0,0,0-.9,1.9,1.5,1.5,0,0,0,1.4,1.3,5.437,5.437,0,0,0,1.8,0c1.2-.2,1.2-.2,1.2-1.4v-.8Zm-2.1,1.3c-.8,0-1.2-.3-1.2-.8q0-.9,1.2-.9c.9,0,.9,0,.9.8C176.9,252.5,176.9,252.5,175.9,252.5Z" fill="#373f54"/>
            <path id="Path_4691" data-name="Path 4691" d="M183.9,247.9a2.412,2.412,0,0,0-2.8,2.9c.1,1.4.6,2.1,1.7,2.4a4.875,4.875,0,0,0,2.4,0c.3-.1.4-.2.3-.5s-.1-.6-.6-.4a1.95,1.95,0,0,1-1.3.1,1.5,1.5,0,0,1-1.3-1.1c0-.3,0-.3.3-.3h2.8a.4.4,0,0,0,.4-.2A2.4,2.4,0,0,0,183.9,247.9Zm.4,2.2h-1.2c-.2,0-.5.1-.6-.1s.1-.5.2-.7a1,1,0,0,1,1.1-.4,1.419,1.419,0,0,1,.9.8C184.7,249.9,184.7,250.1,184.3,250.1Z" fill="#373f54"/>
            <path id="Path_4692" data-name="Path 4692" d="M198.9,248.6a2.361,2.361,0,0,0-.9-.6c-1.8-.6-3.3.6-3.3,2.6,0,1.5.7,2.5,1.9,2.7a2.443,2.443,0,0,0,2.7-1.1A3.359,3.359,0,0,0,198.9,248.6Zm-.7,3.3a1.1,1.1,0,0,1-1,.6,1,1,0,0,1-1-.6,3.048,3.048,0,0,1,0-2.3,1.1,1.1,0,0,1,1-.6,1,1,0,0,1,1,.6,2.966,2.966,0,0,1,.2,1.4A2.042,2.042,0,0,1,198.2,251.9Z" fill="#373f54"/>
            <path id="Path_4693" data-name="Path 4693" d="M188.5,253.5a6.07,6.07,0,0,1-1.8-.5c-.5-.2-.2-.6-.1-.8.1-.4.4-.1.5,0a2.822,2.822,0,0,0,1.5.4.64.64,0,0,0,.7-.5c.1-.4-.2-.6-.5-.7-.4-.1-.8-.3-1.2-.4a1.47,1.47,0,0,1-1.1-1.5,1.5,1.5,0,0,1,1.2-1.4,3.064,3.064,0,0,1,2.3.3c.4.2.1.5.1.7-.1.3-.2.3-.5.2a3.194,3.194,0,0,0-1.4-.3.64.64,0,0,0-.7.5c-.1.4.2.5.5.6s.7.3,1.1.4c1,.4,1.4.8,1.3,1.7a1.55,1.55,0,0,1-1.6,1.4C188.7,253.4,188.6,253.4,188.5,253.5Z" fill="#373f54"/>
            <path id="Path_4694" data-name="Path 4694" d="M171.1,247.9a3.529,3.529,0,0,1,1.4.3c.4.2.2.5.2.7-.1.3-.3.2-.5.1a3.194,3.194,0,0,0-1.4-.3c-.3,0-.6.1-.6.5-.1.3.2.5.4.6a5.637,5.637,0,0,0,1.2.4c.9.3,1.3.9,1.2,1.6a1.7,1.7,0,0,1-1.5,1.5,3.659,3.659,0,0,1-2.3-.4c-.5-.2-.2-.5-.1-.8.1-.4.3-.1.5,0a2.934,2.934,0,0,0,1.6.4.56.56,0,0,0,.6-.5c.1-.4-.2-.5-.5-.6a4.875,4.875,0,0,1-1.1-.4,1.483,1.483,0,0,1-1.2-1.8,1.654,1.654,0,0,1,1.7-1.3Z" fill="#373f54"/>
            <path id="Path_4695" data-name="Path 4695" d="M203.8,250.7c0-2.2,1.6-3.2,3.8-2.6.2,0,.3.1.2.3s0,.6-.4.6c-.2,0-.5-.1-.7-.1a1.365,1.365,0,0,0-1.6,1.1c-.5,1.7.5,2.8,2.2,2.4.5-.1.5.2.6.5.2.3-.1.4-.3.5a4.084,4.084,0,0,1-1.9.1A2.744,2.744,0,0,1,203.8,250.7Z" fill="#373f54"/>
            <path id="Path_4696" data-name="Path 4696" d="M180.2,249.6v3.3c0,.4-.2.4-.5.4s-.6.1-.6-.4v-6.7c0-.5.3-.4.6-.4s.6-.1.6.4A19.606,19.606,0,0,0,180.2,249.6Z" fill="#373f54"/>
            <path id="Path_4697" data-name="Path 4697" d="M200.5,250.6v-2.1c0-.2-.1-.4.2-.4s.7-.2.8.1.2.2.3.1a1.592,1.592,0,0,1,1.3-.3c.2,0,.5,0,.4.3s0,.7-.5.7c-1.1,0-1.4.3-1.5,1.4a10.454,10.454,0,0,0,0,2.5c0,.4-.2.5-.5.4-.3,0-.6.1-.6-.5a15.482,15.482,0,0,0,.1-2.2Z" fill="#373f54"/>
          </g>
        </g>
      </g>
      <g id="Group_1279">
        <path id="Path_4710" data-name="Path 4710" d="M342.2,180.4a11.994,11.994,0,0,0,4.2-6.6,12.636,12.636,0,0,0-.3-6.1" fill="none" stroke="#333" stroke-linecap="round" stroke-linejoin="round" stroke-width="1"/>
        <path id="Path_4711" data-name="Path 4711" d="M326.1,251.9s13.5-7.9,9-17.1-19-15.3-19-29.6c0-12.4,13.2-16.9,21.6-21.9" fill="none" stroke="#333" stroke-linecap="round" stroke-linejoin="round" stroke-width="1"/>
        <path id="Path_4712" data-name="Path 4712" d="M338.5,251.7s7.4-5,7.4-12.9c0-5.3-5.5-8.7-13.2-17.1" fill="none" stroke="#333" stroke-linecap="round" stroke-linejoin="round" stroke-width="1"/>
        <path id="Path_4713" data-name="Path 4713" d="M328.7,216.6s-4.8-4-1.3-11.1" fill="none" stroke="#333" stroke-linecap="round" stroke-linejoin="round" stroke-width="1"/>
      </g>
      <path id="Path_631" d="M175.5,56.5s18.7-.5,35.6,8.2,30.1-7.9,22.1-16.4,10.3,9.2,13.2-1.3S223,.5,196.3,0s-33,16.6-33,16.6-3.2-9-5.5-4a22.188,22.188,0,0,0-2.4,8.7s-5.3,4.2-7.6,6.6.8,5,.8,5-4.8,12.4-2.1,21.6l13.7,20.6s4.8.3,8.4-4.8c3.4-4.8.8-19.8.8-19.8s.3,16.1,4.5,12.7S171.8,44,171.8,44Z" fill="#1a2e35"/>
      <ellipse id="Ellipse_89" cx="1.9" cy="0.8" rx="1.9" ry="0.8" transform="translate(178.6 85.5)" fill="none" stroke="#333" stroke-linecap="round" stroke-linejoin="round" stroke-width="5"/>
      <ellipse id="Ellipse_90" cx="1.9" cy="0.8" rx="1.9" ry="0.8" transform="translate(208.1 84.1)" fill="none" stroke="#333" stroke-linecap="round" stroke-linejoin="round" stroke-width="5"/>
    </g>
    <g id="obj1">
      <path id="Path_4714" data-name="Path 4714" d="M111.1,86.8H8.8a7.383,7.383,0,0,1-7.4-7.4V44.8a7.383,7.383,0,0,1,7.4-7.4H111.2a7.363,7.363,0,0,1,7.4,7.3h0V79.3A7.689,7.689,0,0,1,111.1,86.8Z" fill="#333" stroke="#333" stroke-linecap="round" stroke-linejoin="round" stroke-width="1"/>
      <g id="Group_1371">
        <path id="Path_820" d="M15.4,44.1l.5,1.1c-2.6,1.6-5,4-5,6.9a3.851,3.851,0,0,0,3.6,4.2h.1a.472.472,0,0,0,.5-.5h0a.472.472,0,0,0-.5-.5h0A2.3,2.3,0,0,1,13,52.9c0-1.8,1.6-2.9,3.4-2.9a3.436,3.436,0,0,1,3.4,3.4,4.355,4.355,0,0,1-4.5,4.2,5.158,5.158,0,0,1-5.5-4.8h0v-.4C9.8,48.5,12.5,45.7,15.4,44.1Zm11.6,0,.5,1.1c-2.6,1.6-5,4-5,6.9a3.851,3.851,0,0,0,3.6,4.2h.1a.5.5,0,1,0,0-1,2.5,2.5,0,0,1-1.6-2.4c0-1.8,1.6-2.9,3.4-2.9a3.372,3.372,0,0,1,3.4,3.4,4.355,4.355,0,0,1-4.5,4.2,5.158,5.158,0,0,1-5.5-4.8h0v-.4A9.934,9.934,0,0,1,27,44.1Z" fill="#f4bd58"/>
      </g>
      <line id="Line_21" data-name="Line 21" x2="66.8" transform="translate(38 54.1)" fill="none" stroke="#fff" stroke-linecap="round" stroke-linejoin="round" stroke-width="1"/>
      <line id="Line_22" data-name="Line 22" x2="66.8" transform="translate(38 59.9)" fill="none" stroke="#fff" stroke-linecap="round" stroke-linejoin="round" stroke-width="1"/>
      <line id="Line_23" data-name="Line 23" x2="66.8" transform="translate(38 65.7)" fill="none" stroke="#fff" stroke-linecap="round" stroke-linejoin="round" stroke-width="1"/>
      <line id="Line_24" data-name="Line 24" x2="66.8" transform="translate(38 71.2)" fill="none" stroke="#fff" stroke-linecap="round" stroke-linejoin="round" stroke-width="1"/>
    </g>
    <g id="obj2">
      <circle id="Ellipse_593" data-name="Ellipse 593" cx="25.3" cy="25.3" r="25.3" transform="translate(27.2 131.5)" fill="#333" stroke="#333" stroke-linecap="round" stroke-linejoin="round" stroke-width="1"/>
      <circle id="Ellipse_594" data-name="Ellipse 594" cx="21.4" cy="21.4" r="21.4" transform="translate(31.2 135.5)" fill="#fff" stroke="#333" stroke-linecap="round" stroke-linejoin="round" stroke-width="1"/>
      <path id="Path_4715" data-name="Path 4715" d="M52.5,141.1v15.6H63.1" fill="none" stroke="#333" stroke-linecap="round" stroke-linejoin="round" stroke-width="2"/>
    </g>
    <g id="obj3">
      <path id="Path_4716" data-name="Path 4716" d="M376,66.8H316.6a8.706,8.706,0,0,0-8.7,8.7v31.9a8.706,8.706,0,0,0,8.7,8.7h1.8c-1.8,4.2-5.3,10.3-11.1,14,0,0,12.1-.8,24.5-14H376a8.838,8.838,0,0,0,8.7-8.7v-32A8.686,8.686,0,0,0,376,66.8Z" fill="#333" stroke="#333" stroke-linecap="round" stroke-linejoin="round" stroke-width="1"/>
      <g id="Group_1372">
        <path id="Path_4717" data-name="Path 4717" d="M335.9,90.2a4.5,4.5,0,1,0-4.5,4.5h0C334,95,335.9,92.9,335.9,90.2Z" fill="#f4bd58"/>
        <path id="Path_4718" data-name="Path 4718" d="M351.4,90.2a4.5,4.5,0,1,0-4.5,4.5h0a4.273,4.273,0,0,0,4.5-4.1Z" fill="#f4bd58"/>
        <path id="Path_4719" data-name="Path 4719" d="M366.7,90.2a4.5,4.5,0,1,0-4.5,4.5h0C364.9,95,366.7,92.9,366.7,90.2Z" fill="#f4bd58"/>
      </g>
    </g>
  </g>
</svg>
