<svg version="1.2" xmlns="http://www.w3.org/2000/svg" viewBox="0 0 220 31" width="220" height="31">
	<title>country-flag-svg</title>
	<style>
		.s0 { fill: #fbb446 } 
		.s1 { fill: #73af43 } 
		.s2 { fill: #f5f6f6 } 
		.s3 { fill: #42489b } 
		.s4 { fill: #f1f0f0 } 
		.s5 { fill: #d81f2a } 
		.s6 { fill: #3755a6 } 
		.s7 { fill: #010101 } 
		.s8 { fill: #feda46 } 
		.s9 { fill: #6da542 } 
		.s10 { fill: #2e4593 } 
		.s11 { fill: #fcf5ff } 
		.s12 { fill: #f42525 } 
		.s13 { fill: #ffffff } 
		.s14 { fill: #cd002a } 
	</style>
	<g id="Layer">
		<g id="Layer">
			<path id="Layer" class="s0" d="m1 6h29v6.3h-29z" />
			<path id="Layer" class="s1" d="m1 18.6h29v6.4h-29z" />
			<path id="Layer" class="s2" d="m1 12.3h29v6.4h-29z" />
			<g id="Layer">
				<path id="Layer" fill-rule="evenodd" class="s3" d="m15.5 18.2c-1.5 0-2.7-1.2-2.7-2.7c0-1.5 1.2-2.7 2.7-2.7c1.5 0 2.7 1.2 2.7 2.7c0 1.5-1.2 2.7-2.7 2.7zm0-4.9c-1.2 0-2.2 0.9-2.2 2.2c0 1.2 0.9 2.2 2.2 2.2c1.3 0 2.2-0.9 2.2-2.2c0-1.2-1-2.2-2.2-2.2z" />
				<path id="Layer" class="s3" d="m15.5 15.8c-0.2 0-0.3-0.1-0.3-0.3c0-0.2 0.1-0.3 0.3-0.3c0.2 0 0.3 0.1 0.3 0.3c0 0.2-0.1 0.3-0.3 0.3z" />
				<path id="Layer" class="s3" d="m15.5 15.5l-0.8 0.1l-1.6-0.1l1.6-0.1z" />
				<path id="Layer" class="s3" d="m16.3 15.4l1.6 0.1l-1.6 0.1l-0.8-0.1z" />
				<path id="Layer" class="s3" d="m15.5 15.5l-0.1-0.8l0.1-1.6l0.1 1.6z" />
				<path id="Layer" class="s3" d="m15.6 16.3l-0.1 1.6l-0.1-1.6l0.1-0.8z" />
				<path id="Layer" class="s3" d="m15.5 15.5l-0.7-0.5l-1-1.1l0.1-0.1l1.1 1z" />
				<path id="Layer" class="s3" d="m16.2 16l1.1 1.1l-0.1 0.1l-1.2-1l-0.5-0.7z" />
				<path id="Layer" class="s3" d="m15.5 15.5l0.5-0.7l1.2-1l0.1 0.1l-1.1 1.1z" />
				<path id="Layer" class="s3" d="m15 16.2l-1.1 1l-0.1-0.1l1-1.1l0.7-0.5z" />
				<path id="Layer" class="s3" d="m15.5 15.5l-0.7 0.4l-1.5 0.6v-0.1l1.4-0.7z" />
				<path id="Layer" class="s3" d="m16.2 15.1l1.5-0.6v0.1l-1.4 0.7l-0.8 0.2z" />
				<path id="Layer" class="s3" d="m15.5 15.5l-0.4-0.7l-0.6-1.5h0.1l0.7 1.4z" />
				<path id="Layer" class="s3" d="m15.9 16.2l0.6 1.5h-0.1l-0.7-1.4l-0.2-0.8z" />
				<path id="Layer" class="s3" d="m15.5 15.5l-0.8-0.2l-1.4-0.7v-0.1l1.5 0.6z" />
				<path id="Layer" class="s3" d="m16.3 15.7l1.4 0.7v0.1l-1.5-0.6l-0.7-0.4z" />
				<path id="Layer" class="s3" d="m15.5 15.5l0.2-0.8l0.7-1.4h0.1l-0.6 1.5z" />
				<path id="Layer" class="s3" d="m15.3 16.3l-0.7 1.4h-0.1l0.6-1.5l0.4-0.7z" />
			</g>
			<path id="Layer" class="s2" d="m15.5 15.9c-0.2 0-0.4-0.2-0.4-0.4c0-0.2 0.2-0.4 0.4-0.4c0.2 0 0.4 0.2 0.4 0.4c0 0.2-0.2 0.4-0.4 0.4z" />
			<path id="Layer" class="s3" d="m15.5 15.8c-0.2 0-0.3-0.1-0.3-0.3c0-0.2 0.1-0.3 0.3-0.3c0.2 0 0.3 0.1 0.3 0.3c0 0.2-0.1 0.3-0.3 0.3z" />
		</g>
		<g id="Layer">
			<path id="Layer" class="s4" d="m32 5.8h29.1v19.4h-29.1z" />
			<g id="Layer">
				<path id="Layer" class="s5" d="m32 8.2h29.1v2.4h-29.1z" />
				<path id="Layer" class="s5" d="m32 13.1h29.1v2.4h-29.1z" />
				<path id="Layer" class="s5" d="m32 17.9h29.1v2.4h-29.1z" />
				<path id="Layer" class="s5" d="m32 22.7h29.1v2.5h-29.1z" />
			</g>
			<path id="Layer" class="s6" d="m32 5.8h14.5v10.4h-14.5z" />
			<g id="Layer">
				<path id="Layer" class="s4" d="m37.8 10.8h0.8l-0.6 0.5l0.2 0.7l-0.6-0.5l-0.5 0.5l0.2-0.7l-0.6-0.5h0.8l0.1-0.7z" />
				<path id="Layer" class="s4" d="m38.6 13.4l-0.6 0.5l0.2 0.7l-0.6-0.5l-0.5 0.5l0.2-0.7l-0.6-0.5h0.8l0.1-0.7l0.2 0.7z" />
				<path id="Layer" class="s4" d="m35.4 13.4l-0.6 0.5l0.2 0.7l-0.5-0.5l-0.6 0.5l0.2-0.7l-0.6-0.5h0.8l0.2-0.7l0.1 0.7z" />
				<path id="Layer" class="s4" d="m34.6 10.8h0.8l-0.6 0.5l0.2 0.7l-0.5-0.5l-0.6 0.5l0.2-0.7l-0.6-0.5h0.8l0.2-0.7z" />
				<path id="Layer" class="s4" d="m37.8 8.2h0.8l-0.6 0.5l0.2 0.6l-0.6-0.4l-0.5 0.4l0.2-0.6l-0.6-0.5h0.8l0.1-0.7z" />
				<path id="Layer" class="s4" d="m34.6 8.2h0.8l-0.6 0.5l0.2 0.6l-0.5-0.4l-0.6 0.4l0.2-0.6l-0.6-0.5h0.8l0.2-0.7z" />
				<path id="Layer" class="s4" d="m41 10.8h0.8l-0.6 0.5l0.2 0.7l-0.6-0.5l-0.5 0.5l0.2-0.7l-0.6-0.5h0.8l0.1-0.7z" />
				<path id="Layer" class="s4" d="m41.8 13.4l-0.6 0.5l0.2 0.7l-0.6-0.5l-0.5 0.5l0.2-0.7l-0.6-0.5h0.8l0.1-0.7l0.2 0.7z" />
				<path id="Layer" class="s4" d="m44.2 13.3h0.8l-0.6 0.5l0.2 0.7l-0.6-0.5l-0.5 0.5l0.2-0.7l-0.6-0.5h0.8l0.1-0.7l0.2 0.8z" />
				<path id="Layer" class="s4" d="m44.2 10.8h0.8l-0.6 0.5l0.2 0.7l-0.6-0.5l-0.5 0.5l0.2-0.7l-0.6-0.5h0.8l0.1-0.7z" />
				<path id="Layer" class="s4" d="m41 8.2h0.8l-0.6 0.5l0.2 0.6l-0.6-0.4l-0.5 0.4l0.2-0.6l-0.6-0.5h0.8l0.1-0.7z" />
				<path id="Layer" class="s4" d="m44.2 8.2h0.8l-0.6 0.5l0.2 0.6l-0.6-0.3l-0.5 0.3l0.2-0.6l-0.6-0.5h0.8l0.1-0.7z" />
			</g>
		</g>
		<g id="Layer">
			<path id="Layer" class="s5" d="m63 6h29.1v19.1h-29.1z" />
			<path id="Layer" class="s7" d="m63 6h29.1v6.3h-29.1z" />
			<path id="Layer" class="s8" d="m63 18.7h29.1v6.3h-29.1z" />
		</g>
		<g id="Layer">
			<path id="Layer" class="s4" d="m123.1 5.8v19.4h-29.1v-19.4h19.4z" />
			<path id="Layer" class="s9" d="m94 5.8h9.7v19.4h-9.7z" />
			<path id="Layer" class="s5" d="m113.4 5.8h9.7v19.4h-9.7z" />
		</g>
		<g id="Layer">
			<path id="Layer" class="s5" d="m125 6h29.1v19.1h-29.1z" />
			<path id="Layer" class="s4" d="m136.9 9.8l-2.9 1.5l2.9 1.4l-2.9 1.4l2.9 1.5l-2.9 1.4l2.9 1.4l-2.9 1.4l2.9 1.5l-2.9 1.5l2.9 1.4l-2.1 1h-9.9v-19.3h9.9l2.1 1l-2.9 1.4z" />
		</g>
		<g id="Layer">
			<path id="Layer" class="s4" d="m156 5.8h29.1v19.4h-29.1z" />
			<g id="Layer">
				<path id="Layer" class="s9" d="m156 5.8h9.7v19.4h-9.7z" />
				<path id="Layer" class="s9" d="m175.4 5.8h9.7v19.4h-9.7z" />
			</g>
		</g>
		<g id="Layer">
			<g id="Layer">
				<g id="Layer">
					<path id="Layer" class="s10" d="m217.7 5.8v19.4h-30.7v-19.4z" />
				</g>
			</g>
			<g id="Layer">
				<g id="Layer">
					<g id="Layer">
						<path id="Layer" class="s11" d="m217.7 23.2v2h-3.2l-9.4-5.9l-0.9-0.7l-1.2-0.7l-0.3-0.2l-1.1-0.7l-0.5-0.2l-0.3-0.3l-0.8-0.4l-0.2-0.2l-0.3-0.2l-3.3-2.1l-1.6-1l-7.6-4.8v-2h0.1h3.1l9.6 6.1l1 0.6l0.2 0.1l1.6 1l0.1 0.1l0.5 0.3l1 0.6l0.1 0.1l0.8 0.5l0.8 0.5l2 1.3l1.5 0.9z" />
					</g>
				</g>
				<g id="Layer">
					<g id="Layer">
						<path id="Layer" class="s12" d="m217.7 25.1v0.1h-2.1l-10.5-6.7l-0.9-0.6l-1-0.6l-0.5-0.3l-1-0.6l-0.9-0.6l-0.2-0.1l-0.6-0.4l-0.2-0.1l-2.5-1.6l-1.5-1l-8.8-5.5v-1.3h0.1l10.8 6.8l1.6 1l0.3 0.3l1 0.5l0.3 0.2l0.6 0.4l1 0.7l1.5 0.9l0.1 0.1l0.5 0.3l0.3 0.1l1.2 0.8z" />
					</g>
				</g>
			</g>
			<g id="Layer">
				<g id="Layer">
					<g id="Layer">
						<path id="Layer" class="s11" d="m217.7 6.2v2l-7 4.4l-1.5 1l-3.3 2.1l-0.8 0.5l-0.8 0.5l-0.1 0.1l-0.4 0.2l-0.6 0.3l-0.5 0.4l-0.4 0.2l-1.5 1l-1 0.6l-9 5.7h-3.8v-1.7l9-5.6l1.4-0.9l2.1-1.3l0.3-0.2l0.2-0.2l0.8-0.4l0.3-0.3l1.6-0.9l0.1-0.1l1.4-0.9l0.1-0.1l0.8-0.5l10-6.3h2.4z" />
					</g>
				</g>
				<g id="Layer">
					<g id="Layer">
						<path id="Layer" class="s12" d="m217.6 6.3l-10 6.3l-1.5 1l-1 0.6l-0.8 0.5l-0.1 0.1l-1.5 0.9l-1 0.7l-0.6 0.4l-0.3 0.2h-0.1l-0.9 0.5l-0.6 0.4l-11.5 7.3h-0.7v-0.9l10.1-6.4l1.5-0.9l1.2-0.8l0.2-0.1l0.6-0.4l0.2-0.1l0.9-0.6l1.5-1l0.8-0.4l0.2-0.1l0.9-0.6l0.4-0.3l10.7-6.8h1.1h0.4v0.5z" />
					</g>
				</g>
			</g>
			<g id="Layer">
				<g id="Layer">
					<path id="Layer" class="s13" d="m187 12.6h30.7v5.3h-30.7z" />
				</g>
			</g>
			<g id="Layer">
				<g id="Layer">
					<path id="Layer" class="s12" d="m187 13.6h30.7v3.4h-30.7z" />
				</g>
			</g>
			<g id="Layer">
				<g id="Layer">
					<path id="Layer" class="s14" d="m200.8 5.8h3.4v19.4h-3.4z" />
				</g>
			</g>
			<g id="Layer">
				<g id="Layer">
					<g id="Layer">
						<path id="Layer" class="s13" d="m204.1 17.9h1v7.3h-5.3v-7.3h1v-5.3h-1v-6.8h5.3v6.8h-1z" />
					</g>
				</g>
				<g id="Layer">
					<g id="Layer">
						<path id="Layer" class="s12" d="m200.7 5.8h3.4v19.4h-3.4z" />
					</g>
				</g>
			</g>
		</g>
	</g>
</svg>